<?xml version="1.0" standalone="no"?>
<!DOCTYPE svg PUBLIC "-//W3C//DTD SVG 1.1//EN" "http://www.w3.org/Graphics/SVG/1.1/DTD/svg11.dtd" >
<svg xmlns="http://www.w3.org/2000/svg" xmlns:xlink="http://www.w3.org/1999/xlink" version="1.1">
<metadata>
Created by FontForge 20190801 at Sat Jun 20 13:28:58 2009
 By Jimmy Wärting
Copyright (c) 2009 by Maximiliano Sproviero &#38; Sabrina Lopez. All rights reserved.
</metadata>
<defs>
<font id="AphroditeText" horiz-adv-x="833" >
  <font-face 
    font-family="Aphrodite Text"
    font-weight="400"
    font-stretch="normal"
    units-per-em="1000"
    panose-1="2 0 0 0 0 0 0 0 0 0"
    ascent="800"
    descent="-200"
    x-height="512"
    cap-height="1113"
    bbox="-542 -689.135 2296 1526.42"
    underline-thickness="50"
    underline-position="-100"
    unicode-range="U+0020-FB02"
  />
<missing-glyph horiz-adv-x="317" 
 />
    <glyph glyph-name="C_h2" unicode="Ch" horiz-adv-x="1292" 
d="M953 262c-66 -188 -301 -436 -619 -385c-220 36 -344 304 -206 657c-132 25 -327 108 -330 318c-5 247 326 495 698 492c50 -1 45 -34 40 -42s-20 -26 -41 -20c-20 7 -32 31 -97 25c-134 -11 -512 -126 -512 -448c5 -117 88 -239 261 -280c9 19 19 38 29 58
c129 237 349 427 541 508c361 137 378 -77 303 -230c-87 -179 -330 -393 -801 -390c-101 -283 -72 -591 178 -615c234 -17 391 126 469 323c29 77 50 137 50 137c57 176 115 312 178 427c76 140 166 225 205 261c122 109 272 127 335 100c60 -24 13 -75 -20 -61
c-162 72 -288 1 -435 -265c-69 -125 -114 -237 -143 -317c-7 -17 -22 -60 -47 -143c40 53 108 145 192 126c89 -21 69 -110 48 -169c-22 -60 -76 -195 -76 -195s-38 -88 21 -91c41 -2 57 38 75 68c0 0 7 11 16 6c7 -3 7 -9 5 -15c-18 -50 -77 -113 -139 -114h-1v0
c-9 0 -17 1 -26 3c-87 24 -17 172 -3 208c13 35 62 154 62 154s38 94 -22 99c-69 7 -152 -87 -188 -190zM290 676c-21 -34 -39 -71 -55 -110c3 -1 5 -1 8 -1c360 -16 647 177 729 357c35 82 60 256 -186 210c-130 -27 -311 -142 -496 -456z" />
    <glyph glyph-name="T_h" unicode="Th" horiz-adv-x="1150" 
d="M1425 1098c0 -5 1 -10 1 -15c0 -28 -9 -53 -22 -73c-12 -20 -29 -35 -45 -47c-33 -23 -64 -33 -65 -33c-63 -22 -148 -35 -226 -32c-11 -18 -21 -37 -32 -57c-68 -125 -113 -237 -140 -317c-7 -17 -23 -60 -46 -143c39 53 106 145 190 125c90 -21 70 -109 49 -168
c-21 -60 -82 -226 -82 -226s-21 -65 31 -69c40 -2 56 38 73 68c0 0 7 11 17 7c7 -4 6 -10 5 -16c-18 -50 -76 -113 -138 -114c-9 0 -18 1 -27 3c-87 25 -18 181 -5 216c13 36 60 155 60 155s38 94 -23 99c-42 4 -91 -36 -132 -95c-27 -39 -51 -86 -67 -136
c-42 -124 -74 -210 -74 -210s-2 -9 -12 -13c-11 -4 -69 -18 -69 -18s-9 1 -7 9c3 7 138 381 138 381c60 176 112 312 173 427c19 35 39 67 59 96c-102 10 -199 35 -288 66l-189 -617s-57 -208 -175 -303c-139 -112 -257 -39 -282 -25c-24 13 -34 38 -15 59
c18 22 53 14 81 -24s68 -49 133 -25c66 23 111 145 135 209c21 55 187 594 236 753c-140 53 -259 109 -353 116c-185 17 -334 -18 -367 -219c-13 -176 162 -242 217 -253c55 -10 177 -20 231 35c29 33 33 60 46 75c21 20 42 16 47 12c6 -5 22 -19 -3 -50
c-23 -29 -122 -137 -368 -111c-194 33 -274 188 -255 294c19 105 174 289 464 252c131 -17 245 -60 356 -103c14 33 66 61 90 70c22 8 10 -20 10 -20l-24 -79c96 -37 191 -69 295 -81c71 106 126 156 168 189c41 32 78 47 83 48c19 5 35 7 50 7c20 0 37 -4 50 -12
c13 -7 22 -18 28 -27c13 -20 15 -39 15 -40zM1379 1026c10 16 17 35 17 57c0 12 -5 30 -14 43c-4 5 -9 9 -15 13c-9 5 -20 8 -35 8c-30 0 -71 -16 -105 -42c-38 -27 -88 -81 -144 -176c82 -4 179 11 237 45c20 11 44 29 59 52z" />
    <glyph glyph-name="i_l" unicode="il" horiz-adv-x="529" 
d="M73 -4c-86 24 -9 181 6 217c15 35 69 155 69 155s45 94 -15 99c-29 3 -62 -14 -93 -44c-12 -12 -21 -1 -21 -1c-7 7 4 19 7 23c40 42 92 81 149 68c89 -21 59 -110 35 -170c-24 -59 -94 -226 -94 -226s-25 -66 28 -69c40 -2 58 38 77 68c0 0 7 11 17 7c7 -4 6 -10 4 -16
c-20 -51 -87 -129 -169 -111zM236 609c-76 15 -120 65 -120 65c-17 21 -28 43 -29 72c0 166 233 219 233 219c46 12 94 16 136 13h1c63 -2 124 -17 184 -37c122 200 290 365 525 441c104 33 231 45 327 15c79 -24 160 -78 174 -165c31 -185 -172 -317 -348 -368
c-133 -37 -274 -45 -411 -29c-81 9 -161 25 -239 48c-61 -115 -119 -265 -159 -381c-45 -126 -115 -365 -115 -365c-6 -28 -29 -87 25 -89c40 -1 57 38 74 68c0 0 7 11 17 7c7 -4 6 -10 4 -16c-17 -51 -70 -113 -133 -114c-9 0 -18 0 -27 3c-87 24 -50 136 29 354
c19 49 35 100 55 152c46 131 108 276 178 398c-73 25 -145 49 -222 51c0 0 -57 2 -122 -23c-72 -26 -168 -91 -157 -189c4 -41 48 -59 112 -36c6 2 12 3 18 3c27 0 49 -22 49 -49s-24 -56 -59 -48zM1329 885c129 41 305 177 262 335c-47 169 -279 190 -420 145
c-217 -74 -368 -244 -479 -441c75 -25 153 -46 232 -57c129 -18 264 -21 391 14c5 1 9 2 14 4z" />
    <glyph glyph-name="t_i" unicode="ti" horiz-adv-x="560" 
d="M533 702c27 0 48 -22 48 -49c-1 -27 -23 -49 -50 -49s-49 22 -48 49c0 27 23 49 50 49zM530 121c7 -3 6 -10 4 -15c-26 -63 -97 -127 -171 -111c-76 19 -40 111 -22 150c19 41 81 205 81 205s25 64 7 100c-7 16 -26 24 -52 24h-120c-7 0 -8 -6 -8 -6l-91 -257
c-31 -92 -44 -163 -10 -165c40 -3 59 38 78 68c0 0 9 11 18 7c7 -4 4 -10 2 -16c-21 -51 -77 -112 -140 -112c-99 0 -63 110 -39 176c11 30 41 116 75 215c32 86 -9 90 -13 90c-11 0 -15 8 -15 17c0 10 8 18 21 18h47c3 0 7 2 8 6c26 72 49 137 49 137c36 90 74 111 120 115
c0 0 25 -1 14 -10c-33 -24 -63 -110 -63 -110s-43 -128 -45 -132s1 -6 4 -6h131h1c43 -1 78 -9 94 -31c25 -35 23 -63 -6 -153c-28 -69 -80 -210 -80 -210s-31 -65 26 -68c40 -2 59 38 79 68c0 0 7 10 16 6z" />
    <glyph glyph-name="P_i" unicode="Pi" horiz-adv-x="1422" 
d="M1059 1181c372 -1 487 -166 487 -318c0 -151 -108 -284 -217 -355c43 -12 56 -39 56 -71c0 -31 -12 -67 -24 -97c-72 -172 -90 -254 -90 -258c0 -16 8 -35 36 -35c40 0 57 37 77 68c0 0 5 7 12 7s10 -6 10 -10c0 -2 0 -4 -1 -6c-22 -56 -82 -114 -146 -114
c-55 0 -71 33 -71 66c0 45 87 246 105 307c0 0 16 36 16 66c0 19 -7 40 -30 40c-7 0 -15 -2 -24 -4c-58 -27 -120 -42 -180 -46c-84 1 -132 22 -133 63c1 25 33 43 42 43c1 0 2 -1 2 -2c0 -3 -8 -13 -8 -20c0 -28 44 -53 107 -53c216 0 374 237 374 420
c0 133 -76 243 -277 260c-8 0 -15 1 -23 1c-15 -1 -30 -6 -34 -18c-7 -18 -67 -216 -238 -719c-134 -392 -340 -458 -481 -458c-40 0 -74 6 -100 10c-124 21 -281 125 -281 308c0 132 83 245 192 310c20 298 364 615 842 615zM1036 1098c0 3 1 7 1 10c0 14 -6 26 -24 27
c-501 -20 -704 -312 -724 -534c43 15 88 24 131 24c132 0 208 -73 208 -161c0 -120 -122 -184 -198 -184c-139 0 -210 117 -214 251c-85 -63 -122 -133 -122 -248c0 -108 45 -248 226 -295c31 -8 62 -13 91 -13c172 0 309 144 407 437c99 306 206 645 218 686zM288 570
c0 -152 87 -231 176 -231c64 0 122 54 122 119c0 40 -43 131 -194 131c-37 0 -72 -7 -104 -19z" />
    <glyph glyph-name="P_r" unicode="Pr" horiz-adv-x="1565" 
d="M1528 511c42 0 86 -29 85 -81c-3 -82 -66 -84 -73 -84c-26 0 -53 20 -52 53c1 23 18 44 40 51c9 3 23 3 24 17c0 12 -15 20 -27 20c-67 0 -171 -134 -215 -257c-47 -125 -73 -201 -73 -201s-2 -10 -13 -14c-9 -4 -67 -18 -67 -18s-8 1 -5 9c3 7 142 374 142 374
s25 71 34 140c-79 -57 -169 -89 -257 -96c-81 1 -126 23 -125 64c3 34 55 55 42 38c-22 -31 17 -68 85 -70c97 -4 188 49 256 126c-4 36 -20 62 -57 63c-35 1 -57 -14 -76 -40c-4 -5 -12 -8 -17 -5c-7 5 -1 15 -1 15s58 78 117 77c40 -1 67 -15 82 -46c31 46 52 97 65 148
c40 170 -10 329 -244 350c-8 0 -14 1 -22 1c-14 -1 -29 -6 -33 -18c-7 -18 -71 -219 -253 -728c-181 -509 -460 -475 -572 -453c-114 20 -253 119 -258 293c-2 142 83 263 194 332c7 60 25 125 57 189c115 231 416 436 771 434c417 -1 489 -229 444 -398
c-27 -90 -75 -165 -136 -224c0 -49 -12 -115 -37 -200h1c35 46 99 139 174 139zM1057 1110c4 17 2 36 -20 37c-480 -20 -685 -316 -712 -540c70 26 144 32 209 12c116 -38 145 -163 68 -261c-89 -106 -210 -82 -262 -41c-57 47 -88 126 -88 219c-49 -38 -86 -88 -104 -136
c-32 -85 -61 -346 185 -414c205 -58 370 83 492 429c105 310 220 653 232 695zM323 575c-5 -89 21 -164 69 -199c88 -66 164 -30 199 36c21 40 32 117 -79 168c-69 23 -134 17 -189 -5z" />
    <glyph glyph-name="t_r" unicode="tr" horiz-adv-x="764" 
d="M709 507c44 0 91 -29 91 -80c0 -81 -66 -82 -73 -82c-28 0 -56 18 -56 51c0 23 17 43 40 50c9 3 24 3 24 17c0 12 -17 20 -29 20c-70 0 -174 -131 -216 -253c-43 -124 -66 -203 -66 -203s-2 -9 -13 -13c-9 -4 -68 -18 -68 -18s-8 1 -6 9c3 7 131 372 131 372
s32 107 -80 107h-136c-7 0 -8 -6 -8 -6l-89 -266c-30 -92 -41 -163 -7 -165c40 -3 58 38 77 68c0 0 8 11 17 7c7 -4 5 -10 3 -16c-20 -51 -75 -112 -138 -112c-99 0 -65 110 -42 176c10 30 42 126 74 224c30 86 -11 90 -15 90c-11 0 -15 8 -15 17c0 10 8 18 21 18h47
c3 0 7 2 8 6c24 72 43 127 43 127c35 90 72 111 118 115c0 0 25 -1 14 -10c-32 -24 -61 -110 -61 -110s-38 -118 -39 -122c-2 -4 1 -6 4 -6h162c129 0 118 -99 104 -150h2c35 46 98 138 177 138z" />
    <glyph glyph-name="x_i" unicode="xi" horiz-adv-x="774" 
d="M740 121c6 -3 6 -10 5 -15c-24 -63 -91 -126 -160 -110c-72 19 -39 110 -23 149c17 41 77 219 77 219s40 100 -6 104c-17 1 -39 -11 -58 -22c-22 -15 -29 -4 -29 -3c0 0 -9 9 20 31c31 26 66 42 104 33c83 -21 57 -105 33 -168c-27 -69 -77 -224 -77 -224s-27 -65 26 -68
c38 -2 55 38 73 68c0 0 6 10 15 6zM754 694c15 -8 25 -24 25 -43c0 -27 -20 -49 -46 -49c-17 0 -32 10 -40 26c-14 27 -47 14 -61 5c-34 -20 -67 -56 -67 -56l-285 -289c0 -4 1 -7 70 -202c8 -24 14 -42 27 -43c38 0 55 35 72 68c2 4 8 10 15 7s7 -10 5 -16
c-19 -51 -73 -111 -132 -111c-26 0 -43 11 -54 39c-20 59 -41 119 -65 188l-246 -271s-88 -100 -167 -100c-29 0 -85 19 -69 63c6 16 21 25 39 25c17 0 37 -9 46 -26c5 -8 10 -17 25 -17c18 0 47 9 81 42c38 36 164 168 284 307c-60 172 -69 196 -70 200c0 0 -5 12 -15 12
c-25 0 -48 -38 -63 -56c-3 -5 -10 -8 -15 -5c-8 5 -1 15 -1 15s65 103 122 103c20 0 36 -15 46 -37c22 -49 36 -109 56 -161c149 153 366 368 366 368c31 31 80 35 114 16c0 0 0 -1 1 -1h1c0 -1 1 -1 1 -1z" />
    <glyph glyph-name="f_u" unicode="fu" horiz-adv-x="862" 
d="M874 506c4 -4 5 -7 0 -10c-30 -16 -50 -73 -50 -73l-69 -210c-30 -92 -39 -163 -6 -166c41 -2 58 38 77 69c0 0 7 11 16 6c7 -3 7 -10 5 -15c-20 -52 -75 -112 -138 -112c-66 0 -67 73 -52 140h-3c-39 -50 -127 -152 -218 -136c-90 16 -66 110 -43 169
c18 46 58 144 77 193c4 8 46 103 -64 103h-153l-43 -139c-67 -225 -154 -498 -154 -498s-91 -306 -318 -296c0 0 -161 15 -112 90c0 0 21 27 51 1c36 -30 28 -57 106 -62c24 1 114 11 209 308c57 181 122 387 164 521c0 0 23 75 -53 75h-23s-16 1 -15 21c1 21 16 19 16 19
h111c41 141 126 352 293 362c53 3 105 -14 126 -51c21 -38 -5 -58 -5 -58s-49 -30 -64 20c-19 64 -56 69 -93 57c0 0 -74 -19 -125 -157c-11 -32 -28 -84 -56 -173h171s76 0 104 -27c22 -22 27 -48 12 -93c-2 -10 -5 -19 -9 -30c-25 -71 -52 -132 -80 -206
c0 0 -39 -91 11 -103c55 -14 180 105 210 200l63 179c30 89 80 83 111 85c0 0 9 1 13 -3z" />
    <glyph glyph-name="v_a" unicode="va" horiz-adv-x="1005" 
d="M852 354c5 70 -10 112 -48 117c-96 14 -204 -165 -226 -254c-18 -70 -16 -144 40 -158c122 -31 225 193 234 295zM631 432c60 58 126 92 181 75c30 -10 72 -40 68 -122c33 91 67 112 114 116c0 0 24 -1 14 -10c-30 -24 -57 -110 -57 -110l-55 -173
c-28 -91 -35 -163 -1 -165c40 -2 56 38 74 68c0 0 7 11 16 7c7 -4 7 -10 5 -16c-18 -51 -71 -112 -134 -112c-99 0 -69 110 -48 176h-2c-29 -70 -156 -210 -256 -159c-126 63 -66 253 39 381c-52 -17 -116 -7 -155 11c5 -75 -9 -176 -84 -279c-122 -167 -257 -123 -257 -123
c-87 15 -81 152 10 266c24 31 44 63 61 100c7 19 40 104 4 107c-20 2 -50 -29 -78 -63c-12 -13 -29 -1 -16 15c4 6 8 10 8 10s76 96 131 86c0 0 60 0 44 -94c-16 -90 -60 -149 -76 -171c-52 -69 -112 -212 -30 -225c82 -12 150 75 169 100c16 23 100 150 69 274
c-13 43 -43 49 -49 67c-8 18 2 36 13 46c18 14 48 13 61 -8c16 -29 117 -155 217 -75z" />
    <glyph glyph-name="c_u" unicode="cu" horiz-adv-x="938" 
d="M509 449c-22 -19 -30 -10 -30 -10s-10 6 15 31c27 27 61 51 93 46c0 0 90 -8 36 -154c-25 -71 -55 -141 -83 -215c0 0 -39 -91 11 -103c55 -14 180 105 210 200l63 179c30 89 80 83 111 85c0 0 9 1 13 -3s5 -7 0 -10c-30 -16 -50 -73 -50 -73l-69 -210
c-30 -92 -39 -164 -6 -166c41 -3 58 38 77 69c0 0 7 11 16 6c7 -3 7 -10 5 -15c-20 -52 -75 -112 -138 -112c-66 0 -67 73 -52 140h-3c-39 -50 -127 -152 -218 -136c-90 16 -66 110 -43 169c18 46 61 153 80 202c18 42 36 93 3 97c-13 2 -27 -6 -41 -17zM341 439
c26 8 31 14 31 22c0 7 -5 19 -36 19c-12 0 -29 -2 -47 -11c-120 -62 -180 -243 -180 -302c0 -65 36 -114 103 -114s120 59 156 127c0 0 5 12 13 12c5 0 7 -4 7 -9c0 -49 -110 -190 -222 -190c-101 0 -144 87 -144 157c0 159 159 360 303 360c96 0 117 -67 117 -86
c0 -63 -35 -80 -64 -80c-49 0 -65 35 -65 52c0 21 16 39 28 43z" />
    <glyph glyph-name="q_u" unicode="qu" horiz-adv-x="1010" 
d="M583 449c-22 -19 -30 -10 -30 -10s-10 6 15 31c27 27 61 51 93 46c0 0 90 -8 36 -154c-25 -71 -55 -141 -83 -215c0 0 -39 -91 11 -103c55 -14 180 105 210 200l63 179c30 89 80 83 111 85c0 0 9 1 13 -3s5 -7 0 -10c-30 -16 -50 -73 -50 -73l-69 -210
c-30 -92 -39 -164 -6 -166c41 -3 58 38 77 69c0 0 7 11 16 6c7 -3 7 -10 5 -15c-20 -52 -75 -112 -138 -112c-66 0 -67 73 -52 140h-3c-39 -50 -127 -152 -218 -136c-90 16 -66 110 -43 169c18 46 61 153 80 202c18 42 36 93 3 97c-13 2 -27 -6 -41 -17zM540 500
c0 0 16 -1 16 -6c0 -1 -1 -2 -3 -4c-27 -24 -43 -73 -43 -73l-251 -750s-8 -26 -8 -52c0 -30 13 -53 47 -53c41 0 75 44 100 44c7 0 20 -7 20 -20c0 -22 -37 -56 -109 -56c-93 0 -117 59 -117 116c0 24 5 46 10 62c21 67 157 457 158 457h-3c-24 -60 -119 -169 -210 -169
c-86 0 -122 76 -122 137c0 156 175 377 303 377c23 0 99 -11 99 -118v-8c32 91 66 112 113 116zM399 353c0 8 1 15 1 23c0 62 -21 95 -62 95c-93 0 -190 -170 -210 -255c-6 -23 -9 -47 -9 -68c0 -54 20 -93 75 -93c112 0 199 202 205 298z" />
    <glyph glyph-name="t_u" unicode="tu" horiz-adv-x="839" 
d="M432 485h-181s-8 -6 -8 -6l-89 -268c-30 -92 -41 -163 -7 -165c40 -3 58 38 77 68c0 0 8 11 17 7c7 -4 5 -10 3 -16c-20 -51 -75 -112 -138 -112c-99 0 -65 110 -42 176c10 30 42 126 74 226c30 86 -11 90 -15 90c-11 0 -15 8 -15 17c0 10 8 18 21 18h47c3 0 7 2 8 6
c24 72 43 127 43 127c35 90 72 111 118 115c0 0 25 -1 14 -10c-32 -24 -61 -110 -61 -110s-38 -118 -39 -122c-2 -4 1 -6 4 -6h216c17 0 97 -10 42 -157c-26 -71 -55 -142 -83 -216c0 0 -39 -91 11 -103c55 -14 180 105 210 200l63 180c30 89 80 83 111 85c0 0 9 1 13 -3
s5 -7 0 -10c-30 -16 -50 -73 -50 -73l-69 -211c-30 -92 -39 -163 -6 -166c41 -2 58 38 77 69c0 0 7 11 16 6c7 -3 7 -10 5 -15c-20 -52 -75 -112 -138 -112c-66 0 -67 73 -52 140h-3c-39 -50 -127 -152 -218 -136c-90 16 -66 110 -43 169c18 46 61 154 80 203
c18 42 46 115 -13 115z" />
    <glyph glyph-name="t_y" unicode="ty" horiz-adv-x="806" 
d="M433 481h-181s-8 -6 -8 -6l-89 -267c-18 -52 -28 -98 -28 -128c0 -25 7 -37 25 -37c37 0 55 39 73 68c0 0 6 8 13 8c6 0 9 -6 9 -9c0 -2 -1 -5 -2 -8c-20 -51 -75 -112 -138 -112c-51 0 -67 29 -67 67c0 35 14 77 25 109c10 30 41 126 74 225c7 23 11 40 11 52
c0 60 -41 22 -41 55c0 34 71 7 76 24c23 72 44 127 43 127c35 90 72 111 118 115c0 0 17 -1 17 -6c0 -1 -1 -3 -3 -4c-32 -24 -61 -110 -61 -110c2 -2 -40 -115 -40 -125c0 -5 183 -3 221 -3c47 0 61 -31 61 -69c0 -29 -8 -63 -17 -89c-24 -72 -54 -144 -83 -217
c-6 -14 -15 -39 -15 -63s8 -44 35 -44c60 0 138 87 169 135c41 64 61 142 86 217c31 92 69 114 115 118c0 0 16 -1 16 -7c0 -1 0 -2 -2 -4c-27 -24 -45 -74 -45 -74l-138 -418c-62 -219 -217 -495 -492 -495c-108 0 -239 64 -239 188c0 175 249 233 316 233
c15 0 38 -4 38 -21c0 -16 -13 -24 -23 -24c-16 0 -37 13 -66 13c-90 0 -188 -87 -188 -182c0 -108 97 -174 204 -174c259 0 375 451 421 588c-46 -52 -118 -141 -199 -141c-69 0 -90 43 -90 82c0 63 60 190 104 297c9 23 21 55 21 80c0 20 -9 36 -36 36z" />
    <glyph glyph-name="F_u" unicode="Fu" horiz-adv-x="1736" 
d="M1344 372c6 20 13 48 13 76c0 52 -25 105 -132 105c-67 0 -143 -16 -203 -32c-26 -72 -49 -132 -63 -173c-60 -178 -208 -461 -524 -461c-351 0 -380 240 -380 307c0 120 124 348 384 357c18 -1 30 -16 30 -28c0 -14 -8 -35 -35 -35c-21 0 -37 15 -71 15
c-116 0 -236 -140 -236 -282s108 -301 337 -301c255 0 364 281 462 572c-21 -3 -41 -5 -59 -5c-161 0 -181 132 -181 141c0 2 -1 10 -1 27c0 16 2 33 21 33c0 0 9 -1 9 -11c0 -17 -3 -43 -3 -46l1 -1c1 -2 8 -116 154 -116c21 0 43 2 69 7c96 269 194 430 337 533
c-162 50 -356 113 -550 113c-219 0 -442 -86 -509 -273c-16 -45 -23 -83 -23 -115c0 -160 156 -167 156 -176c0 -6 -30 -11 -39 -11c-118 0 -189 82 -189 193c0 25 4 49 11 75c83 315 524 339 608 339c216 0 412 -66 578 -116c83 49 178 78 271 78c107 0 146 -32 146 -68
c0 -64 -88 -102 -167 -102c-71 0 -153 21 -244 48c-138 -118 -230 -327 -291 -493c78 23 174 41 249 41c123 0 152 -82 152 -150c0 -30 -5 -57 -11 -73c-26 -71 -56 -142 -84 -216c0 0 -15 -34 -15 -64c0 -21 8 -41 35 -41c59 0 174 112 203 203l62 173c31 89 83 86 114 86
c7 0 14 -4 14 -10c0 -1 -1 -3 -3 -4c-30 -16 -50 -73 -50 -73l-69 -205c-17 -51 -27 -97 -27 -127c0 -26 7 -40 24 -40c39 0 55 40 75 70c0 0 5 7 11 7c7 0 11 -6 11 -10c0 -2 0 -4 -1 -6c-20 -53 -76 -113 -139 -113c-46 0 -61 34 -61 78c0 20 3 41 8 63h-3
c-36 -47 -116 -139 -200 -139c-65 0 -84 41 -84 80c0 67 62 190 102 296zM1661 1083c-1 40 -36 50 -83 50c-83 0 -152 -19 -218 -65c80 -23 155 -44 218 -44c18 0 83 8 83 59z" />
    <glyph glyph-name="fi" unicode="fi" horiz-adv-x="606" 
d="M209 348c-67 -225 -163 -522 -163 -522c0 -8 -91 -296 -318 -296c0 0 -121 11 -121 63c0 7 1 39 34 39c8 0 16 -3 26 -11c36 -30 28 -57 106 -62c22 1 114 11 209 308c57 181 120 387 164 521c0 0 3 21 3 34c-4 26 -22 42 -55 42h-23s-16 1 -16 21c0 19 14 19 16 19h113
c5 18 8 28 8 28c21 51 94 321 286 332c90 0 158 -49 158 -135c0 -52 -19 -128 -68 -128c-27 0 -49 22 -49 49c0 73 87 22 89 83c-5 87 -70 106 -130 106c-81 0 -135 -84 -163 -162c-12 -32 -28 -86 -56 -173h217c63 0 82 -29 82 -66c0 -60 -104 -281 -120 -327
c0 0 -6 -16 -6 -32c0 -18 7 -36 36 -36c39 0 56 39 74 68c0 0 5 7 12 7c8 0 10 -6 10 -9s0 -5 -1 -7c-20 -51 -78 -114 -143 -114c-49 0 -65 28 -65 65c0 56 36 131 46 154c15 35 68 154 68 154s18 34 18 63c0 20 -9 39 -40 40h-198s1 5 -22 -62c-5 -14 -11 -32 -18 -54z
" />
    <glyph glyph-name="f_f" unicode="ff" horiz-adv-x="708" 
d="M268 503h189h89c42 144 130 362 305 362c58 0 122 -28 122 -79c0 -20 -13 -30 -13 -30s-15 -9 -30 -9c-13 0 -27 6 -34 29c-14 47 -38 62 -64 62c-9 0 -19 -2 -29 -5c0 0 -75 -19 -125 -157c-12 -32 -28 -84 -56 -173h148c1 0 12 0 12 -19c0 -21 -18 -21 -17 -21h-158
l-43 -139c-67 -225 -154 -498 -154 -498s-88 -296 -307 -296h-11c0 0 -121 11 -121 63c0 7 1 39 34 39c8 0 16 -3 26 -11c36 -30 28 -57 106 -62c23 1 114 11 209 308c57 181 121 387 164 521c0 0 3 11 3 24c0 22 -9 51 -56 51h-6h-198l-43 -139
c-67 -225 -154 -498 -154 -498s-88 -296 -307 -296h-11c0 0 -121 11 -121 63c0 7 1 39 34 39c8 0 16 -3 26 -11c36 -30 28 -57 106 -62c23 1 114 11 209 308c57 181 121 387 164 521c0 0 3 11 3 24c0 22 -9 51 -56 51h-23c-1 0 -15 1 -15 21c0 19 14 19 16 19h111
c42 144 130 362 305 362c58 0 122 -28 122 -79c0 -20 -13 -30 -13 -30s-15 -9 -30 -9c-13 0 -27 6 -34 29c-14 47 -38 62 -64 62c-9 0 -19 -2 -29 -5c0 0 -75 -19 -125 -157c-12 -32 -28 -84 -56 -173z" />
    <glyph glyph-name=".notdef" horiz-adv-x="317" 
 />
    <glyph glyph-name=".null" horiz-adv-x="0" 
 />
    <glyph glyph-name="CR" horiz-adv-x="317" 
 />
    <glyph glyph-name="space" unicode=" " horiz-adv-x="317" 
 />
    <glyph glyph-name="k" unicode="k" horiz-adv-x="528" 
d="M854 1166c21 -9 29 -21 29 -32c0 -17 -18 -33 -35 -33c-5 0 -10 1 -14 4c-34 19 -68 27 -101 27c-219 0 -403 -383 -477 -610c-27 -66 -43 -136 -66 -206c-1 -3 -1 -5 -1 -7c0 -9 2 -12 18 -12c24 0 73 11 134 90c65 83 107 119 149 119c10 0 21 -2 31 -6
c0 0 53 -18 53 -69c0 -29 -27 -85 -72 -85c-31 0 -54 23 -54 52c0 44 50 46 50 68c0 8 -6 16 -17 16c-12 0 -56 -29 -93 -77c-27 -35 -73 -107 -118 -118c6 0 96 1 96 -51c0 -37 -42 -114 -42 -158c0 -23 10 -34 37 -34c39 0 67 35 87 65c3 4 9 11 16 11c5 0 7 -3 7 -9
c0 -7 -4 -17 -11 -26c-7 -10 -72 -99 -134 -99c-52 0 -70 37 -70 74c0 36 16 83 41 161c2 5 2 10 2 14c0 33 -35 35 -43 35c-7 0 -78 -2 -109 -77c-37 -105 -58 -175 -58 -175s-1 -9 -12 -13c-10 -5 -76 -18 -76 -18s-7 0 -7 5c0 1 0 2 1 3c3 14 104 292 134 382
c87 261 178 498 390 688c90 81 195 112 269 112c27 0 49 -4 66 -11z" />
    <glyph glyph-name="l" unicode="l" horiz-adv-x="249" 
d="M76 -5c-37 8 -56 33 -56 73c0 17 3 39 11 61c168 501 267 762 469 943c91 81 196 112 270 112c61 0 94 -21 94 -43c0 -17 -17 -33 -34 -33c-5 0 -10 1 -14 4c-33 20 -66 29 -99 29c-211 0 -406 -385 -480 -612c-50 -132 -126 -396 -131 -413c0 0 -5 -15 -5 -31
c0 -19 7 -40 36 -42c49 0 62 80 85 80c7 0 11 -6 11 -10c0 -2 0 -4 -1 -6c-17 -47 -70 -114 -138 -114c-6 0 -12 1 -18 2z" />
    <glyph glyph-name="g" unicode="g" horiz-adv-x="494" 
d="M181 -7c3 -3 5 -7 5 -13c0 -18 -22 -49 -93 -61c-92 -16 -275 -35 -275 -186c0 -153 155 -166 154 -166c0 0 12 -2 31 -2c48 0 144 15 192 124c58 132 90 246 90 246s55 178 69 232h-2c-27 -67 -117 -170 -206 -170c-88 0 -125 79 -125 141c0 155 171 373 298 373
c23 0 101 -11 101 -117v-8c31 90 65 111 111 115c0 0 16 0 16 -6c0 -1 0 -2 -2 -4c-26 -24 -42 -72 -42 -72c-67 -212 -66 -217 -200 -639c0 0 -75 -246 -296 -246c-23 0 -48 3 -74 9c-141 32 -194 110 -194 186c0 84 64 166 145 182c145 28 222 1 297 82zM393 355v15
c0 43 -9 102 -65 102c-88 -3 -176 -155 -202 -242c-6 -20 -11 -48 -11 -76c0 -51 16 -97 76 -97c111 0 196 202 202 298z" />
    <glyph glyph-name="s" unicode="s" horiz-adv-x="391" 
d="M304 512c20 0 116 -4 116 -86c0 -33 -21 -76 -61 -76c-25 0 -49 23 -49 51c0 37 37 43 37 60c0 20 -35 27 -56 27c-47 0 -107 -25 -107 -76c0 -106 166 -149 166 -269c0 -34 -18 -151 -182 -151c-76 0 -162 22 -162 105c0 57 33 78 63 78c26 -2 47 -25 47 -52
c0 -31 -31 -37 -31 -59c0 -29 42 -45 69 -45c39 0 118 15 118 103c0 83 -169 149 -169 247c0 11 1 22 6 33c41 104 138 110 195 110z" />
    <glyph glyph-name="o" unicode="o" horiz-adv-x="484" 
d="M332 512c8 0 16 -1 24 -2c0 0 121 -15 121 -160c0 -38 -9 -87 -31 -146c-9 -33 -100 -215 -259 -215c-112 0 -153 86 -153 178c0 38 8 76 20 108c-1 -1 50 124 74 124c0 -9 10 -44 32 -61c0 0 7 -4 7 -13c0 -2 -1 -4 -2 -7c-40 -89 -55 -154 -55 -200
c0 -71 34 -99 70 -99c102 0 161 149 194 244c10 29 26 84 26 131c0 50 -17 92 -75 92c-21 0 -70 -15 -70 -48c0 -15 8 -22 8 -38c0 -31 -25 -56 -56 -56s-56 25 -56 56c0 58 109 112 181 112z" />
    <glyph glyph-name="x" unicode="x" horiz-adv-x="523" 
d="M508 521c16 11 41 24 64 24c32 0 54 -24 54 -47c0 -24 -19 -38 -42 -38c-24 0 -43 23 -61 23c-44 0 -114 -71 -114 -71l-118 -123c0 -4 1 -7 74 -203c8 -23 14 -43 29 -43c40 0 58 35 76 68c1 3 6 8 12 8c7 0 10 -6 10 -11c0 -2 0 -4 -1 -6c-20 -51 -77 -112 -140 -112
c-28 0 -46 11 -57 40c-22 59 -44 119 -69 188l-249 -272s-93 -100 -177 -100c-27 0 -76 15 -76 48c0 24 19 40 44 40c40 0 47 -43 75 -43c19 0 49 9 86 42c41 36 162 169 289 309c-63 172 -73 196 -74 200c0 0 -5 12 -16 12c-35 0 -61 -62 -78 -62c-7 0 -9 4 -9 8s3 8 3 8
s69 104 130 104c59 0 79 -130 108 -199c154 162 227 208 227 208z" />
    <glyph glyph-name="z" unicode="z" horiz-adv-x="475" 
d="M248 514c66 0 104 -81 148 -81c35 0 56 69 91 69c5 0 29 0 29 -29c0 -59 -83 -79 -129 -121c-49 -44 -295 -274 -295 -274s57 27 110 27c32 0 63 -9 85 -37c43 -55 108 -178 108 -178s23 -58 64 -58c14 0 27 5 44 25c34 42 44 56 44 56c3 6 11 13 18 13c8 0 12 -6 12 -10
c0 -8 -7 -17 -7 -17s-74 -114 -157 -114c-41 0 -73 29 -98 64c-41 55 -79 219 -162 219c-27 0 -59 -17 -99 -60c0 0 -25 -27 -53 -27c-10 0 -30 5 -30 19c0 23 49 61 49 61s370 325 374 339c-17 3 -81 27 -146 27c-48 0 -98 -14 -128 -59c-4 -8 -12 -13 -20 -13
c-6 0 -8 2 -8 7c0 11 21 38 36 61c18 27 55 91 120 91z" />
    <glyph glyph-name="N" unicode="N" horiz-adv-x="1472" 
d="M2074 1227c76 4 147 -27 120 -76c-11 -21 -37 -43 -77 -19c-38 23 -77 35 -115 24c-186 -50 -500 -444 -717 -1129c-8 -26 -8 -30 -13 -33c-4 -3 -19 -12 -39 -17c-20 -6 -28 10 -37 32c-69 218 -82 545 -104 782c-21 -69 -159 -328 -282 -567
c-96 -186 -266 -300 -462 -300c-104 0 -326 50 -321 272c11 286 280 323 302 324c23 1 36 -14 34 -35c-1 -16 -17 -32 -33 -30c-31 4 -33 25 -96 11c-68 -19 -144 -125 -141 -265c3 -150 109 -244 264 -244c172 0 325 118 401 248c104 185 230 446 293 583c1 1 1 3 2 4
c47 134 2 354 -168 369c-2 0 -18 1 -20 1v0v0c-89 -1 -184 -38 -265 -98c-82 -60 -149 -142 -182 -233c-14 -39 -21 -76 -21 -111c0 -61 21 -113 59 -149c38 -37 94 -65 164 -65c59 0 87 5 128 23c15 6 21 19 23 26c1 2 1 3 1 4l1 1v0c3 8 9 15 18 20c17 8 36 4 43 -10
c7 -13 -1 -29 -17 -39c-57 -38 -131 -49 -197 -49c-77 0 -140 24 -185 67c-44 43 -68 103 -68 171c0 39 7 79 23 122c35 97 106 184 192 247c83 61 185 110 295 106c113 -2 204 -62 235 -152c82 -242 64 -598 125 -908c7 -38 12 -44 18 -44c7 0 7 8 16 37
c351 1005 742 1096 803 1099z" />
    <glyph glyph-name="S" unicode="S" horiz-adv-x="910" 
d="M947 1123c25 -27 39 -64 39 -105c0 -25 -5 -52 -16 -80c-23 -58 -67 -109 -119 -146c-53 -37 -114 -60 -174 -60h-4c104 -100 250 -221 226 -429c-26 -231 -230 -305 -350 -322c-117 -163 -318 -291 -563 -282c-86 2 -125 33 -120 74c1 13 10 24 23 32c11 11 66 5 53 -17
c-6 -5 -9 -11 -9 -19c-2 -26 47 -50 126 -45c86 8 305 69 436 252c-7 0 -14 0 -19 1c-62 6 -403 53 -406 363c2 115 94 247 229 269c129 21 324 -32 358 -267c14 -103 -18 -221 -85 -328c83 16 255 86 252 319c-2 200 -185 289 -274 419c-82 21 -121 48 -128 57
c-7 14 -9 26 3 36s25 1 25 1c15 -10 16 -30 34 -42c12 -8 31 -15 46 -19c-21 42 -33 88 -26 143c20 158 185 232 266 244c33 5 71 4 106 -5c23 -6 52 -24 71 -44zM518 11c49 81 81 183 81 311c-14 214 -177 287 -313 253c-144 -36 -172 -198 -146 -303
c25 -97 112 -249 378 -261zM942 949c9 25 14 48 14 69c0 34 -11 63 -31 84s-49 34 -86 39c-25 4 -53 3 -81 -2c-90 -17 -180 -111 -183 -219c-3 -61 25 -109 65 -154c10 -2 21 -4 32 -4h5c52 0 108 21 156 55c49 33 88 81 109 132z" />
    <glyph glyph-name="F" unicode="F" horiz-adv-x="1289" 
d="M688 683c0 0 13 -2 8 -18c-8 -37 14 -109 66 -136c21 -11 49 -19 86 -19c21 0 43 2 69 7c19 53 38 104 58 151c73 179 168 301 276 379c-125 38 -263 82 -411 101c-251 43 -560 -35 -640 -260c-80 -224 73 -272 118 -282c38 -9 -13 -18 -25 -18
c-143 -4 -217 128 -177 266c71 270 416 329 557 336c233 11 444 -61 621 -115c66 39 136 63 210 75c300 27 213 -141 98 -160c-83 -17 -185 7 -302 42c-137 -117 -228 -325 -289 -490c69 20 141 35 211 39c40 2 98 6 129 -24c36 -34 0 -91 -21 -122c-10 -15 -41 -21 -57 -25
c-3 0 -45 -8 -38 4c18 27 54 82 22 113c-26 25 -73 21 -105 19c-55 -5 -102 -16 -150 -29c-26 -71 -48 -131 -62 -171c-61 -180 -212 -468 -537 -458c-326 10 -360 227 -361 301c-3 118 120 349 381 358c20 -1 32 -18 30 -31c-1 -13 -9 -29 -33 -31c-32 -1 -50 32 -136 1
c-39 -19 -74 -45 -103 -79c-134 -160 -72 -449 222 -483c286 -35 402 260 504 565c-21 -3 -41 -5 -59 -5c-41 0 -73 8 -98 22c-61 32 -91 98 -79 164c0 0 2 15 17 13zM1551 1017c11 -1 86 4 86 58c-1 54 -65 54 -136 47c-60 -5 -114 -27 -163 -61c79 -23 151 -42 213 -44z
" />
    <glyph glyph-name="M" unicode="M" horiz-adv-x="1544" 
d="M952 1152c-89 0 -177 -35 -258 -94c-81 -60 -148 -143 -181 -233c-15 -39 -21 -77 -21 -111c0 -62 21 -113 59 -150c38 -36 93 -65 164 -65c59 0 87 5 128 23c14 6 21 20 23 27c0 1 1 2 1 3v1v1c3 7 10 15 19 19c16 9 36 5 43 -9s0 -28 -17 -39
c-59 -39 -131 -49 -197 -50c-77 0 -141 25 -185 68c-44 42 -68 102 -68 171c0 38 7 79 22 121c36 97 107 184 192 247c84 62 184 102 279 104c171 10 275 -99 263 -271c-2 -231 -133 -524 -123 -787c1 -38 5 -44 11 -44c7 0 8 7 22 37c512 1005 918 1096 979 1099
c76 4 142 -27 108 -77c-14 -20 -45 -42 -80 -18c-61 41 -130 37 -208 -23c-215 -178 -427 -591 -484 -947c-62 -388 -47 -735 324 -774c301 -31 401 194 425 239c24 44 50 48 63 45s28 -18 13 -57c-34 -82 -237 -288 -506 -266c-421 34 -465 419 -402 802
c63 382 284 683 408 848c-315 -284 -629 -946 -642 -973c-12 -25 -13 -29 -18 -32c-5 -4 -21 -12 -42 -18c-21 -5 -27 11 -32 33c-54 207 42 559 108 792c-22 -65 -175 -327 -313 -570c-105 -186 -282 -300 -477 -300c-105 0 -324 50 -308 272c26 286 297 323 320 324
s35 -14 32 -35c-2 -16 -19 -32 -35 -30c-30 4 -31 25 -95 11c-69 -19 -151 -125 -155 -265c-5 -150 96 -244 252 -244c171 0 331 118 413 248c114 186 255 449 325 585c63 122 45 361 -149 362z" />
    <glyph glyph-name="t" unicode="t" horiz-adv-x="272" 
d="M244 478l-89 -267c-30 -92 -41 -163 -7 -165c40 -3 58 38 77 68c0 0 8 11 17 7c7 -4 5 -10 3 -16c-20 -51 -75 -112 -138 -112c-99 0 -65 110 -42 176c10 30 42 126 74 225c30 86 -11 90 -15 90c-11 0 -15 8 -15 17c0 10 8 18 21 18h47c3 0 7 2 8 6c24 72 43 127 43 127
c35 90 72 111 118 115c0 0 25 -1 14 -10c-32 -24 -61 -110 -61 -110s-38 -118 -39 -122c-2 -4 1 -6 4 -6h131s11 -10 8 -19c-2 -8 -9 -16 -23 -16h-128s-8 -6 -8 -6z" />
    <glyph glyph-name="n" unicode="n" horiz-adv-x="527" 
d="M349 -6c-33 9 -44 37 -44 71c0 55 30 124 38 146c44 118 74 152 74 208c0 22 -8 42 -39 42c-68 0 -150 -106 -195 -227c-47 -126 -81 -211 -81 -211s-2 -9 -12 -13c-11 -4 -69 -18 -69 -18c-1 0 -7 1 -7 8c3 8 146 378 146 378s11 29 11 54c0 16 -6 31 -23 31
c-34 0 -79 -64 -79 -64s-4 -7 -11 -7c-6 0 -10 5 -10 9s2 8 2 8s66 105 128 105c43 0 62 -30 62 -69c0 -19 -5 -44 -18 -75h3c34 45 97 139 177 139c68 0 88 -46 88 -84c0 -50 -87 -272 -102 -310c0 0 -7 -17 -7 -34s6 -33 32 -35c51 0 63 76 87 76c7 0 10 -7 10 -11
c0 -2 0 -4 -1 -6c-16 -46 -66 -114 -136 -114c-8 0 -16 1 -24 3z" />
    <glyph glyph-name="B" unicode="B" horiz-adv-x="1522" 
d="M1498 777c-31 -111 -99 -183 -174 -228c113 -68 173 -192 145 -334c-22 -146 -154 -323 -395 -323c-146 0 -230 65 -218 153c10 72 88 110 144 108c24 -1 26 -15 25 -21c-2 -18 -15 -26 -28 -21c-30 13 -71 -6 -78 -67c-4 -41 29 -119 181 -119c121 0 234 67 274 268
c28 141 -32 258 -112 326c-70 -29 -140 -38 -191 -39c-27 1 -104 10 -87 62c21 58 107 66 145 65c52 -3 100 -14 143 -32c57 46 105 113 131 199c53 175 -46 318 -207 336c-7 0 -13 1 -19 1c-17 -1 -34 -7 -41 -25s-70 -206 -234 -710c-163 -501 -461 -467 -580 -446
c-119 20 -268 117 -278 289c-9 141 77 264 192 332c3 58 19 119 50 182c111 227 417 428 787 426c349 -1 466 -215 425 -382zM1047 1069c4 16 11 42 -13 46c-296 13 -698 -187 -732 -532c71 27 147 34 216 14c122 -37 162 -155 90 -252c-103 -123 -226 -87 -273 -50
c-60 47 -97 125 -100 218c-51 -38 -89 -89 -106 -136c-31 -83 -59 -323 202 -403c262 -80 409 170 483 370c35 95 210 647 233 725zM302 551c3 -91 36 -168 88 -201c88 -57 154 -20 185 18c28 34 59 136 -73 189c-74 24 -142 17 -200 -6zM1098 509c43 0 88 13 129 36
c-34 22 -69 35 -102 37c-58 5 -88 -17 -91 -37s17 -34 64 -36z" />
    <glyph glyph-name="C" unicode="C" horiz-adv-x="930" 
d="M830 1105c361 137 378 -77 303 -231c-87 -178 -330 -392 -801 -389c-86 -246 -26 -486 190 -510c90 -3 212 18 336 198c14 20 25 23 32 19c17 -8 15 -22 8 -35c-23 -41 -170 -239 -406 -216c-222 21 -380 224 -250 553c-132 25 -327 108 -330 318c-4 247 326 494 698 492
c49 -1 44 -34 40 -42c-5 -9 -21 -27 -41 -20c-21 6 -32 30 -97 25c-134 -11 -512 -126 -512 -448c5 -117 88 -239 261 -280c9 19 18 38 29 58c129 237 349 427 540 508zM1085 882c35 82 61 256 -185 210c-131 -28 -311 -142 -496 -456c-22 -36 -41 -73 -56 -110
c3 -1 6 -1 9 -1c359 -16 646 177 728 357z" />
    <glyph glyph-name="D" unicode="D" horiz-adv-x="1456" 
d="M951 1159c405 -63 604 -341 533 -694c-78 -388 -411 -556 -619 -544c-144 8 -228 56 -310 106c-103 -102 -202 -100 -244 -100c-55 0 -217 36 -184 139c20 62 89 99 200 102c76 0 148 -33 220 -73c22 35 40 74 57 112c-532 -39 -697 556 -204 841
c188 112 419 131 551 111zM307 -25c96 -23 161 15 209 75c-38 23 -77 44 -124 62c-91 39 -170 17 -196 -18c-25 -36 -12 -91 111 -119zM231 439c96 -160 254 -208 391 -194c2 4 4 9 6 13c65 135 234 733 262 834c4 16 -3 32 -25 34c-13 1 -26 1 -39 1
c-569 -12 -713 -448 -595 -688zM1393 459c53 400 -148 589 -390 648c-18 0 -35 -13 -38 -25c-26 -113 -153 -563 -265 -822c131 40 178 133 189 173c6 21 29 28 55 21c25 -7 23 -30 18 -46c-35 -71 -188 -158 -280 -188c-9 -21 -19 -40 -28 -57c-20 -37 -41 -68 -62 -94
c110 -64 226 -131 367 -112c191 28 389 240 434 502z" />
    <glyph glyph-name="E" unicode="E" horiz-adv-x="807" 
d="M543 1006c277 221 573 121 375 -115c-98 -100 -287 -174 -462 -190c32 -76 126 -101 163 -84c12 6 12 -5 9 -9c-12 -13 -35 -18 -42 -19c-9 -1 -18 -2 -26 -2c-73 -11 -403 -52 -429 -390c-8 -106 64 -225 202 -241c-7 58 -1 127 23 208c34 115 210 351 367 278
c142 -71 -28 -494 -343 -518c17 -73 62 -149 153 -218c7 -5 14 -24 -15 -18c-12 3 -145 69 -180 235c-148 4 -278 61 -297 232c-24 207 234 415 422 436h7c-68 15 -103 55 -110 107c-4 0 -8 0 -13 1c-244 13 -446 144 -466 300c-28 312 461 337 555 302
c25 -10 36 -25 29 -45s-35 -25 -49 -19c-26 11 -18 41 -78 47c-227 19 -383 -101 -392 -237c-3 -202 211 -294 414 -312c8 83 75 188 183 271zM433 230c-29 -58 -74 -162 -59 -275c27 1 55 5 85 14c226 65 321 390 225 430c-89 38 -202 -75 -251 -169zM557 741
c237 45 417 207 353 314c-44 60 -139 44 -218 5c-70 -35 -275 -170 -245 -329c39 1 76 4 110 10z" />
    <glyph glyph-name="G" unicode="G" horiz-adv-x="941" 
d="M569 517c-102 -32 -216 -37 -309 -9c-84 -269 4 -500 177 -504c159 -3 329 167 402 349l12 34c35 88 70 109 118 113c0 0 25 0 14 -10c-28 -25 -47 -76 -47 -76s-137 -380 -180 -499c-28 -77 -203 -491 -547 -465c-179 13 -271 114 -243 225c60 243 475 134 597 288l3 -2
c9 -8 -28 -53 -71 -77c-102 -56 -450 -35 -454 -236c-2 -144 125 -182 232 -173c87 6 245 40 387 365c59 138 107 295 125 351c0 0 1 5 3 12c-97 -143 -250 -236 -362 -233c-137 0 -393 149 -264 545l12 33c-63 43 -102 112 -100 210c17 261 236 358 420 386
c14 2 51 7 56 -23c5 -42 -41 -46 -56 -41c-57 22 -121 17 -187 -21c-185 -109 -212 -332 -110 -455c150 341 462 539 631 560c181 22 190 -74 194 -112c7 -209 -273 -473 -453 -535zM329 665c-23 -40 -41 -81 -56 -121c33 -16 72 -25 116 -25c304 0 454 265 504 352
c48 86 82 231 -27 264c-108 34 -352 -141 -537 -470z" />
    <glyph glyph-name="H" unicode="H" horiz-adv-x="1623" 
d="M2235 1164c59 -24 11 -75 -22 -61c-160 71 -287 1 -443 -264c-73 -125 -123 -237 -154 -316c-47 -113 -138 -391 -138 -391c-4 -13 -6 -21 -6 -21s-25 -65 27 -68c41 -2 58 37 77 68c0 0 7 10 16 6c7 -3 7 -10 5 -15c-20 -51 -75 -113 -138 -114c-8 0 -17 1 -25 3
c-62 17 -58 80 -19 194c0 2 0 3 1 4c21 73 -57 285 -265 407c-85 -301 -189 -687 -623 -667c-244 23 -420 178 -409 418s228 360 258 378c16 9 34 9 40 -6c6 -14 -3 -27 -21 -31c-28 -6 -233 -56 -194 -381c22 -188 164 -327 334 -349c170 -23 364 83 465 373
c35 101 62 202 89 296c-73 32 -159 54 -259 57c-266 -1 -369 -213 -373 -303c-5 -90 16 -250 210 -270c76 -3 84 36 105 49c20 12 34 6 39 0c6 -7 7 -22 -10 -37c-56 -48 -394 -78 -369 263c20 216 238 335 440 335c73 0 153 -18 231 -49c46 155 98 283 194 341
c-140 -37 -353 201 -504 207c-127 6 -199 -81 -173 -194c21 -92 96 -126 147 -131c67 -7 93 35 101 50c8 14 31 24 45 7c15 -16 1 -35 -25 -53c-79 -60 -314 -50 -327 148c-7 110 112 203 233 202c227 -6 351 -240 583 -203c22 4 35 5 36 -5s-5 -11 -17 -15
c-25 -8 -99 -21 -180 -223c-19 -46 -36 -99 -52 -158c145 -72 270 -188 304 -316c2 4 4 9 6 14c8 21 13 35 13 35c68 175 129 311 195 426c81 139 174 224 215 259c125 110 275 127 337 101z" />
    <glyph glyph-name="I" unicode="I" horiz-adv-x="1076" 
d="M1276 1074c20 5 26 1 29 -4c3 -6 2 -19 -8 -21c-155 -34 -227 -375 -308 -634c-82 -260 -270 -461 -515 -472c-244 -10 -407 161 -437 352s66 380 263 461c22 9 37 2 41 -10c5 -12 3 -28 -13 -36c-25 -12 -56 28 -125 -54c-98 -125 -98 -245 -93 -323
c4 -79 80 -333 334 -353c404 -25 486 491 546 699s144 305 191 346c-61 -17 -329 61 -449 61c-125 0 -279 -74 -285 -223c1 -196 202 -226 275 -216s79 51 93 64c13 12 27 11 37 0s8 -28 -4 -36c-256 -147 -441 6 -461 136c-18 125 106 296 319 302c225 8 397 -96 570 -39z
" />
    <glyph glyph-name="J" unicode="J" horiz-adv-x="1135" 
d="M1356 1116c40 35 99 43 77 11c-13 -18 -21 -31 -21 -31c-66 -91 -198 -312 -312 -689s-264 -905 -745 -893c-145 11 -356 75 -332 326s390 508 806 406c24 -7 45 -30 28 -55c-15 -22 -44 -25 -62 -9c-14 12 -52 38 -84 46c-143 38 -583 -16 -604 -398
c-7 -119 71 -253 256 -278c184 -24 387 59 561 526c145 431 188 655 376 955c-317 -192 -603 -140 -604 -387c0 -83 86 -153 189 -143c70 4 78 82 94 101c10 15 36 27 54 11c19 -16 8 -41 -4 -59c-97 -120 -377 -124 -395 75c-21 309 473 233 722 485z" />
    <glyph glyph-name="K" unicode="K" horiz-adv-x="1375" 
d="M2071 -532c5 12 21 18 32 9c11 -10 7 -25 -3 -34c-5 -6 -40 -33 -131 -35c-153 5 -534 53 -811 683c-43 103 -72 198 -99 263c-26 -7 -52 -10 -77 -7c-34 4 -90 31 -76 88c7 25 46 57 117 28c28 -10 52 -35 74 -68c121 61 222 234 328 411c76 142 247 383 353 383
c33 0 66 -25 68 -64c1 -33 -23 -68 -57 -70c-30 -3 -57 15 -59 41c-2 23 8 35 -4 39c-7 3 -16 -3 -30 -15c-62 -54 -145 -207 -300 -474c-61 -105 -172 -221 -284 -273c47 -79 83 -189 117 -258c116 -232 370 -675 743 -682c90 -2 92 12 99 35zM984 374c22 -2 43 -1 64 3
c-14 28 -28 48 -43 56c-23 11 -55 10 -62 -12c-13 -35 35 -45 41 -47zM1140 1013c-40 -20 -101 -72 -140 -163c-38 -90 -146 -480 -197 -615c-143 -380 -564 -301 -563 -134c8 153 180 150 195 150c16 -1 30 -6 29 -22c0 -15 -10 -21 -22 -22c-20 -1 -28 18 -57 13
c-40 -8 -76 -43 -81 -94c-7 -62 37 -131 153 -135c104 -3 184 37 277 275c92 238 160 527 269 680c20 27 -10 20 -21 18c-151 -25 -329 52 -501 42c-74 -4 -285 -91 -288 -332c-3 -266 217 -334 275 -343c115 -19 180 6 221 112c7 19 30 25 47 17c20 -9 23 -33 13 -51
c-138 -201 -622 -151 -633 252c-5 167 147 328 309 364c155 35 284 -20 505 -34c89 -5 176 34 190 40c13 6 22 4 25 0s3 -13 -5 -18z" />
    <glyph glyph-name="L" unicode="L" horiz-adv-x="866" 
d="M1681 -94c25 -9 11 -31 -1 -54s-153 -283 -484 -288c-330 -4 -521 183 -619 249c-30 20 -68 52 -113 84c-17 -14 -35 -26 -52 -36c-153 -90 -407 -65 -390 64c24 121 210 116 289 95c44 -11 97 -31 156 -61c90 113 159 289 211 429c9 22 18 47 28 75
c-33 -8 -68 -13 -105 -15c-316 -15 -347 240 -338 326c9 85 79 327 353 407c33 8 49 1 48 -26c0 -22 -24 -32 -51 -25c-33 7 -103 -10 -159 -69s-130 -166 -126 -319c3 -153 139 -274 335 -260c18 1 36 5 54 10c90 240 242 618 447 668c97 21 140 -50 95 -182
c-36 -108 -194 -384 -468 -489c-8 -26 -17 -53 -26 -82c-74 -235 -166 -381 -256 -470c76 -41 163 -97 259 -167c195 -141 596 -371 857 103c10 19 31 43 56 33zM1039 1025c-60 -75 -131 -191 -235 -499c165 86 335 283 392 474c17 74 20 118 -15 125
c-36 7 -74 -15 -142 -100zM375 -126c20 12 39 28 57 46c-66 45 -142 85 -215 86c-94 -1 -129 -34 -134 -78c-5 -79 182 -121 292 -54z" />
    <glyph glyph-name="O" unicode="O" horiz-adv-x="871" 
d="M952 1049c2 -43 -8 -87 -26 -131c34 -71 44 -186 -1 -355c-99 -368 -350 -603 -551 -596c-137 0 -397 148 -273 544c4 12 7 23 11 34c-64 43 -105 112 -104 210c13 260 231 358 414 385c13 2 50 7 56 -23c6 -42 -40 -46 -55 -40c-58 21 -122 17 -186 -21
c-183 -109 -206 -334 -103 -456c144 342 453 539 621 560c182 23 191 -73 197 -111zM265 662c-22 -41 -40 -82 -54 -122c33 -16 72 -25 117 -25c288 3 450 265 497 352c8 14 15 28 21 44c-26 49 -57 50 -76 41c-29 -13 -10 -56 -8 -64c2 -9 -3 -8 -3 -8s-21 -2 -31 32
c-9 34 9 70 31 82c30 18 71 18 107 -5c9 63 -7 123 -72 143c-109 34 -350 -142 -529 -470zM384 1c301 -7 528 573 494 796c-1 8 -3 16 -4 23c-93 -141 -250 -266 -366 -307c-102 -31 -216 -37 -309 -9c-80 -268 12 -500 185 -503z" />
    <glyph glyph-name="d" unicode="d" horiz-adv-x="568" 
d="M551 102c-17 -52 -70 -112 -133 -112c-99 0 -79 110 -59 176h-3c-27 -70 -152 -211 -253 -160c-221 111 82 557 254 502c30 -10 73 -40 70 -122c45 177 107 305 170 421c77 140 167 226 207 261c122 110 273 128 336 102c59 -25 13 -76 -20 -62c-163 72 -289 1 -437 -266
c-69 -125 -115 -238 -143 -318c-10 -23 -36 -95 -78 -254c-8 -29 -69 -224 -6 -228c41 -2 56 38 74 69c0 0 6 11 16 6c7 -3 7 -10 5 -15zM399 355c4 69 -12 112 -50 117c-89 14 -195 -166 -216 -255c-16 -70 -19 -144 37 -158c123 -32 223 193 229 296z" />
    <glyph glyph-name="e" unicode="e" horiz-adv-x="429" 
d="M349 511c81 -7 138 -68 92 -149c-63 -105 -219 -167 -335 -216c2 -44 20 -80 61 -90c78 -18 157 47 203 124c0 0 7 15 17 12c9 -4 -4 -29 -4 -29c-29 -70 -177 -211 -288 -160c-181 84 -13 400 154 485c30 17 75 24 100 23zM381 372c30 72 2 135 -80 102
c-100 -49 -170 -186 -188 -260c-3 -13 -5 -27 -6 -40c51 21 104 44 151 73c96 60 123 125 123 125z" />
    <glyph glyph-name="c" unicode="c" horiz-adv-x="423" 
d="M342 439c26 8 31 14 31 22c0 7 -5 19 -36 19c-12 0 -29 -2 -47 -11c-120 -62 -180 -243 -180 -302c0 -65 36 -114 103 -114s120 59 156 127c0 0 5 12 13 12c5 0 7 -4 7 -9c0 -49 -110 -190 -222 -190c-101 0 -144 87 -144 157c0 159 159 360 303 360
c96 0 117 -67 117 -86c0 -63 -35 -80 -64 -80c-49 0 -65 35 -65 52c0 21 16 39 28 43z" />
    <glyph glyph-name="r" unicode="r" horiz-adv-x="459" 
d="M183 512c67 -2 58 -92 44 -143h2c35 46 98 138 177 138c44 0 91 -29 91 -80c0 -81 -66 -83 -73 -83c-28 0 -56 19 -56 52c0 23 17 43 40 50c9 3 24 3 24 17c0 12 -17 20 -29 20c-70 0 -174 -132 -216 -254c-43 -124 -72 -203 -72 -203s-2 -9 -13 -13
c-10 -4 -69 -18 -69 -18s-8 1 -6 9c3 7 138 373 138 373s26 83 -8 85c-36 2 -63 -38 -82 -64c-3 -5 -12 -8 -17 -5c-8 5 -2 15 -2 15s66 106 127 104z" />
    <glyph glyph-name="P" unicode="P" horiz-adv-x="1181" 
d="M1096 1181c372 -1 487 -166 487 -318c0 -25 -2 -51 -9 -75c-61 -221 -269 -354 -462 -367c-84 1 -132 22 -133 63c1 25 33 43 42 43c1 0 2 -1 2 -2c0 -3 -8 -13 -8 -20c0 -28 44 -53 107 -53c216 0 374 237 374 420c0 133 -76 243 -277 260c-8 0 -15 1 -23 1
c-15 -1 -30 -6 -34 -18c-7 -18 -67 -216 -238 -719c-134 -392 -340 -458 -481 -458c-40 0 -74 6 -100 10c-124 21 -281 125 -281 308c0 132 83 245 192 310c20 298 364 615 842 615zM325 570c0 -152 87 -231 176 -231c64 0 122 54 122 119c0 40 -43 131 -194 131
c-37 0 -72 -7 -104 -19zM1073 1098c0 3 1 7 1 10c0 14 -6 26 -24 27c-501 -20 -704 -312 -724 -534c43 15 88 24 131 24c132 0 208 -73 208 -161c0 -120 -122 -184 -198 -184c-139 0 -210 117 -214 251c-85 -63 -122 -133 -122 -248c0 -108 45 -248 226 -295
c31 -8 62 -13 91 -13c172 0 309 144 407 437c99 306 206 645 218 686z" />
    <glyph glyph-name="Q" unicode="Q" horiz-adv-x="900" 
d="M190 -254c-137 -42 -406 -24 -394 106c20 123 207 118 287 96c62 -15 139 -48 231 -99c61 31 117 73 153 138c-30 -8 -59 -12 -87 -11c-138 0 -399 149 -275 548l12 33c-64 44 -106 113 -105 211c13 262 232 360 416 388c13 2 50 7 56 -24c7 -41 -40 -46 -55 -40
c-58 21 -122 17 -187 -21c-184 -110 -207 -335 -104 -458c145 343 456 542 625 563c182 22 192 -74 197 -112c3 -43 -7 -87 -25 -132c34 -71 44 -186 -2 -357c-78 -289 -249 -497 -417 -570c-29 -67 -90 -130 -162 -179c60 -36 126 -78 198 -129c200 -142 611 -373 857 103
c9 20 29 43 55 34c26 -10 13 -32 1 -55c-11 -23 -144 -285 -476 -289s-530 183 -631 250c-19 12 -42 29 -67 48c-33 -17 -68 -32 -101 -42zM270 675c-22 -41 -40 -82 -54 -122c33 -17 73 -26 117 -25c290 2 453 266 500 353c8 14 15 29 21 44c-26 49 -57 51 -76 42
c-29 -13 -11 -57 -8 -65c2 -9 -3 -8 -3 -8s-22 -2 -31 32c-10 34 9 70 31 82c30 19 71 19 108 -4c8 63 -8 123 -73 143c-109 34 -352 -142 -532 -472zM390 10c32 0 64 6 95 18c6 17 11 36 14 56c2 10 -5 21 -17 9c-28 -28 -99 -21 -120 16c-30 54 -5 98 33 119
c53 28 164 -4 137 -170c-1 -3 -1 -6 -2 -8c229 134 385 573 356 761c-1 8 -2 15 -4 23c-93 -142 -251 -268 -368 -308c-102 -32 -216 -38 -310 -10c-81 -269 12 -502 186 -506zM-143 -144c-2 -80 195 -112 314 -67c25 10 52 19 78 30c-77 56 -171 114 -260 115
c-94 -1 -128 -34 -132 -78z" />
    <glyph glyph-name="R" unicode="R" horiz-adv-x="1444" 
d="M2147 -579c-6 -6 -42 -33 -133 -35c-153 5 -483 24 -780 746c-42 108 -70 206 -98 269c-36 -6 -70 -7 -98 -4c0 0 -75 12 -61 65c9 25 38 65 135 38c27 -10 49 -31 69 -57c134 43 275 174 311 333c41 179 -35 334 -255 353c-8 0 -15 1 -23 1c-15 0 -30 -5 -35 -17
c-6 -19 -69 -213 -244 -719c-166 -477 -428 -475 -588 -444c-117 24 -264 123 -271 295c-6 141 77 257 190 322c4 60 22 126 55 192c116 228 422 421 794 420c426 -2 511 -222 468 -407c-58 -197 -233 -313 -384 -357c46 -78 75 -188 107 -258c73 -175 337 -739 712 -747
c90 -2 92 13 101 36c5 12 21 18 32 8c10 -9 6 -24 -4 -33zM338 572c-2 -83 20 -156 68 -193c113 -86 195 -12 217 24c19 31 39 124 -90 172c-72 23 -138 18 -195 -3zM1090 1096c3 15 3 34 -14 38c-331 -7 -506 -124 -630 -269c-61 -71 -97 -171 -106 -264
c69 24 143 30 210 13c95 -24 171 -128 100 -242c-84 -112 -218 -114 -300 -44c-52 45 -83 117 -85 203c-49 -36 -85 -85 -103 -131c-32 -83 -48 -335 191 -408c296 -90 442 203 523 451c81 251 198 600 214 653zM1055 430c21 -3 44 -4 67 -1c-11 20 -23 34 -35 41
c-13 6 -51 15 -65 0c-21 -31 26 -38 33 -40z" />
    <glyph glyph-name="T" unicode="T" 
d="M1559 1140c30 0 87 -12 87 -54c0 -72 -172 -194 -383 -194c-130 0 -254 34 -364 71l-189 -616s-57 -209 -175 -304c-58 -47 -112 -61 -158 -61c-64 0 -110 28 -124 36c-16 8 -25 19 -25 36s15 36 34 36c41 0 65 -74 129 -74c18 0 38 4 61 12c65 23 110 145 134 209
c21 55 188 594 237 753c-138 53 -274 120 -430 120c-143 0 -291 -60 -291 -242c0 -162 165 -223 218 -233c22 -4 54 -9 88 -9c52 0 111 10 143 44c47 51 37 89 78 89c13 0 25 -5 25 -23c0 -7 -3 -17 -13 -30c-21 -26 -102 -115 -296 -115c-226 0 -331 150 -331 267
c0 87 116 288 394 288c156 0 302 -57 430 -108c14 34 80 71 96 71c5 0 6 -3 6 -7c0 -6 -3 -14 -3 -14l-24 -79c121 -46 241 -86 378 -86c200 0 277 94 277 145c0 33 -37 41 -52 41c-69 0 -44 -48 -84 -48c-15 0 -30 8 -30 22c0 10 7 21 28 29c16 6 76 28 129 28z" />
    <glyph glyph-name="U" unicode="U" horiz-adv-x="845" 
d="M801 502h10s21 -3 17 -6c-56 -61 -144 -282 -144 -409c0 -23 8 -40 30 -42c41 0 65 59 72 67c3 6 9 10 15 10s8 -5 8 -9c0 -40 -71 -121 -127 -121c-58 0 -76 45 -76 87c0 57 25 124 38 150c0 0 -2 0 -3 1c-76 -130 -182 -236 -299 -236c-95 0 -126 54 -126 119
c0 93 60 217 92 297c46 116 127 315 127 498c0 133 -80 243 -239 243c-126 0 -305 -88 -348 -319c-5 -28 -8 -54 -8 -79c0 -211 174 -299 238 -317c15 -4 27 -6 36 -6c51 0 45 37 74 37c15 0 32 -12 32 -31c0 -34 -44 -36 -76 -36c-219 0 -363 158 -363 362
c0 236 185 417 408 417c235 0 303 -142 303 -299c0 -196 -103 -428 -123 -485c-34 -98 -81 -204 -81 -273c0 -44 12 -81 65 -81c82 0 211 66 330 358c32 78 74 99 118 103z" />
    <glyph glyph-name="V" unicode="V" horiz-adv-x="530" 
d="M1252 1157c-5 -10 -21 -33 -55 -23c-33 9 -58 45 -129 30c-151 -30 -551 -409 -846 -1116c-10 -25 -18 -30 -23 -33c-6 -2 -16 -7 -32 -13c-17 -5 -25 2 -29 13c-93 338 77 887 181 1003c5 6 0 10 -11 7c-102 -29 -295 75 -440 81c-27 0 -208 5 -259 -197
c-50 -203 84 -272 130 -287c17 -5 12 -14 7 -17c-32 -19 -73 -14 -88 -6c-82 35 -116 145 -120 182c-8 73 14 248 201 330c186 82 371 -52 527 -55c78 0 144 53 170 31c10 -11 -10 -29 -27 -47c-231 -273 -223 -863 -221 -891s7 -34 13 -34c5 0 6 5 15 27
c459 979 867 1093 959 1083c91 -9 82 -58 77 -68z" />
    <glyph glyph-name="W" unicode="W" horiz-adv-x="1169" 
d="M1069 1010c-25 4 -52 -45 -55 -53c-39 -83 -67 -165 -87 -245c62 75 112 139 142 220c8 21 25 73 0 78zM1952 1157c-20 -36 -56 -25 -64 -21c-39 18 -92 57 -187 1c-369 -202 -705 -918 -774 -1083c-3 -7 -10 -23 -20 -28c-17 -8 -37 -16 -43 -18c-11 -2 -20 3 -22 12
c-43 177 -30 373 -4 535c-85 -121 -209 -334 -260 -502c-8 -27 -18 -31 -23 -33c-6 -3 -16 -8 -32 -13c-17 -6 -25 1 -29 13c-33 119 -35 263 -20 404c-223 -88 -437 71 -437 231c0 185 133 244 331 306c102 31 220 64 345 135c38 23 91 39 107 24c10 -11 -17 -27 -33 -44
c-146 -160 -206 -390 -229 -581c4 3 7 5 11 8c45 36 56 84 58 91c6 19 29 10 31 9c21 -11 4 -39 1 -43c-34 -39 -69 -70 -104 -94c-18 -168 -8 -299 -8 -312c2 -28 8 -32 14 -32c6 -1 8 3 14 13c91 229 188 372 274 481c28 145 64 252 73 274c41 109 102 152 158 143
c42 -10 34 -64 31 -74c-18 -95 -98 -189 -198 -311c-45 -216 -32 -406 -21 -510c2 -12 3 -16 11 -17c8 0 13 12 13 13c399 859 793 1097 940 1093c122 -5 101 -62 96 -70zM477 452c31 248 115 484 180 555c5 6 7 12 5 16c-3 5 -7 2 -14 0c-2 -1 -125 -48 -266 -89
c-144 -42 -274 -94 -282 -266c7 -164 188 -289 377 -216z" />
    <glyph glyph-name="X" unicode="X" horiz-adv-x="1640" 
d="M2247 1096c47 -3 44 -20 43 -28s-11 -21 -35 -20c-37 0 -30 41 -193 12c-198 -37 -445 -264 -653 -468c20 -216 38 -422 56 -485c7 -26 17 -54 47 -50c31 4 62 37 73 61c4 9 12 14 19 12c6 -2 7 -11 0 -23c-9 -15 -70 -111 -146 -107c-83 5 -95 176 -101 221
c-2 21 -13 153 -25 295c-37 -36 -72 -71 -105 -103c-230 -222 -575 -493 -867 -538c-145 -21 -303 21 -327 183c-25 163 198 271 286 305c14 4 26 -3 30 -9c3 -6 10 -19 -10 -32c-22 -14 -49 4 -100 -28s-148 -117 -122 -237c37 -178 231 -152 299 -139
c283 57 645 388 912 648c-12 139 -26 277 -36 321c-39 207 -177 308 -381 255c-252 -75 -295 -305 -287 -399c7 -83 86 -268 275 -260c138 11 131 96 158 129c19 24 40 21 50 17c14 -6 25 -29 11 -47c-33 -43 -129 -158 -284 -137c-140 19 -331 116 -285 378
c47 273 352 368 463 368c86 0 330 4 364 -282c10 -82 19 -175 28 -268c8 9 17 17 25 25c484 493 770 434 818 430z" />
    <glyph glyph-name="Y" unicode="Y" horiz-adv-x="1076" 
d="M878 -49c182 7 405 -13 438 -151c11 -46 -27 -122 -100 -137c-1 0 -21 -3 -16 4c6 9 67 45 36 130c-33 93 -185 130 -367 128c0 0 -1 -1 -1 -2c-20 -56 -171 -463 -542 -450c-92 3 -205 45 -209 147c-3 98 137 239 517 305c1 0 75 13 174 21c2 4 3 8 4 11
c40 109 70 212 80 244c0 0 4 13 10 32c-82 -137 -196 -247 -321 -233c-193 26 -64 284 -11 416c46 118 129 321 127 506c-1 131 -84 236 -240 237c-126 0 -305 -87 -348 -320c-50 -269 159 -377 230 -397c71 -19 78 16 94 26c15 11 33 5 43 -8c11 -14 7 -41 -16 -48
c-276 -45 -452 181 -414 425c34 208 210 359 420 350c505 -21 200 -682 165 -786c-52 -150 -135 -321 -32 -344c80 -10 227 26 359 349l-1 -2c10 25 20 44 30 59v0l1 1c25 34 51 45 84 48c0 0 25 -1 14 -10c-28 -26 -46 -78 -46 -78s-113 -332 -162 -473zM365 -501
c105 -2 287 42 435 424c-55 -3 -111 -9 -167 -18c-425 -66 -444 -255 -444 -273c1 -81 82 -132 176 -133z" />
    <glyph glyph-name="Z" unicode="Z" horiz-adv-x="1312" 
d="M1673 1154c3 -3 14 -11 4 -37c-10 -25 -122 -127 -218 -243c-150 -185 -291 -341 -421 -469c94 23 164 65 196 82c49 26 55 74 71 87c7 8 32 21 51 7c13 -7 20 -35 0 -51c-103 -81 -229 -138 -357 -163c-182 -174 -343 -294 -480 -365c68 -66 139 -150 228 -245
c166 -176 361 -211 489 -196c192 23 278 164 258 243c-38 121 -225 134 -375 51c-43 -20 -46 -48 -55 -60s-27 -18 -43 -5c-17 13 -10 36 2 44c341 194 559 97 558 -36c-7 -101 -96 -228 -343 -265c-459 -27 -624 255 -784 438c-77 -33 -146 -49 -205 -49
c-201 -5 -226 87 -225 116s34 115 170 116c122 -1 209 -48 296 -125c135 72 283 192 425 326c-188 -17 -371 37 -488 183c-95 141 -80 376 176 528c326 178 699 -102 1019 80c40 18 48 10 51 8zM246 -40c55 -4 117 11 183 39c-56 60 -114 106 -185 118
c-73 12 -120 -13 -137 -59c-20 -55 46 -91 139 -98zM1533 1042c12 17 -5 22 -28 15c-205 -52 -414 28 -658 31c-178 2 -369 -102 -374 -352c-4 -250 232 -339 404 -348c26 -1 50 0 74 2c311 300 578 647 582 652z" />
    <glyph glyph-name="b" unicode="b" horiz-adv-x="459" 
d="M850 1142c18 -8 25 -19 25 -30c0 -18 -19 -34 -38 -34c-4 0 -8 1 -12 3c-38 17 -74 26 -109 26c-112 0 -219 -89 -346 -290c-155 -245 -217 -444 -217 -444c71 112 162 132 210 132c9 0 100 4 100 -115c0 -194 -178 -396 -307 -396c-98 0 -134 68 -134 148
c0 37 7 80 18 129c132 442 440 881 746 881c26 0 48 -3 64 -10zM341 458c0 0 -9 4 -25 4c-35 0 -102 -20 -165 -151c-23 -47 -63 -142 -63 -210c0 -46 23 -77 59 -77c83 0 228 191 228 360c0 40 -12 67 -34 74z" />
    <glyph glyph-name="f" unicode="f" horiz-adv-x="354" 
d="M411 463h-158l-43 -139c-67 -225 -154 -498 -154 -498s-88 -296 -307 -296h-11c0 0 -121 11 -121 63c0 7 1 39 34 39c8 0 16 -3 26 -11c36 -30 28 -57 106 -62c23 1 114 11 209 308c57 181 121 387 164 521c0 0 3 11 3 24c0 22 -9 51 -56 51h-23c-1 0 -15 1 -15 21
c0 19 14 19 16 19h111c42 144 130 362 305 362c58 0 122 -28 122 -79c0 -20 -13 -30 -13 -30s-15 -9 -30 -9c-13 0 -27 6 -34 29c-14 47 -38 62 -64 62c-9 0 -19 -2 -29 -5c0 0 -75 -19 -125 -157c-12 -32 -28 -84 -56 -173h148c1 0 12 0 12 -19c0 -21 -18 -21 -17 -21z" />
    <glyph glyph-name="m" unicode="m" horiz-adv-x="773" 
d="M753 121c3 -2 4 -4 4 -7c0 -2 -1 -5 -1 -8c-23 -55 -75 -116 -136 -116c-55 0 -73 36 -73 73c0 53 33 120 43 142c16 36 69 155 69 155s16 34 16 62c0 20 -8 37 -36 37c-69 0 -158 -109 -207 -231c-47 -125 -77 -200 -77 -200s-2 -9 -13 -13c-10 -5 -71 -18 -71 -18
s-6 0 -6 4c0 1 1 2 2 4c45 122 98 229 143 355c0 0 13 31 13 58c0 22 -8 41 -37 41c-68 0 -159 -109 -206 -231c-48 -125 -73 -200 -73 -200s-2 -9 -12 -13c-11 -5 -76 -18 -76 -18s-6 0 -6 4c0 1 0 2 1 4c3 8 149 372 149 372s11 32 11 57c0 16 -4 27 -19 27
c-34 0 -82 -63 -82 -63s-4 -7 -11 -7c-4 0 -10 3 -10 8c0 4 4 9 4 9s70 104 130 104c39 0 56 -31 56 -67c0 -20 -5 -45 -17 -77h3c36 46 106 139 185 139c62 0 81 -38 81 -71c0 -22 -6 -46 -14 -68h1c36 46 106 139 184 139c64 0 84 -41 84 -75c0 -56 -100 -276 -117 -317
c0 0 -7 -17 -7 -33s7 -35 33 -35c40 0 58 37 78 68c0 0 4 7 12 7c1 0 3 0 5 -1z" />
    <glyph glyph-name="p" unicode="p" horiz-adv-x="519" 
d="M144 405c4 12 6 22 6 30c0 21 -16 27 -27 27c-21 0 -41 -22 -67 -47c-3 -3 -6 -4 -8 -4c-13 0 -13 11 -13 12c0 6 5 11 7 14c34 35 71 71 115 71c46 0 62 -26 62 -61c0 -23 -6 -49 -15 -74h3c77 116 171 135 216 135c19 0 96 -7 96 -125c0 -38 -8 -88 -31 -152
c-53 -150 -163 -236 -269 -236c-57 0 -103 28 -103 100c-52 -142 -92 -269 -93 -269c0 0 -92 -296 -298 -296h-10c0 0 -124 11 -124 63c0 7 2 39 35 39c8 0 16 -3 26 -11c36 -30 29 -57 108 -62c24 1 116 11 212 308c43 133 133 417 172 538zM399 231c22 61 33 112 33 151
c0 58 -19 81 -59 81c-34 0 -103 -19 -170 -152c-23 -45 -56 -137 -56 -204c0 -55 27 -87 66 -87c60 0 137 79 186 211z" />
    <glyph glyph-name="q" unicode="q" horiz-adv-x="500" 
d="M540 500c0 0 16 -1 16 -6c0 -1 -1 -2 -3 -4c-27 -24 -43 -73 -43 -73l-251 -750s-8 -26 -8 -52c0 -30 13 -53 47 -53c41 0 75 44 100 44c7 0 20 -7 20 -20c0 -22 -37 -56 -109 -56c-93 0 -117 59 -117 116c0 24 5 46 10 62c21 67 157 457 158 457h-3
c-24 -60 -119 -169 -210 -169c-86 0 -122 76 -122 137c0 156 175 377 303 377c23 0 99 -11 99 -118v-8c32 91 66 112 113 116zM399 353c0 8 1 15 1 23c0 62 -21 95 -62 95c-93 0 -190 -170 -210 -255c-6 -23 -9 -47 -9 -68c0 -54 20 -93 75 -93c112 0 199 202 205 298z" />
    <glyph glyph-name="u" unicode="u" horiz-adv-x="514" 
d="M524 505c2 -2 3 -4 3 -6c0 -1 -1 -3 -3 -4c-30 -16 -50 -73 -50 -73l-69 -210c-17 -51 -27 -96 -27 -126c0 -23 6 -40 21 -40c42 0 57 37 77 69c0 0 5 7 11 7c7 0 11 -6 11 -10c0 -2 0 -4 -1 -6c-20 -52 -75 -112 -138 -112c-45 0 -60 34 -60 77c0 20 3 42 8 63h-3
c-36 -47 -115 -138 -199 -138c-64 0 -83 40 -83 79c0 86 122 303 122 367c0 14 -6 24 -22 24c-34 0 -80 -63 -80 -63s-4 -7 -11 -7c-6 0 -10 5 -10 9s2 8 2 8s69 104 131 104c3 0 6 -1 9 -1c0 0 53 -5 53 -73c0 -65 -62 -197 -100 -296c0 0 -15 -34 -15 -63
c0 -21 8 -41 35 -41c59 0 173 111 201 201l63 179c31 88 79 83 111 85c2 0 9 0 13 -3z" />
    <glyph glyph-name="v" unicode="v" horiz-adv-x="443" 
d="M353 515c8 7 19 10 29 10c35 0 53 -55 53 -152c0 -71 -18 -162 -85 -253c-80 -109 -166 -128 -215 -128c-74 0 -104 31 -104 94c0 52 25 117 72 177c24 30 45 63 61 100c5 12 20 54 20 81c0 14 -4 25 -16 26c-21 0 -49 -28 -78 -63c-4 -4 -8 -6 -11 -6c-5 0 -10 4 -10 10
c0 7 13 22 13 21c0 0 69 87 123 87c2 0 5 -1 8 -1c0 0 47 0 47 -65c0 -100 -65 -181 -79 -200c-34 -45 -70 -120 -70 -171c0 -34 15 -55 55 -55c75 0 137 77 154 101c14 19 76 114 76 217c0 110 -59 99 -59 137c0 13 8 25 16 33z" />
    <glyph glyph-name="a" unicode="a" horiz-adv-x="550" 
d="M441 208c-15 -49 -24 -92 -24 -122c0 -25 7 -43 23 -43c41 0 55 37 74 68c0 0 5 8 12 8s10 -7 10 -11c0 -2 0 -4 -1 -6c-18 -51 -71 -112 -134 -112c-54 0 -69 32 -69 72c0 34 11 73 21 104h-2c-25 -60 -121 -170 -210 -170c-81 0 -117 74 -117 135
c0 156 174 381 303 381c28 0 98 -13 98 -127c33 91 67 112 114 116c0 0 16 -1 16 -6c0 -1 0 -3 -2 -4c-30 -24 -57 -110 -112 -283zM399 354c0 9 1 17 1 25c0 61 -21 93 -62 93c-93 0 -194 -169 -215 -255c-6 -24 -10 -49 -10 -72c0 -51 19 -89 73 -89
c112 0 204 202 213 298z" />
    <glyph glyph-name="A" unicode="A" horiz-adv-x="1556" 
d="M1400 366c86 233 240 575 408 703c-97 -42 -322 -288 -515 -535c45 -45 104 -168 104 -168h3zM633 100c-72 -3 -145 28 -188 73c-56 57 -74 136 -67 215c13 106 72 215 188 279c83 46 190 73 286 63c88 -6 268 -44 410 -167c172 221 369 444 565 553c-4 -1 -7 -3 -11 -4
c-119 -38 -319 29 -504 11c-149 -15 -216 -112 -197 -221c31 -186 279 -187 280 -8c0 14 17 27 32 23s21 -14 20 -32c-48 -224 -369 -178 -393 5c-15 118 89 240 245 256c181 21 375 -43 506 -13c124 28 239 59 339 41c18 -6 26 -30 20 -45c-7 -15 -26 -25 -39 -19
c-24 11 -168 97 -320 -89c-151 -186 -270 -457 -398 -908c-7 -32 1 -58 24 -63c24 -4 52 6 78 66c2 5 9 16 19 13s4 -18 1 -26c-3 -7 -59 -119 -151 -111c-93 8 -57 134 -47 173c3 8 14 45 32 99c-10 33 -33 125 -112 215c-26 -35 -52 -70 -76 -104
c-90 -125 -306 -464 -678 -443c-320 18 -442 232 -434 429c6 159 121 289 248 368c4 2 36 24 53 2c7 -10 0 -25 -15 -32c-21 -9 -39 0 -66 -24c-79 -67 -137 -168 -137 -306c-1 -260 191 -397 352 -407c315 -21 468 224 623 413c32 44 66 89 101 135
c-76 76 -187 147 -346 177c-125 21 -246 -15 -301 -47c-110 -66 -160 -157 -171 -255c-7 -67 11 -143 59 -194c40 -41 96 -68 163 -68c55 0 85 33 95 43c10 9 29 13 40 2c9 -8 7 -25 -8 -33c-42 -22 -83 -35 -120 -35z" />
    <glyph glyph-name="i" unicode="i" horiz-adv-x="278" 
d="M81 447c-9 -6 -16 -8 -21 -8c-12 0 -11 7 -11 9c0 19 65 63 110 63c63 0 83 -39 83 -74c0 -30 -13 -67 -25 -97c-72 -172 -90 -254 -90 -258c0 -16 8 -35 36 -35c40 0 57 37 77 68c0 0 5 7 12 7s10 -6 10 -10c0 -2 0 -4 -1 -6c-22 -56 -82 -114 -146 -114
c-55 0 -71 33 -71 66c0 45 87 246 105 307c0 0 17 41 17 72c0 16 -6 33 -23 33c-19 0 -41 -11 -62 -23zM246 593c-29 0 -55 25 -55 55c0 29 26 55 55 55s55 -26 55 -55c0 -30 -26 -55 -55 -55z" />
    <glyph glyph-name="parenleft" unicode="(" horiz-adv-x="517" 
d="M823 1138c-21 -6 -36 14 -95 -16c-142 -74 -377 -252 -484 -633c-64 -265 2 -539 108 -712c22 -31 42 -28 56 -41c19 -18 -10 -50 -32 -27c-44 44 -306 382 -218 777c93 417 504 655 648 693c33 7 38 -34 17 -41z" />
    <glyph glyph-name="parenright" unicode=")" horiz-adv-x="495" 
d="M161 1144c-20 18 11 50 33 28c44 -44 306 -382 218 -778c-93 -417 -503 -655 -647 -692c-34 -8 -38 33 -17 40c20 7 34 -13 94 16c141 74 376 252 484 633c64 265 -4 540 -110 713c-21 30 -41 28 -55 40z" />
    <glyph glyph-name="braceleft" unicode="{" horiz-adv-x="618" 
d="M912 1182c-25 6 -46 10 -67 10c-35 0 -68 -11 -106 -36c-197 -133 -221 -582 -519 -665c49 -32 70 -81 70 -154c0 -56 -13 -128 -35 -218c-16 -74 -36 -155 -36 -232c0 -69 16 -134 65 -189c37 -36 77 -25 77 -56c0 -12 -9 -23 -22 -23c-5 0 -12 3 -18 8
c-123 105 -159 223 -159 339c0 167 75 326 75 425c0 50 -19 84 -75 97c-4 0 -6 3 -6 5c0 4 3 7 6 7c259 0 284 705 751 727c17 0 25 -10 25 -21c0 -12 -9 -24 -23 -24h-3z" />
    <glyph glyph-name="braceright" unicode="}" horiz-adv-x="658" 
d="M578 359c4 -1 6 -3 6 -6s-3 -6 -6 -6c-259 0 -285 -706 -751 -727c-18 0 -25 10 -25 21s8 23 22 23c26 0 48 -10 69 -10c291 0 288 608 627 702c-49 32 -70 80 -70 153c0 57 13 129 35 219c16 73 35 154 35 231c0 69 -15 135 -64 190c-39 37 -77 23 -77 55
c0 12 9 23 22 23c6 0 12 -2 18 -7c123 -105 159 -224 159 -340c0 -166 -75 -326 -75 -425c0 -49 18 -83 75 -96z" />
    <glyph glyph-name="questiondown" unicode="&#xbf;" horiz-adv-x="736" 
d="M627 509c28 0 49 -22 47 -50c-1 -27 -24 -49 -52 -49c-27 0 -48 22 -47 49c2 28 25 50 52 50zM547 256c-43 3 72 69 89 15c36 -185 -637 -216 -709 -643c-18 -199 115 -283 259 -279c177 4 308 167 327 317c26 206 -169 296 -190 148c-11 -69 -132 -52 -108 18
c70 163 448 121 379 -204c-38 -182 -225 -312 -431 -317c-167 -4 -338 81 -332 274c36 352 474 460 668 577c40 22 110 89 48 94z" />
    <glyph glyph-name="ampersand" unicode="&#x26;" horiz-adv-x="1250" 
d="M992 457c152 1 232 -94 211 -214c-25 -143 -175 -272 -390 -272c-127 0 -231 55 -311 135c-61 -68 -133 -116 -234 -114c-62 0 -208 38 -194 176c13 137 178 205 256 244c-23 92 -36 167 -3 234c34 77 116 142 234 142c92 -1 136 -59 137 -112c1 -67 -59 -140 -136 -132
c-7 0 -4 9 1 9c98 17 126 205 -6 212c-70 4 -123 -33 -164 -116c-52 -106 18 -306 134 -468c115 160 217 376 426 369c33 -3 21 -45 -7 -45c-19 0 -28 37 -95 10c-135 -56 -209 -226 -305 -357c74 -96 186 -158 285 -158c310 -1 409 441 157 439c-102 -1 -181 -84 -195 -140
c-11 -56 0 -74 43 -79c16 -2 21 -18 15 -32c-10 -15 -27 -21 -42 -16c-130 57 7 285 183 285zM264 22c103 -16 163 31 220 102c-71 78 -122 175 -147 268c-273 -129 -220 -340 -73 -370z" />
    <glyph glyph-name="exclam" unicode="!" horiz-adv-x="303" 
d="M96 95c27 0 48 -23 48 -50c-2 -27 -24 -50 -51 -50c-28 0 -50 23 -48 50c0 27 23 50 51 50zM879 1177c60 -25 15 -76 -19 -61c-164 71 -289 0 -431 -266c-67 -126 -111 -238 -139 -318c-19 -52 -45 -138 -68 -217c-26 -93 -86 -119 -120 -115c-17 3 -4 11 4 22
c24 36 31 66 51 129c8 22 12 35 12 35c60 176 113 313 174 429c74 140 163 225 202 261c121 110 271 127 334 101z" />
    <glyph glyph-name="exclamdown" unicode="&#xa1;" horiz-adv-x="363" 
d="M274 512c26 0 47 -20 47 -47c0 -28 -22 -52 -51 -52c-27 0 -48 21 -48 47c0 29 24 52 52 52zM264 307c6 -1 8 -2 8 -5c0 -4 -7 -10 -11 -17c-26 -36 -33 -66 -53 -129c-64 -193 -120 -340 -185 -463c-74 -140 -162 -226 -202 -262c-89 -81 -194 -112 -269 -112
c-61 0 -94 21 -94 43c0 17 18 32 36 32c4 0 8 0 12 -2c40 -17 77 -27 113 -27c113 0 210 90 319 293c67 125 109 237 137 318c18 51 47 137 69 216c24 87 78 115 113 115h7z" />
    <glyph glyph-name="question" unicode="?" horiz-adv-x="702" 
d="M149 89c28 0 49 -22 47 -50c-1 -27 -24 -49 -52 -49c-27 0 -48 22 -47 49c2 28 25 50 52 50zM609 1187c166 4 337 -81 331 -274c-36 -352 -474 -460 -667 -576c-41 -23 -110 -90 -48 -95c42 -2 -72 -68 -90 -14c-35 184 637 215 709 642c18 199 -114 284 -259 280
c-177 -5 -307 -168 -326 -317c-27 -206 168 -297 190 -149c11 70 132 53 108 -18c-71 -162 -449 -121 -380 204c38 183 226 312 432 317z" />
    <glyph glyph-name="bracketleft" unicode="[" horiz-adv-x="553" 
d="M942 1136c-4 -13 -22 -26 -41 -20c-160 52 -308 106 -603 -604c-297 -719 -54 -732 23 -779c18 -8 26 -27 17 -44c-9 -16 -30 -22 -51 -11c-137 88 -289 262 -63 836c292 740 623 691 701 658c17 -7 22 -23 17 -36z" />
    <glyph glyph-name="bracketright" unicode="]" horiz-adv-x="566" 
d="M424 1182c137 -88 289 -262 62 -837c-291 -739 -622 -690 -700 -657c-18 7 -23 23 -18 36s23 26 42 20c160 -52 308 -106 602 604c297 719 54 732 -23 779c-18 8 -25 27 -16 43c8 17 29 23 51 12z" />
    <glyph glyph-name="zero" unicode="0" horiz-adv-x="578" 
d="M408 605c345 18 106 -663 -217 -614c-123 28 -167 163 -124 296c31 99 112 200 243 250c31 12 65 14 87 7c34 -12 20 -49 17 -56c-18 -31 -69 -24 -72 8c-1 7 -4 13 -11 15c-11 3 -17 -1 -28 -9c-188 -143 -225 -446 -86 -477c207 -47 378 510 193 565
c-11 2 -11 13 -2 15z" />
    <glyph glyph-name="one" unicode="1" horiz-adv-x="423" 
d="M486 607c-30 -24 -56 -110 -56 -110v0c-11 -33 -127 -383 -163 -476c0 0 -2 -9 -13 -13c-10 -4 -69 -18 -69 -18s-9 1 -6 8c23 62 90 253 136 381h-1c-131 -198 -305 -250 -318 -253c-12 -4 -24 -4 -25 2c-2 6 4 10 20 15c161 45 341 335 393 415c26 44 54 56 88 59
c0 0 25 -1 14 -10z" />
    <glyph glyph-name="two" unicode="2" horiz-adv-x="504" 
d="M543 479c2 -133 -205 -225 -409 -387c155 66 170 -98 282 -64c26 9 27 18 35 16c7 -2 9 -13 -6 -22c-230 -124 -241 119 -361 16c-33 -29 -76 -70 -102 -53c-30 22 45 70 99 108c43 29 241 177 299 229c124 110 106 273 -35 265c-143 -18 -202 -182 -157 -251
c14 -20 33 -24 40 -2c5 13 15 23 28 24c46 7 59 -50 18 -66c-248 -81 -248 293 75 323c87 8 191 -17 194 -136z" />
    <glyph glyph-name="three" unicode="3" horiz-adv-x="512" 
d="M546 459c-7 -99 -124 -175 -256 -224c63 5 182 -41 156 -186c-27 -156 -208 -262 -344 -260c-256 2 -207 200 -88 220c38 6 55 -49 13 -69c-10 -4 -27 -3 -33 5c-24 24 -70 -126 109 -130c289 -7 373 436 90 383c-6 -2 -15 -1 -16 3c-1 3 1 10 17 15s252 77 269 235
c20 188 -233 177 -279 -11c-7 -32 -10 -74 5 -103c15 -23 34 -23 41 -3c4 12 15 22 30 24c40 6 55 -43 20 -65c-68 -36 -191 3 -182 119c8 106 124 201 271 204c101 2 182 -52 177 -157z" />
    <glyph glyph-name="five" unicode="5" horiz-adv-x="568" 
d="M569 582c-172 -139 -303 -46 -348 -22c0 0 -82 -245 -107 -317c21 32 109 86 173 86c126 0 238 -78 199 -244c-37 -160 -196 -296 -366 -298c-212 -2 -190 178 -131 203c47 20 68 -41 31 -61c-38 -23 -14 -104 88 -112c290 -22 404 462 157 467c-80 2 -137 -64 -152 -77
c-15 -14 -24 -34 -42 -34c-15 0 -12 14 -9 23c17 35 126 371 137 398c10 28 34 25 41 23c116 -50 173 -62 322 -12c23 7 20 -11 7 -23z" />
    <glyph glyph-name="four" unicode="4" horiz-adv-x="475" 
d="M430 107c24 20 49 -6 32 -23c-45 -36 -92 -51 -138 -57c-28 -86 -52 -158 -63 -188c0 0 -2 -9 -14 -13c-11 -4 -70 -18 -70 -18s-9 1 -6 9c13 31 40 113 72 211c-50 4 -96 15 -134 20c-98 13 -145 -7 -167 -15c-17 -5 -26 18 5 36c229 161 424 416 475 490
c28 43 55 55 90 58c0 0 24 -1 14 -10c-28 -22 -56 -94 -60 -108c-2 -9 -73 -251 -134 -442h19c63 3 68 40 79 50zM256 64c44 140 96 301 120 383l-12 -18c-149 -199 -377 -366 -364 -362c85 27 172 8 256 -3z" />
    <glyph glyph-name="six" unicode="6" horiz-adv-x="557" 
d="M398 500c284 -38 89 -518 -183 -512c-369 18 -124 782 488 788c27 -1 24 -42 -6 -41c-23 0 -55 19 -145 -2c-378 -99 -548 -679 -334 -712c205 -30 326 408 165 442c-43 9 -99 -6 -130 -61c-22 -44 -1 -47 -2 -66c-2 -18 -14 -30 -33 -30c-21 1 -29 19 -27 29
c7 69 97 179 207 165z" />
    <glyph glyph-name="seven" unicode="7" horiz-adv-x="547" 
d="M675 580c-26 -32 -110 -66 -220 -194c-383 -446 -380 -548 -414 -587c-9 -10 -30 -26 -45 -19c-20 10 -21 26 -3 59c19 32 369 548 551 677c-199 -101 -225 113 -388 -3c-17 -11 -34 -3 -13 16c286 250 297 -135 485 81c22 29 86 17 47 -30z" />
    <glyph glyph-name="eight" unicode="8" horiz-adv-x="548" 
d="M375 404c59 -62 117 -132 105 -233c-31 -159 -179 -201 -280 -188h-3v0c-114 23 -167 116 -154 197c15 105 121 160 229 211c-55 57 -103 118 -90 204c14 111 136 171 245 164c79 -9 160 -66 142 -184c-18 -84 -102 -128 -194 -171zM255 594c-5 -61 43 -111 96 -165
c74 38 135 80 154 145c14 80 -14 140 -85 154c-83 12 -156 -46 -165 -134zM405 127c27 104 -42 172 -110 241c-87 -42 -165 -93 -184 -184c-18 -102 47 -165 93 -171c93 -16 180 37 201 114z" />
    <glyph glyph-name="nine" unicode="9" horiz-adv-x="572" 
d="M407 613c330 1 104 -751 -379 -814c-46 -6 -157 11 -151 48c2 10 12 19 27 16c38 -7 34 -49 125 -41c374 59 586 725 374 757c-203 31 -347 -408 -189 -442c43 -9 114 7 148 61c24 44 1 47 3 66c3 18 15 30 34 30c21 0 28 -19 26 -29c-11 -78 -117 -174 -227 -164
c-234 19 -154 513 209 512z" />
    <glyph glyph-name="w" unicode="w" horiz-adv-x="698" 
d="M665 507c14 -24 34 -69 34 -134c-1 -66 -21 -152 -92 -253c-76 -109 -150 -128 -189 -128c-37 0 -92 19 -92 92v9c-75 -86 -150 -101 -194 -101c-67 0 -101 26 -101 89c0 48 23 113 78 188c21 29 42 59 58 94c5 12 21 54 21 81c0 14 -4 25 -16 26c-18 0 -42 -22 -69 -52
c-4 -5 -10 -9 -16 -9c-5 0 -7 4 -7 8c0 7 6 15 6 15s68 87 122 87c3 0 6 -1 9 -1c0 0 46 -8 46 -71c0 -93 -66 -173 -80 -194c-46 -67 -79 -131 -79 -174c0 -31 17 -52 60 -52c75 0 131 80 150 101c17 18 109 122 109 232c0 94 -53 85 -53 121c0 26 24 45 48 45
c8 0 16 -3 21 -8c0 -1 39 -35 39 -119c0 -61 -16 -143 -52 -219c-15 -32 -26 -70 -26 -99c0 -30 12 -54 46 -54c55 0 110 73 129 99c14 19 84 119 84 227c0 16 -1 33 -5 49c-10 45 -66 32 -66 80c0 26 24 42 44 42c14 0 27 -6 33 -17z" />
    <glyph glyph-name="j" unicode="j" horiz-adv-x="271" 
d="M201 505c78 -18 63 -87 44 -145c-73 -224 -173 -532 -173 -532s-92 -305 -305 -295c0 0 -163 16 -115 90c0 0 21 27 52 1c37 -30 29 -56 108 -62c24 1 115 11 209 308c53 169 112 360 153 493c4 14 29 96 -13 104c-27 6 -63 -16 -94 -46c-12 -11 -21 -1 -21 -1
c-7 7 4 20 7 23c40 43 92 76 148 62zM263 593c-29 0 -55 25 -55 55c0 29 26 55 55 55s55 -26 55 -55c0 -30 -26 -55 -55 -55z" />
    <glyph glyph-name="plus" unicode="+" horiz-adv-x="484" 
d="M350 444l-42 -114h130l-20 -53h-129l-45 -124h-53l45 124h-132l20 53h132l41 114h53z" />
    <glyph glyph-name="at" unicode="@" horiz-adv-x="1074" 
d="M722 -16c-115 12 -85 110 -64 177h-2c-29 -71 -156 -211 -256 -160c-207 105 92 556 262 501c30 -10 72 -40 68 -122c33 90 68 112 114 115c0 0 25 0 14 -9c-30 -25 -56 -111 -56 -111l-56 -173c-28 -91 -44 -156 18 -166c207 -19 423 638 -85 651
c-333 9 -516 -319 -546 -508c-34 -211 85 -391 333 -434c162 -28 272 12 344 59c100 65 72 86 92 106c25 25 63 -7 32 -38c-68 -62 -212 -192 -472 -170c-743 99 -351 1011 219 1011c613 -15 351 -744 41 -729zM467 53c123 -31 227 193 235 296c5 69 -10 112 -48 117
c-96 14 -204 -166 -227 -255c-17 -70 -15 -143 40 -158z" />
    <glyph glyph-name="backslash" unicode="\" horiz-adv-x="317" 
d="M105 1120c4 -22 107 -968 132 -1277c3 -36 2 -97 -53 -119c-7 -2 -14 -4 -11 7c7 23 11 62 5 120c-26 261 -125 1196 -130 1247c-9 87 37 112 52 118c16 6 14 0 10 -11c-3 -9 -10 -51 -5 -85z" />
    <glyph glyph-name="bar" unicode="|" horiz-adv-x="333" 
d="M386 1219h6c4 0 6 -1 6 -3s-26 -33 -33 -90c-3 -23 -218 -1241 -269 -1541c-6 -35 -26 -100 -87 -100c-4 0 -6 1 -6 4c0 2 0 3 2 6c12 21 27 57 38 115c46 258 255 1459 264 1510c15 87 63 98 79 99z" />
    <glyph glyph-name="florin" unicode="&#x192;" horiz-adv-x="354" 
d="M411 463h-158l-43 -139c-67 -225 -154 -498 -154 -498s-88 -296 -307 -296h-11c0 0 -121 11 -121 63c0 7 1 39 34 39c8 0 16 -3 26 -11c36 -30 28 -57 106 -62c23 1 114 11 209 308c57 181 121 387 164 521c0 0 3 11 3 24c0 22 -9 51 -56 51h-23c-1 0 -15 1 -15 21
c0 19 14 19 16 19h111c42 144 130 362 305 362c58 0 122 -28 122 -79c0 -20 -13 -30 -13 -30s-15 -9 -30 -9c-13 0 -27 6 -34 29c-14 47 -38 62 -64 62c-9 0 -19 -2 -29 -5c0 0 -75 -19 -125 -157c-12 -32 -28 -84 -56 -173h148c1 0 12 0 12 -19c0 -21 -18 -21 -17 -21z" />
    <glyph glyph-name="perthousand" unicode="&#x2030;" horiz-adv-x="1014" 
d="M548 772c13 -13 18 -27 18 -41c0 -29 -21 -60 -34 -83c-170 -283 -349 -564 -363 -584c-39 -55 -35 -95 -42 -95c0 0 -24 7 -24 44c0 19 8 47 32 85c29 46 200 319 347 556c38 61 57 123 59 123s5 -2 7 -5zM217 726h7c65 0 92 -45 92 -103c0 -107 -92 -260 -207 -260
c-68 0 -102 58 -102 119c0 73 49 164 152 204c11 4 23 6 33 6c25 0 31 -10 31 -21c0 -19 -13 -26 -24 -26c-23 0 -18 26 -30 26c-5 0 -8 -2 -14 -6c-65 -50 -100 -133 -100 -196c0 -49 22 -86 65 -86c78 0 144 143 144 243c0 45 -13 81 -46 91c-4 0 -6 3 -6 5s2 3 5 4z
M548 364h7c65 0 93 -45 93 -103c0 -107 -92 -260 -207 -260c-68 0 -102 57 -102 118c0 74 48 165 152 205c11 4 23 6 33 6c25 0 31 -10 31 -21c0 -20 -13 -26 -25 -26c-23 0 -16 26 -31 26c-4 0 -8 -2 -12 -6c-66 -50 -101 -133 -101 -196c0 -49 22 -86 65 -86
c79 0 145 143 145 243c0 45 -14 81 -46 91c-4 0 -6 3 -6 5s2 3 4 4zM890 364h7c65 0 93 -45 93 -103c0 -107 -92 -260 -207 -260c-68 0 -102 57 -102 118c0 74 48 165 152 205c11 4 23 6 33 6c25 0 31 -10 31 -21c0 -20 -13 -26 -25 -26c-23 0 -16 26 -31 26
c-4 0 -8 -2 -12 -6c-66 -50 -101 -133 -101 -196c0 -49 22 -86 65 -86c78 0 145 143 145 242c0 46 -14 82 -47 92c-3 0 -5 3 -5 5s1 3 4 4z" />
    <glyph glyph-name="OE" unicode="&#x152;" horiz-adv-x="1417" 
d="M1183 1006c107 86 217 123 301 123c82 0 138 -37 138 -100c0 -159 -274 -305 -526 -328c26 -61 91 -89 135 -89c15 0 28 7 34 7c3 0 5 -3 5 -6c0 -23 -52 -27 -57 -27c-6 0 -10 1 -13 1c-73 -11 -403 -52 -429 -390c-1 -5 -1 -11 -1 -16c0 -102 72 -210 203 -225
c-2 15 -3 30 -3 47c0 47 8 101 26 161c29 100 167 292 305 292c70 0 113 -41 113 -118c0 -149 -156 -396 -394 -414c17 -73 62 -149 153 -218c3 -2 6 -7 6 -12c0 -4 -3 -7 -11 -7c-3 0 -6 0 -10 1c-12 3 -145 69 -180 235c-148 4 -278 61 -297 232c0 1 -1 2 -1 3
c-104 -122 -226 -191 -335 -191c-110 0 -315 88 -315 350c0 56 10 121 33 194l11 34c-65 43 -104 111 -104 210c13 260 231 358 414 385c4 1 11 1 18 1c17 0 38 -5 38 -31c0 -27 -23 -35 -41 -35c-27 0 -55 15 -85 15c-37 0 -76 -11 -115 -34c-112 -67 -164 -177 -164 -280
c0 -66 21 -129 61 -176c99 236 277 402 433 490c50 173 296 223 445 223c95 0 133 -17 133 -46c0 -22 -20 -33 -38 -33c-5 0 -9 1 -13 3c-34 14 -11 49 -125 49c-156 0 -272 -67 -320 -156c63 26 115 33 158 33c144 0 145 -100 145 -124c0 -41 -10 -81 -26 -121
c20 -44 29 -96 29 -172c27 -5 55 -9 83 -11c8 83 75 188 183 271zM346 1c138 0 258 114 348 268c11 32 28 64 49 94c58 125 94 258 99 358c-22 6 -44 13 -65 21c-159 -187 -322 -256 -485 -256c-46 0 -90 6 -131 18c-20 -67 -29 -131 -29 -191c0 -178 84 -310 214 -312z
M227 662c-22 -41 -40 -82 -54 -122c33 -16 72 -25 117 -25c209 0 353 142 433 251c-131 64 -203 158 -203 269c-97 -81 -203 -208 -293 -373zM1197 741c204 39 366 164 366 267c0 61 -52 87 -103 87c-40 0 -86 -14 -128 -35c-65 -32 -248 -153 -248 -297c0 -11 1 -21 3 -32
c39 1 76 4 110 10zM1073 230c-25 -50 -62 -135 -62 -229c0 -15 1 -31 3 -46c219 8 347 228 347 364c0 59 -26 87 -75 87c-81 0 -171 -95 -213 -176zM756 1132c-9 3 -19 4 -29 4c-37 0 -84 -16 -134 -48c-3 -14 -7 -27 -7 -41c0 -116 65 -193 162 -244c33 48 47 73 60 108
c-19 35 -39 45 -57 45c-26 0 -35 -16 -35 -32c0 -22 8 -39 8 -40c0 -4 -2 -4 -3 -4c2 0 -33 -2 -33 50c0 54 42 77 81 77c19 0 40 -6 59 -18c1 10 2 21 2 31c0 51 -20 95 -74 112zM887 563c-7 -27 -16 -53 -24 -78c76 58 163 97 240 106h7c-68 15 -103 55 -110 107
c-28 0 -60 4 -86 8c-4 -43 -13 -90 -27 -143zM836 820l-30 -43c12 -5 24 -8 37 -12z" />
    <glyph glyph-name="trademark" unicode="&#x2122;" horiz-adv-x="1208" 
d="M806 958c-17 0 -35 -4 -51 -10c4 -4 7 -8 7 -14c0 -21 -42 -55 -100 -66c-15 -23 -21 -48 -21 -68c0 -43 30 -77 80 -77c54 0 55 28 68 28c5 0 10 -3 10 -9c0 -20 -59 -28 -78 -28c-56 0 -91 36 -91 86c0 20 5 43 17 65c-7 0 -15 -1 -23 -1c-39 0 -80 9 -113 22l-68 -222
s-21 -75 -63 -109c-29 -17 -52 -18 -74 -18c-46 0 -54 21 -54 25c0 7 5 14 12 14c15 0 24 -27 47 -27c59 0 88 127 155 351c-49 19 -98 43 -155 43c-51 0 -104 -22 -104 -87c0 -58 59 -81 78 -84c8 -1 20 -3 32 -3c63 0 62 47 79 47c5 0 9 -2 9 -8c0 10 -1 -52 -111 -52
c-81 0 -119 54 -119 96c0 31 42 104 142 104c56 0 109 -21 154 -39c10 12 42 21 52 21c2 0 3 0 3 -2s-2 -5 -2 -5l-9 -29c45 -19 88 -26 139 -26c17 27 39 48 66 66c-30 0 -19 -17 -34 -17c-6 0 -11 3 -11 8c0 3 13 21 56 21c3 0 6 -1 9 -1c24 11 50 17 75 17
c60 0 97 -34 97 -88c0 -83 -45 -188 -45 -282v-17l2 4c182 362 331 395 353 395s42 -4 42 -18c0 -6 -8 -20 -21 -20c-10 0 -27 14 -41 14c-13 0 -30 -6 -45 -18c-106 -87 -184 -298 -184 -449c0 -95 33 -172 146 -172c92 0 125 72 134 87c8 14 14 17 19 17s10 -2 10 -11
c0 -18 -64 -106 -170 -106c-128 0 -167 93 -167 196c0 185 99 324 155 398c-114 -102 -227 -340 -231 -350c-7 -12 -9 -19 -28 -19c-12 0 -15 38 -15 63c0 75 30 167 49 235c-7 -24 -64 -119 -113 -205c-38 -67 -102 -108 -172 -108c-36 0 -111 16 -111 90
c0 110 111 124 115 124c8 0 12 -4 12 -10s-5 -13 -12 -13c-9 0 -11 6 -22 6c-27 0 -69 -36 -69 -101c0 -52 36 -84 91 -84c61 0 120 42 149 89c59 97 128 216 128 262c0 40 -18 79 -65 79zM734 928c0 3 0 6 -2 8c-25 -14 -48 -35 -64 -57c48 7 66 34 66 49z" />
    <glyph glyph-name="oe" unicode="&#x153;" horiz-adv-x="773" 
d="M687 511c61 -5 108 -41 108 -93c0 -130 -229 -220 -351 -272c2 -53 28 -93 88 -93c69 0 135 59 176 127c0 0 6 12 14 12c4 0 6 -2 6 -7c0 -45 -127 -193 -244 -193c-64 0 -102 38 -119 83c-44 -46 -103 -86 -178 -86c-112 0 -153 86 -153 178c0 38 8 76 20 108
c-1 -1 50 124 74 124c0 -9 10 -44 32 -61c0 0 7 -4 7 -13c0 -2 -1 -4 -2 -7c-40 -89 -55 -154 -55 -200c0 -71 34 -99 70 -99c102 0 161 149 194 244c10 29 26 84 26 131c0 50 -17 92 -75 92c-21 0 -70 -15 -70 -48c0 -15 8 -22 8 -38c0 -31 -25 -56 -56 -56s-56 25 -56 56
c0 58 109 112 181 112c8 0 16 -1 24 -2c0 0 94 -13 116 -116c65 75 140 117 215 117zM719 372c8 19 12 37 12 53c0 34 -18 58 -52 58c-154 -14 -231 -260 -234 -309c51 21 104 44 151 73c96 60 123 125 123 125z" />
    <glyph glyph-name="yen" unicode="&#xa5;" horiz-adv-x="1094" 
d="M1213 806c64 -2 63 -24 58 -36c-5 -11 -22 -15 -42 -10c-23 5 -34 19 -78 18c-58 -1 -308 -118 -518 -432c133 1 257 1 260 1c8 0 10 -3 7 -6c-26 -20 -58 -23 -68 -23h-217c-19 -30 -38 -62 -56 -95h268c8 0 10 -3 7 -5c-26 -21 -58 -23 -68 -23h-222
c-29 -55 -55 -114 -80 -178c-7 -12 -7 -20 -19 -24s-45 -9 -50 -9c-5 1 -11 3 -6 12c3 6 48 101 89 199h-297c-4 0 -6 2 -3 4c22 18 59 23 72 23c5 0 116 0 239 1c14 34 27 67 37 95h-279c-4 0 -6 3 -3 5c22 17 59 23 71 23h220c1 5 3 10 4 15c27 105 115 410 -111 404
c-178 -8 -288 -178 -226 -276c27 -39 49 -23 84 -21c29 2 35 -35 0 -41c-54 -8 -146 26 -145 124c1 97 101 233 289 235c164 2 280 -63 182 -399c84 106 352 431 601 419z" />
    <glyph glyph-name="brokenbar" unicode="&#xa6;" horiz-adv-x="427" 
d="M425 1176c17 2 14 -4 7 -13c-5 -8 -24 -46 -28 -81c-1 -9 -35 -199 -76 -435h-1c-7 -36 -24 -85 -79 -91c-7 -1 -14 -1 -8 9c13 21 26 57 36 113c37 214 66 378 70 399c15 87 63 98 79 99zM273 307c17 1 13 -4 7 -13c-5 -8 -24 -46 -28 -81c-1 -10 -35 -200 -77 -436v0
c-7 -36 -25 -85 -79 -90c-7 -1 -14 -1 -8 9c13 20 25 56 36 113c37 214 66 378 70 398c15 87 63 98 79 100z" />
    <glyph glyph-name="section" unicode="&#xa7;" horiz-adv-x="656" 
d="M499 763c64 0 181 -12 171 -123c-5 -49 -65 -82 -101 -36c-15 19 -13 56 13 72c8 5 20 13 12 27c-8 15 -36 39 -97 38c-58 -1 -145 -37 -152 -111c-13 -139 253 -241 246 -386c-4 -91 -91 -164 -203 -178c27 -35 46 -71 44 -111c-5 -101 -116 -180 -246 -180
c-199 0 -215 110 -205 155c6 23 30 56 74 45c41 -14 43 -55 26 -78c-9 -13 -32 -16 -26 -40c11 -29 54 -56 138 -59c111 -1 173 58 177 130c7 116 -262 234 -256 371c4 107 123 167 210 174c-31 37 -53 75 -51 115c5 114 139 175 226 175zM345 450c-64 1 -152 -36 -158 -108
c-7 -96 110 -172 185 -257c104 7 150 70 153 137c3 78 -104 150 -180 228z" />
    <glyph glyph-name="ordfeminine" unicode="&#xaa;" horiz-adv-x="448" 
d="M434 801c0 0 12 0 7 -5c-16 -12 -29 -56 -29 -56l-28 -87c-14 -47 -18 -83 -1 -84c21 -1 29 19 38 35c0 0 4 5 8 3s4 -5 3 -8c-9 -26 -36 -56 -68 -56c-51 0 -35 55 -25 89h-1c-14 -36 -79 -107 -129 -81c-105 53 46 281 133 253c15 -5 36 -20 34 -61c17 45 34 56 58 58z
M362 727c2 35 -6 57 -25 59c-48 7 -103 -84 -114 -129c-9 -35 -8 -72 20 -80c62 -16 114 98 119 150z" />
    <glyph glyph-name="onequarter" unicode="&#xbc;" horiz-adv-x="1063" 
d="M996 501c0 0 17 1 8 -6c-19 -15 -41 -75 -41 -75s-57 -174 -99 -297h9c38 2 42 25 48 31c14 12 31 -4 20 -15c-24 -19 -53 -30 -84 -35c-14 -42 -27 -76 -34 -92c0 0 -1 -5 -8 -8s-57 -15 -57 -15s-8 0 -5 7c7 17 20 56 37 104c-40 1 -77 7 -102 11
c-62 8 -91 -5 -105 -10c-11 -3 -17 11 2 22c140 101 290 256 321 313c24 50 63 65 90 65zM799 126c29 83 63 183 84 245c-3 -5 -7 -10 -11 -16c-89 -124 -262 -236 -254 -233c52 17 121 9 181 4zM934 996c38 -39 4 -90 -17 -124c-169 -283 -630 -1012 -644 -1032
c-21 -30 -34 -72 -36 -82c-2 -11 -3 -18 -14 -6c-11 10 -34 43 16 122c30 47 481 766 628 1004c33 53 49 91 54 115c3 12 8 8 13 3zM360 548c-108 -161 -250 -204 -260 -207c-11 -3 -20 -3 -21 2c-2 5 3 8 16 12c132 37 280 275 322 340c21 36 44 46 72 48c0 0 20 0 12 -8
c-25 -19 -46 -90 -46 -90h-1c-8 -25 -103 -313 -133 -390c0 0 -1 -7 -10 -10c-9 -4 -57 -15 -57 -15s-7 1 -5 7c19 51 74 207 111 312v-1z" />
    <glyph glyph-name="onehalf" unicode="&#xbd;" horiz-adv-x="1125" 
d="M924 996c38 -39 4 -90 -16 -124c-170 -283 -631 -1012 -644 -1032c-22 -30 -35 -72 -37 -82c-2 -11 -3 -18 -14 -6c-11 10 -34 43 17 122c29 47 480 766 628 1004c33 53 49 91 54 115c2 12 8 8 12 3zM359 548c-108 -161 -250 -204 -260 -207c-11 -3 -20 -3 -21 2
c-2 5 3 8 16 12c132 37 279 275 322 340c21 36 44 46 72 48c0 0 20 0 11 -8c-24 -19 -46 -90 -46 -90v0c-8 -25 -104 -313 -133 -390c0 0 -2 -7 -10 -10c-9 -4 -57 -15 -57 -15s-7 1 -5 7c19 51 74 207 111 312v-1zM915 504c70 6 155 -14 158 -110
c4 -108 -162 -182 -326 -314c125 54 140 -79 230 -52c22 8 22 15 28 13c7 -1 8 -10 -4 -18c-186 -100 -198 97 -293 13c-26 -23 -61 -57 -83 -42c-25 17 37 56 80 87c34 24 193 143 239 186c99 89 82 221 -33 214c-114 -14 -161 -147 -122 -203c11 -16 26 -20 31 -2
c4 11 12 19 22 20c38 6 49 -41 16 -54c-200 -65 -205 238 57 262z" />
    <glyph glyph-name="threequarters" unicode="&#xbe;" horiz-adv-x="1073" 
d="M1007 501c0 0 16 1 8 -6c-19 -15 -41 -75 -41 -75s-57 -174 -99 -297h9c27 2 41 27 48 33c14 13 31 -6 20 -17c-25 -20 -54 -31 -84 -36c-15 -42 -27 -76 -34 -91c0 0 -1 -5 -8 -8s-58 -15 -58 -15s-7 0 -4 7c6 17 20 55 37 103c-40 1 -77 8 -102 12
c-62 8 -92 -5 -106 -10c-10 -3 -16 11 2 22c141 101 291 256 322 313c24 50 63 65 90 65zM810 126c29 83 63 183 84 245c-4 -5 -7 -10 -11 -16c-89 -124 -263 -236 -255 -233c53 17 122 9 182 4zM945 996c38 -39 3 -90 -17 -124c-170 -283 -630 -1012 -644 -1032
c-21 -30 -35 -72 -36 -82c-2 -11 -3 -18 -15 -6c-10 10 -33 43 17 122c30 47 481 766 628 1004c33 53 49 91 54 115c2 12 8 8 13 3zM435 381c-16 -96 -110 -155 -212 -155c-201 1 -161 159 -56 153c37 -1 36 -39 11 -43c-8 -2 -19 1 -24 6c-19 24 -82 -93 66 -98
c183 -6 232 274 21 240c-5 -1 -12 -1 -13 1c0 3 1 7 13 10s170 58 182 158c12 119 -177 112 -209 -7c-6 -20 -7 -47 5 -65c11 -15 25 -15 30 -2c3 7 11 13 22 15c31 4 42 -28 16 -41c-50 -23 -143 1 -138 75c4 68 91 127 201 129c76 2 138 -33 134 -99
c-3 -63 -72 -120 -172 -151c47 3 139 -28 123 -126z" />
    <glyph glyph-name="ae" unicode="&#xe6;" horiz-adv-x="758" 
d="M679 511c81 -7 138 -68 92 -149c-63 -105 -219 -167 -335 -216c2 -44 20 -80 61 -90c78 -18 157 47 203 124c0 0 7 15 17 12c9 -4 -4 -29 -4 -29c-29 -70 -177 -211 -288 -160c-65 30 -85 89 -77 157c-33 -71 -156 -202 -253 -153c-207 105 92 555 262 500
c30 -10 72 -40 68 -122c39 0 45 26 100 68c18 14 36 26 54 35c30 17 75 24 100 23zM397 354c5 70 -10 112 -48 117c-96 14 -204 -165 -226 -254c-18 -70 -16 -144 40 -158c122 -31 225 193 234 295zM711 372c30 72 2 135 -80 102c-100 -49 -170 -186 -188 -260
c-3 -13 -5 -27 -6 -40c51 21 104 44 151 73c96 60 123 125 123 125z" />
    <glyph glyph-name="oslash" unicode="&#xf8;" horiz-adv-x="484" 
d="M488 539c5 0 5 -4 -2 -12c-5 -5 -22 -27 -47 -58c37 -41 62 -119 8 -265c-10 -36 -118 -252 -309 -212c-23 5 -42 16 -58 31c-10 -13 -17 -21 -18 -22c-11 -12 -43 -21 -49 -21c-5 -1 -9 1 -4 6c0 1 20 25 50 63c-39 63 -36 159 -10 227c38 98 155 258 307 239
c0 0 29 -4 59 -24c15 18 24 29 24 29c13 15 40 19 49 19zM142 268c-29 -72 -40 -126 -39 -164c88 109 215 266 285 353c-18 31 -47 32 -47 32c-64 12 -126 -43 -199 -221zM374 264c26 74 31 123 26 156c-87 -108 -217 -271 -288 -358c11 -27 31 -40 56 -44
c52 -8 136 45 206 246z" />
    <glyph glyph-name="dotlessi" unicode="&#x131;" horiz-adv-x="229" 
d="M95 -6c-1 0 -2 1 -3 1c-77 19 -42 111 -25 150c18 41 82 220 82 220s42 101 -6 105c-18 1 -42 -11 -62 -23c-23 -15 -31 -4 -31 -3c0 0 -9 9 21 32c33 26 70 42 111 33c88 -21 60 -106 35 -169c-29 -69 -82 -225 -82 -225s-7 -17 -40 -121z" />
    <glyph glyph-name="numbersign" unicode="#" horiz-adv-x="865" 
d="M827 511c8 0 10 -4 7 -6c-27 -20 -58 -23 -68 -23h-109c-36 -76 -70 -148 -100 -210c96 0 173 1 175 1c9 0 11 -4 7 -6c-26 -21 -58 -23 -67 -23h-129c-49 -101 -84 -170 -90 -180c-17 -31 -24 -72 -24 -82c-1 -11 -1 -18 -14 -7c-12 10 -39 44 0 123c9 19 35 73 71 146
h-167c-49 -101 -84 -170 -89 -180c-18 -31 -25 -72 -25 -82c0 -11 0 -18 -14 -7c-12 10 -39 44 0 123c9 19 35 73 71 146h-175c-4 0 -6 3 -3 5c22 17 59 22 71 22h120c30 62 66 135 102 211h-195c-5 0 -6 3 -3 5c22 17 58 22 71 22c4 0 62 0 140 1c24 48 47 97 70 144
c25 53 36 91 37 115c1 12 7 8 13 3c43 -39 16 -90 1 -124c-22 -46 -43 -93 -64 -138h168c23 48 46 97 69 144c25 53 36 91 37 115c1 12 7 8 13 3c43 -39 16 -90 1 -124c-22 -46 -43 -93 -64 -138c87 1 153 1 156 1zM499 272c30 62 66 135 102 210h-167
c-37 -76 -71 -148 -101 -210h166z" />
    <glyph glyph-name="dollar" unicode="$" horiz-adv-x="708" 
d="M561 776c80 -7 151 -41 151 -124c0 -40 -26 -75 -68 -75c-20 0 -57 16 -57 50c0 36 44 44 44 71c0 12 -14 48 -77 56c-24 -83 -58 -199 -93 -320c69 -62 142 -124 142 -213c0 -107 -121 -218 -271 -228c-22 -74 -37 -123 -39 -128c-6 -14 -33 -34 -38 -36
c-2 -1 -3 -1 -5 -1c-1 0 -2 0 -2 2c0 -3 16 54 48 163c-153 5 -208 81 -208 160c0 29 3 98 71 98c42 0 59 -29 59 -50c0 -37 -43 -51 -43 -85c0 -33 22 -93 128 -100c28 96 64 219 100 341c-68 60 -137 127 -137 219c0 139 134 199 261 202c14 46 22 74 22 74
c5 16 34 35 41 35c2 0 3 -1 3 -4c0 -2 -6 -17 -32 -107zM526 176c1 5 1 10 1 15c0 49 -44 94 -96 141c-34 -116 -67 -230 -92 -315c116 9 173 84 187 159zM433 459c34 116 66 223 87 296c-66 -3 -175 -53 -175 -146c0 -58 40 -105 88 -150z" />
    <glyph glyph-name="percent" unicode="%" horiz-adv-x="875" 
d="M668 772c38 -38 3 -90 -17 -124c-169 -283 -349 -564 -363 -584c-22 -31 -35 -73 -36 -83c-2 -11 -3 -18 -15 -6c-10 10 -33 43 17 123c29 46 200 319 347 556c33 53 49 91 54 116c2 11 8 7 13 2zM336 726c203 10 62 -390 -127 -361c-73 17 -99 96 -73 174
c18 58 65 117 142 147c19 7 39 8 52 4c20 -7 11 -29 10 -33c-11 -18 -41 -14 -43 5c0 4 -2 7 -6 9c-7 1 -10 -1 -17 -6c-110 -84 -132 -262 -50 -280c121 -28 222 300 113 332c-6 1 -6 8 -1 9zM668 364c202 10 62 -390 -128 -361c-72 16 -98 96 -73 174
c18 58 66 117 143 147c18 7 38 8 51 4c20 -7 12 -29 10 -33c-10 -18 -40 -14 -42 5c-1 4 -3 7 -7 8c-6 2 -10 0 -16 -5c-111 -84 -132 -262 -51 -280c122 -28 222 300 114 332c-7 1 -7 8 -1 9z" />
    <glyph glyph-name="asterisk" unicode="*" horiz-adv-x="656" 
d="M635 1087c30 14 47 -4 51 -18c3 -15 -7 -45 -34 -58c-47 -22 -78 -3 -172 -47c62 -44 106 -23 138 -46c19 -14 6 -44 -8 -58c-14 -15 -45 -31 -63 -18c-30 23 -18 64 -78 110c-29 -89 -1 -111 -17 -157c-10 -28 -41 -40 -58 -40c-18 0 -39 14 -29 41c15 44 59 67 92 157
c-96 -47 -111 -89 -159 -112c-29 -14 -47 3 -50 18c-4 15 6 44 33 58c47 22 78 3 172 47c-64 46 -109 25 -140 48c-20 14 -6 43 7 58c14 15 45 30 63 17c31 -22 18 -65 82 -112c32 92 2 114 19 160c10 28 41 40 58 40s38 -14 29 -40c-16 -45 -60 -68 -93 -160
c94 47 110 89 157 112z" />
    <glyph glyph-name="breve" unicode="&#x2d8;" horiz-adv-x="663" 
d="M656 715h63c-34 -65 -111 -110 -184 -110s-113 38 -91 109v1h67c-5 -32 4 -84 44 -84c52 0 84 43 101 83v1z" />
    <glyph glyph-name="dotaccent" unicode="&#x2d9;" horiz-adv-x="605" 
d="M417 591c-31 0 -57 25 -57 57c0 31 26 57 57 57s57 -26 57 -57c0 -32 -26 -57 -57 -57z" />
    <glyph glyph-name="ring" unicode="&#x2da;" horiz-adv-x="660" 
d="M465 796c58 8 111 -30 85 -92c-27 -66 -96 -99 -163 -108c-63 -9 -104 29 -85 92c27 66 96 98 163 108zM479 688c9 29 6 69 -29 80c-36 11 -65 -35 -77 -64c-9 -29 -6 -70 29 -80c34 -11 68 33 77 64z" />
    <glyph glyph-name="ogonek" unicode="&#x2db;" horiz-adv-x="640" 
d="M529 -221c1 -6 2 -11 3 -16c-6 -2 -39 -9 -51 -9c-63 0 -110 40 -110 89c0 60 25 100 89 139c14 9 31 14 48 17c3 0 30 1 16 -7c-44 -28 -87 -77 -87 -135c0 -46 38 -91 92 -78z" />
    <glyph glyph-name="caron" unicode="&#x2c7;" horiz-adv-x="653" 
d="M422 609h-67c-34 56 -67 113 -101 169h83c24 -38 48 -76 74 -114c48 40 92 76 138 114h53c-55 -52 -110 -104 -164 -156c-6 -4 -11 -9 -16 -13z" />
    <glyph glyph-name="quotesingle" unicode="'" horiz-adv-x="427" 
d="M309 607c-2 10 9 17 9 17s41 24 46 53c3 18 -7 50 -7 50c-7 18 -3 42 13 60c21 25 47 25 66 11c16 -12 21 -37 18 -56c-13 -76 -103 -127 -130 -140c-12 -6 -15 5 -15 5z" />
    <glyph glyph-name="comma" unicode="," horiz-adv-x="243" 
d="M23 -89c-2 10 9 17 9 17s40 24 45 53c4 18 -7 50 -7 50c-6 18 -3 41 13 60c22 24 48 25 67 10c16 -11 20 -36 17 -55c-12 -77 -102 -128 -129 -141c-13 -6 -15 6 -15 6z" />
    <glyph glyph-name="hyphen" unicode="-" horiz-adv-x="452" 
d="M54 278c0 26 216 53 306 14c16 -7 32 -17 42 -33c16 -25 10 -49 -12 -56c-38 -13 -57 30 -91 50c-69 41 -226 15 -226 15s-19 -2 -19 10z" />
    <glyph glyph-name="colon" unicode=":" horiz-adv-x="278" 
d="M173 287c-31 0 -57 25 -57 57c0 31 26 56 57 56s57 -25 57 -56c0 -32 -26 -57 -57 -57zM116 1c-31 0 -57 26 -57 57s26 57 57 57s57 -26 57 -57s-26 -57 -57 -57z" />
    <glyph glyph-name="semicolon" unicode=";" horiz-adv-x="293" 
d="M194 287c-31 0 -57 25 -57 57c0 31 26 56 57 56c32 0 57 -25 57 -56c0 -32 -25 -57 -57 -57zM24 -89c-2 10 9 17 9 17s40 24 46 53c3 18 -7 50 -7 50c-7 18 -4 41 12 60c22 24 48 25 67 10c16 -11 20 -36 17 -55c-12 -77 -102 -128 -129 -141c-13 -6 -15 6 -15 6z" />
    <glyph glyph-name="less" unicode="&#x3c;" horiz-adv-x="516" 
d="M562 507c-62 -81 -174 -124 -268 -155c-49 -16 -99 -30 -149 -41c104 -55 268 -160 249 -287c-3 -19 -73 -23 -72 -20c20 134 -162 240 -263 292c-10 5 45 23 50 24c115 32 297 75 392 184l3 3h58z" />
    <glyph glyph-name="greater" unicode="&#x3e;" horiz-adv-x="521" 
d="M508 322c10 -2 -21 -16 -22 -17c10 4 -314 -122 -376 -283c-6 -18 -72 -20 -70 -16c75 142 240 234 388 295c-95 25 -228 86 -211 200c1 3 2 5 4 6h67c-4 -108 130 -163 220 -185z" />
    <glyph glyph-name="underscore" unicode="_" horiz-adv-x="585" 
d="M523 -9l-17 -53h-411l17 53h411z" />
    <glyph glyph-name="macron" unicode="&#xaf;" horiz-adv-x="639" 
d="M278 628c0 11 18 9 18 9s118 -10 164 15c15 8 41 31 41 31c14 15 33 24 50 19c22 -5 28 -31 12 -56c-10 -15 -26 -26 -42 -33c-63 -27 -243 -12 -243 15z" />
    <glyph glyph-name="grave" unicode="`" horiz-adv-x="624" 
d="M508 803v-3c0 -9 -10 -15 -10 -15c-2 0 -46 -28 -46 -62c0 -45 11 -42 11 -59c0 -32 -29 -62 -55 -62c-29 0 -46 24 -46 54c0 97 137 154 137 154c7 0 9 -7 9 -7z" />
    <glyph glyph-name="copyright" unicode="&#xa9;" 
d="M375 367c7 -4 14 -4 18 -4c44 0 82 53 82 70c0 2 -1 3 -2 3c-3 0 -5 -4 -5 -4c-14 -25 -33 -47 -58 -47c-24 0 -37 18 -37 42c0 5 1 10 2 16c6 28 38 98 81 98c11 0 13 -5 13 -7c0 -7 -22 -3 -22 -23c0 -6 6 -19 24 -19c11 0 23 6 24 29c-1 8 -7 29 -40 32
c-54 0 -114 -71 -114 -131c0 -23 10 -44 34 -55zM472 620c62 0 115 -42 115 -109c0 -111 -120 -212 -224 -212c-71 0 -116 47 -116 110c0 105 117 211 225 211zM363 321c93 2 202 89 202 190c0 50 -34 87 -93 87c-94 0 -203 -96 -203 -189c2 -54 35 -86 94 -88z" />
    <glyph glyph-name="cedilla" unicode="&#xb8;" horiz-adv-x="447" 
d="M385 -12c-5 -13 -6 -29 -6 -45c0 -18 1 -36 1 -54c0 -64 -29 -115 -100 -115c-34 0 -83 22 -83 81c0 13 4 26 18 35l11 -11c-8 -4 -10 -10 -10 -16c0 -27 31 -39 50 -39c87 0 80 110 102 164h17z" />
    <glyph glyph-name="ccedilla" unicode="&#xe7;" horiz-adv-x="428" 
d="M360 449c10 8 6 18 -2 24c-6 5 -35 14 -75 -5c-96 -50 -158 -183 -175 -259c-16 -75 9 -140 72 -154c79 -18 142 47 182 124c0 0 6 15 16 12c10 -4 -1 -29 -1 -29c-21 -58 -110 -163 -207 -170c-22 -49 16 -141 -32 -190h-1c-48 -44 -117 -36 -144 12c-4 7 -28 53 6 76
l11 -11c-15 -8 -10 -24 -5 -32c23 -34 72 -25 96 -3c36 40 32 103 52 148c-14 1 -29 4 -43 10c-195 82 -51 399 119 484c29 16 66 25 99 23c89 -7 107 -65 108 -86c-1 -88 -66 -86 -95 -74c-60 32 -27 82 -6 89c13 4 21 7 25 11z" />
    <glyph glyph-name="circumflex" unicode="&#x2c6;" 
d="M446 609h-53l165 156c7 7 45 23 66 23c6 0 11 -2 13 -5l105 -174h-83c-25 38 -49 76 -75 114c-48 -39 -91 -76 -138 -114z" />
    <glyph glyph-name="tilde" unicode="&#x2dc;" 
d="M407 656c-16 0 -52 -27 -53 -32c-13 -13 -28 -21 -43 -21c-19 0 -29 14 -29 29c0 47 62 70 91 70c70 0 76 -53 115 -53c17 0 52 30 54 34c12 12 27 20 41 20c20 0 30 -13 30 -29c0 -44 -57 -70 -90 -70c-54 0 -77 52 -116 52z" />
    <glyph glyph-name="dong" unicode="&#x20ab;" horiz-adv-x="639" 
d="M146 -89c0 26 180 42 244 14c16 -7 32 -17 42 -33c15 -25 10 -50 -13 -56c-16 -4 -35 5 -50 20c0 0 -26 22 -40 30c-47 26 -164 15 -164 15s-19 -1 -19 10zM1179 1172c59 -25 13 -75 -20 -61c-163 71 -289 0 -437 -266c-69 -125 -115 -238 -143 -318c-1 -3 -3 -6 -4 -10
h98c10 0 18 -8 18 -17c0 -10 -8 -18 -18 -18h-111c-13 -40 -34 -106 -61 -209c-8 -29 -69 -224 -6 -228c41 -2 56 38 74 69c0 0 6 11 16 6c7 -3 7 -10 5 -15c-17 -52 -70 -112 -133 -112c-99 0 -79 110 -59 176h-3c-27 -70 -152 -211 -253 -160c-221 111 82 557 254 502
c30 -10 73 -40 70 -122c8 32 17 64 27 93h-5c-9 0 -17 8 -17 18c0 9 8 17 17 17h16c39 114 85 207 132 293c77 140 167 226 207 261c122 109 273 127 336 101zM438 358c4 69 -12 112 -50 117c-89 14 -195 -166 -216 -255c-16 -70 -19 -144 37 -158c123 -32 223 193 229 296z
" />
    <glyph glyph-name="dcroat" unicode="&#x111;" horiz-adv-x="568" 
d="M1143 1172c59 -25 13 -75 -20 -61c-163 71 -289 0 -437 -266c-69 -125 -115 -238 -143 -318c-1 -3 -2 -6 -4 -10h98c10 0 18 -8 18 -17c0 -10 -8 -18 -18 -18h-111c-13 -40 -34 -106 -61 -209c-8 -29 -69 -224 -6 -228c41 -2 56 38 74 69c0 0 6 11 16 6c7 -3 7 -10 5 -15
c-17 -52 -70 -112 -133 -112c-99 0 -79 110 -59 176h-3c-27 -70 -152 -211 -253 -160c-221 111 82 557 254 502c30 -10 73 -40 70 -122c8 32 17 64 27 93h-5c-9 0 -17 8 -17 18c0 9 8 17 17 17h16c39 114 85 207 132 293c77 140 167 226 207 261c122 109 273 127 336 101z
M402 358c4 69 -12 112 -50 117c-89 14 -195 -166 -216 -255c-16 -70 -19 -144 37 -158c123 -32 223 193 229 296z" />
    <glyph glyph-name="acute" unicode="&#xb4;" horiz-adv-x="353" 
d="M187 607c0 0 0 5 0 4c0 0 53 37 61 66c4 18 -3 50 -3 50c-6 18 0 42 18 60c23 25 49 25 67 11c15 -12 18 -37 13 -56c-19 -76 -113 -127 -141 -140c-13 -6 -15 5 -15 5z" />
    <glyph glyph-name="multiply" unicode="&#xd7;" horiz-adv-x="594" 
d="M102 155l181 140l-98 139h57l78 -110l142 110h71l-188 -146l95 -133h-58l-74 105l-135 -105h-71z" />
    <glyph glyph-name="equal" unicode="=" horiz-adv-x="653" 
d="M522 206l-16 -53h-411l16 53h411zM588 443l-16 -52h-411l16 52h411z" />
    <glyph glyph-name="divide" unicode="&#xf7;" horiz-adv-x="641" 
d="M349 391c-23 0 -42 20 -42 43s19 42 42 42c24 0 43 -19 43 -42s-19 -43 -43 -43zM294 123c-23 0 -43 19 -43 42c0 24 20 43 43 43s43 -19 43 -43c0 -23 -20 -42 -43 -42zM520 330l-15 -53h-374l15 53h374z" />
    <glyph glyph-name="minus" unicode="&#x2212;" 
d="M696 330l-16 -53h-411l16 53h411z" />
    <glyph glyph-name="Thorn" unicode="&#xde;" horiz-adv-x="1306" 
d="M1144 1179c304 -25 401 -175 401 -315c0 -25 -2 -51 -9 -75c-61 -221 -269 -354 -462 -367c-83 1 -133 22 -133 63c0 25 34 43 42 43c1 0 2 -1 2 -2c0 -3 -8 -13 -8 -20c0 -28 44 -53 107 -53c216 0 374 237 374 420c0 130 -82 261 -300 261c-15 0 -30 -7 -34 -18
c-6 -18 -66 -216 -238 -719c-134 -393 -341 -459 -482 -459c-125 0 -381 68 -381 318c0 133 83 246 192 311c20 292 359 616 837 616c5 0 10 -1 15 -1c84 189 250 252 366 252c65 0 103 -20 103 -44c0 -17 -16 -33 -33 -33c-4 0 -9 1 -13 4c-39 22 -76 31 -108 31
c-132 0 -195 -102 -238 -213zM816 413c100 302 220 646 220 696c0 14 -6 26 -24 27c-502 -20 -705 -312 -725 -534c43 15 88 24 131 24c132 0 208 -73 208 -161c0 -121 -123 -184 -198 -184c-138 0 -210 117 -214 251c-85 -63 -122 -133 -122 -248c0 -109 45 -249 226 -296
c31 -8 61 -13 91 -13c171 0 310 145 407 438zM286 571c0 -152 87 -231 176 -231c64 0 122 54 122 119c0 40 -43 131 -194 131c-37 0 -72 -7 -104 -19z" />
    <glyph glyph-name="thorn" unicode="&#xfe;" horiz-adv-x="522" 
d="M141 384c50 176 102 311 161 427c70 139 158 223 196 259c88 82 193 113 267 113c62 0 95 -22 95 -44c0 -16 -17 -32 -35 -32c-4 0 -8 1 -12 3c-40 18 -78 27 -114 27c-112 0 -209 -90 -313 -291c-77 -148 -135 -305 -178 -472h3c77 116 171 135 216 135
c18 0 97 -6 97 -125c0 -38 -9 -89 -32 -153c-53 -150 -163 -236 -269 -236c-57 0 -103 28 -103 100h-2c-48 -143 -91 -269 -91 -269c0 -8 -95 -296 -308 -296c0 0 -125 11 -125 63c0 7 3 39 35 39c8 0 16 -3 26 -11c37 -30 30 -57 109 -62c24 1 116 11 212 308
c40 126 123 386 165 517zM400 461c0 0 -9 3 -23 3c-34 0 -103 -19 -170 -152c-23 -46 -56 -138 -56 -205c0 -55 27 -87 66 -87c60 0 137 79 186 211c22 61 33 113 33 152c0 44 -13 72 -36 78z" />
    <glyph glyph-name="mu" unicode="&#xb5;" horiz-adv-x="599" 
d="M588 506c2 -2 3 -4 3 -6c0 -1 -1 -3 -3 -4c-30 -16 -50 -73 -50 -73l-69 -211c-17 -51 -27 -96 -27 -126c0 -23 6 -40 21 -40c42 0 57 37 77 69c0 0 5 7 11 7c7 0 11 -6 11 -10c0 -2 0 -4 -1 -6c-20 -52 -75 -112 -138 -112c-45 0 -60 34 -60 77c0 20 3 42 8 63h-3
c-41 -52 -121 -139 -199 -139c-18 0 -35 4 -51 14c-38 -102 -67 -180 -67 -180s-103 -296 -309 -296c-29 0 -132 17 -132 62c0 24 16 39 35 39c9 0 18 -3 27 -10c36 -30 27 -57 106 -62c24 1 116 11 223 308c24 66 165 451 185 500c10 25 22 53 22 73c0 14 -6 24 -23 24
c-34 0 -80 -63 -80 -63s-4 -7 -11 -7c-6 0 -10 5 -10 9s2 8 2 8s69 104 132 104c37 0 62 -34 62 -74c0 -66 -63 -197 -101 -297c0 0 -15 -34 -15 -63c0 -21 8 -41 36 -41c59 0 173 111 201 201l63 180c31 89 79 83 111 85c2 0 9 0 13 -3z" />
    <glyph glyph-name="mu" unicode="&#x3bc;" horiz-adv-x="599" 
d="M588 506c2 -2 3 -4 3 -6c0 -1 -1 -3 -3 -4c-30 -16 -50 -73 -50 -73l-69 -211c-17 -51 -27 -96 -27 -126c0 -23 6 -40 21 -40c42 0 57 37 77 69c0 0 5 7 11 7c7 0 11 -6 11 -10c0 -2 0 -4 -1 -6c-20 -52 -75 -112 -138 -112c-45 0 -60 34 -60 77c0 20 3 42 8 63h-3
c-41 -52 -121 -139 -199 -139c-18 0 -35 4 -51 14c-38 -102 -67 -180 -67 -180s-103 -296 -309 -296c-29 0 -132 17 -132 62c0 24 16 39 35 39c9 0 18 -3 27 -10c36 -30 27 -57 106 -62c24 1 116 11 223 308c24 66 165 451 185 500c10 25 22 53 22 73c0 14 -6 24 -23 24
c-34 0 -80 -63 -80 -63s-4 -7 -11 -7c-6 0 -10 5 -10 9s2 8 2 8s69 104 132 104c37 0 62 -34 62 -74c0 -66 -63 -197 -101 -297c0 0 -15 -34 -15 -63c0 -21 8 -41 36 -41c59 0 173 111 201 201l63 180c31 89 79 83 111 85c2 0 9 0 13 -3z" />
    <glyph glyph-name="eacute" unicode="&#xe9;" horiz-adv-x="429" 
d="M349 511c81 -7 138 -68 92 -149c-63 -105 -219 -167 -335 -216c2 -44 20 -80 61 -90c78 -18 157 47 203 124c0 0 7 15 17 12c9 -4 -4 -29 -4 -29c-29 -70 -177 -211 -288 -160c-181 84 -13 400 154 485c30 17 75 24 100 23zM381 372c30 72 2 135 -80 102
c-100 -49 -170 -186 -188 -260c-3 -13 -5 -27 -6 -40c51 21 104 44 151 73c96 60 123 125 123 125zM284 607c0 0 0 5 0 4c0 0 53 37 61 66c4 18 -3 50 -3 50c-6 18 0 42 18 60c23 25 49 25 67 11c15 -12 18 -37 13 -56c-19 -76 -113 -127 -141 -140c-13 -6 -15 5 -15 5z" />
    <glyph glyph-name="iacute" unicode="&#xed;" horiz-adv-x="278" 
d="M81 447c-23 -15 -31 -4 -31 -3c0 0 -9 9 21 32c33 26 70 42 111 33c88 -21 60 -106 35 -169c-29 -69 -82 -225 -82 -225s-29 -65 28 -68c40 -2 58 38 77 68c0 0 7 10 16 6c7 -3 7 -10 5 -15c-25 -63 -96 -127 -169 -111c-77 19 -42 111 -25 150c18 41 82 220 82 220
s42 101 -6 105c-18 1 -42 -11 -62 -23zM208 607c0 0 0 5 0 4c0 0 53 37 61 66c4 18 -3 50 -3 50c-6 18 0 42 18 60c23 25 49 25 67 11c15 -12 18 -37 13 -56c-19 -76 -113 -127 -141 -140c-13 -6 -15 5 -15 5z" />
    <glyph glyph-name="oacute" unicode="&#xf3;" horiz-adv-x="484" 
d="M332 512c8 0 16 -1 24 -2c0 0 121 -15 121 -160c0 -38 -9 -87 -31 -146c-9 -33 -100 -215 -259 -215c-112 0 -153 86 -153 178c0 38 8 76 20 108c-1 -1 50 124 74 124c0 -9 10 -44 32 -61c0 0 7 -4 7 -13c0 -2 -1 -4 -2 -7c-40 -89 -55 -154 -55 -200
c0 -71 34 -99 70 -99c102 0 161 149 194 244c10 29 26 84 26 131c0 50 -17 92 -75 92c-21 0 -70 -15 -70 -48c0 -15 8 -22 8 -38c0 -31 -25 -56 -56 -56s-56 25 -56 56c0 58 109 112 181 112zM311 607c0 0 0 5 0 4c0 0 53 37 61 66c4 18 -3 50 -3 50c-6 18 0 42 18 60
c23 25 49 25 67 11c15 -12 18 -37 13 -56c-19 -76 -113 -127 -141 -140c-13 -6 -15 5 -15 5z" />
    <glyph glyph-name="uacute" unicode="&#xfa;" horiz-adv-x="514" 
d="M524 505c2 -2 3 -4 3 -6c0 -1 -1 -3 -3 -4c-30 -16 -50 -73 -50 -73l-69 -210c-17 -51 -27 -96 -27 -126c0 -23 6 -40 21 -40c42 0 57 37 77 69c0 0 5 7 11 7c7 0 11 -6 11 -10c0 -2 0 -4 -1 -6c-20 -52 -75 -112 -138 -112c-45 0 -60 34 -60 77c0 20 3 42 8 63h-3
c-36 -47 -115 -138 -199 -138c-64 0 -83 40 -83 79c0 86 122 303 122 367c0 14 -6 24 -22 24c-34 0 -80 -63 -80 -63s-4 -7 -11 -7c-6 0 -10 5 -10 9s2 8 2 8s69 104 131 104c3 0 6 -1 9 -1c0 0 53 -5 53 -73c0 -65 -62 -197 -100 -296c0 0 -15 -34 -15 -63
c0 -21 8 -41 35 -41c59 0 173 111 201 201l63 179c31 88 79 83 111 85c2 0 9 0 13 -3zM326 607c0 0 0 5 0 4c0 0 53 37 61 66c4 18 -3 50 -3 50c-6 18 0 42 18 60c23 25 49 25 67 11c15 -12 18 -37 13 -56c-19 -76 -113 -127 -141 -140c-13 -6 -15 5 -15 5z" />
    <glyph glyph-name="yacute" unicode="&#xfd;" horiz-adv-x="522" 
d="M188 512c45 0 59 -34 59 -74c0 -88 -58 -198 -96 -294c-5 -13 -14 -38 -14 -62c0 -23 8 -43 34 -43c60 0 135 85 166 133c39 62 61 139 84 213c32 90 67 111 113 115c0 0 16 -1 16 -6c0 -1 0 -3 -2 -4c-27 -24 -44 -73 -44 -73l-136 -410c-61 -216 -214 -486 -484 -486
c-105 0 -233 64 -233 184c0 172 245 229 310 229c15 0 37 -3 37 -20c0 -16 -12 -24 -22 -24c-17 0 -37 13 -65 13c-97 0 -182 -95 -182 -192c0 -102 86 -158 195 -158c258 0 368 438 416 577c-45 -51 -116 -138 -195 -138c-68 0 -88 43 -88 81c0 83 121 297 121 363
c0 14 -5 24 -18 26c-44 0 -75 -70 -95 -70c-7 0 -9 5 -9 8c0 4 2 8 2 8s69 104 130 104zM330 607c0 0 0 5 0 4c0 0 53 37 61 66c4 18 -3 50 -3 50c-6 18 0 42 18 60c23 25 49 25 67 11c15 -12 18 -37 13 -56c-19 -76 -113 -127 -141 -140c-13 -6 -15 5 -15 5z" />
    <glyph glyph-name="cacute" unicode="&#x107;" horiz-adv-x="428" 
d="M341 439c26 8 31 14 31 22c0 7 -5 19 -36 19c-12 0 -29 -2 -47 -11c-120 -62 -180 -243 -180 -302c0 -65 36 -114 103 -114s120 59 156 127c0 0 5 12 13 12c5 0 7 -4 7 -9c0 -49 -110 -190 -222 -190c-101 0 -144 87 -144 157c0 159 159 360 303 360
c96 0 117 -67 117 -86c0 -63 -35 -80 -64 -80c-49 0 -65 35 -65 52c0 21 16 39 28 43zM278 607c0 0 0 5 0 4c0 0 53 37 61 66c4 18 -3 50 -3 50c-6 18 0 42 18 60c23 25 49 25 67 11c15 -12 18 -37 13 -56c-19 -76 -113 -127 -141 -140c-13 -6 -15 5 -15 5z" />
    <glyph glyph-name="racute" unicode="&#x155;" horiz-adv-x="459" 
d="M183 512c67 -2 58 -92 44 -143h2c35 46 98 138 177 138c44 0 91 -29 91 -80c0 -81 -66 -83 -73 -83c-28 0 -56 19 -56 52c0 23 17 43 40 50c9 3 24 3 24 17c0 12 -17 20 -29 20c-70 0 -174 -132 -216 -254c-43 -124 -72 -203 -72 -203s-2 -9 -13 -13
c-10 -4 -69 -18 -69 -18s-8 1 -6 9c3 7 138 373 138 373s26 83 -8 85c-36 2 -63 -38 -82 -64c-3 -5 -12 -8 -17 -5c-8 5 -2 15 -2 15s66 106 127 104zM273 607c0 0 0 5 0 4c0 0 53 37 61 66c4 18 -3 50 -3 50c-6 18 0 42 18 60c23 25 49 25 67 11c15 -12 18 -37 13 -56
c-19 -76 -113 -127 -141 -140c-13 -6 -15 5 -15 5z" />
    <glyph glyph-name="nacute" unicode="&#x144;" horiz-adv-x="527" 
d="M349 -6c-33 9 -44 37 -44 71c0 55 30 124 38 146c44 118 74 152 74 208c0 22 -8 42 -39 42c-68 0 -150 -106 -195 -227c-47 -126 -81 -211 -81 -211s-2 -9 -12 -13c-11 -4 -69 -18 -69 -18c-1 0 -7 1 -7 8c3 8 146 378 146 378s11 29 11 54c0 16 -6 31 -23 31
c-34 0 -79 -64 -79 -64s-4 -7 -11 -7c-6 0 -10 5 -10 9s2 8 2 8s66 105 128 105c43 0 62 -30 62 -69c0 -19 -5 -44 -18 -75h3c34 45 97 139 177 139c68 0 88 -46 88 -84c0 -50 -87 -272 -102 -310c0 0 -7 -17 -7 -34s6 -33 32 -35c51 0 63 76 87 76c7 0 10 -7 10 -11
c0 -2 0 -4 -1 -6c-16 -46 -66 -114 -136 -114c-8 0 -16 1 -24 3zM313 607c0 0 0 5 0 4c0 0 53 37 61 66c4 18 -3 50 -3 50c-6 18 0 42 18 60c23 25 49 25 67 11c15 -12 18 -37 13 -56c-19 -76 -113 -127 -141 -140c-13 -6 -15 5 -15 5z" />
    <glyph glyph-name="sacute" unicode="&#x15b;" horiz-adv-x="404" 
d="M317 512c20 0 116 -4 116 -86c0 -33 -21 -76 -61 -76c-25 0 -49 23 -49 51c0 37 37 43 37 60c0 20 -35 27 -56 27c-47 0 -107 -25 -107 -76c0 -106 166 -149 166 -269c0 -34 -18 -151 -182 -151c-76 0 -162 22 -162 105c0 57 33 78 63 78c26 -2 47 -25 47 -52
c0 -31 -31 -37 -31 -59c0 -29 42 -45 69 -45c39 0 118 15 118 103c0 83 -169 149 -169 247c0 11 1 22 6 33c41 104 138 110 195 110zM265 607c0 0 0 5 0 4c0 0 53 37 61 66c4 18 -3 50 -3 50c-6 18 0 42 18 60c23 25 49 25 67 11c15 -12 18 -37 13 -56
c-19 -76 -113 -127 -141 -140c-13 -6 -15 5 -15 5z" />
    <glyph glyph-name="atilde" unicode="&#xe3;" horiz-adv-x="550" 
d="M321 208c-15 -49 -24 -92 -24 -122c0 -25 7 -43 23 -43c41 0 55 37 74 68c0 0 5 8 12 8s10 -7 10 -11c0 -2 0 -4 -1 -6c-18 -51 -71 -112 -134 -112c-54 0 -69 32 -69 72c0 34 11 73 21 104h-2c-25 -60 -121 -170 -210 -170c-81 0 -117 74 -117 135
c0 156 174 381 303 381c28 0 98 -13 98 -127c33 91 67 112 114 116c0 0 16 -1 16 -6c0 -1 0 -3 -2 -4c-30 -24 -57 -110 -112 -283zM279 354c0 9 1 17 1 25c0 61 -21 93 -62 93c-93 0 -194 -169 -215 -255c-6 -24 -10 -49 -10 -72c0 -51 19 -89 73 -89
c112 0 204 202 213 298zM344 656c-16 0 -52 -27 -53 -32c-13 -13 -28 -21 -43 -21c-19 0 -29 14 -29 29c0 47 62 70 91 70c70 0 76 -53 115 -53c17 0 52 30 54 34c12 12 27 20 41 20c20 0 30 -13 30 -29c0 -44 -57 -70 -90 -70c-54 0 -77 52 -116 52z" />
    <glyph glyph-name="egrave" unicode="&#xe8;" horiz-adv-x="429" 
d="M349 511c81 -7 138 -68 92 -149c-63 -105 -219 -167 -335 -216c2 -44 20 -80 61 -90c78 -18 157 47 203 124c0 0 7 15 17 12c9 -4 -4 -29 -4 -29c-29 -70 -177 -211 -288 -160c-181 84 -13 400 154 485c30 17 75 24 100 23zM381 372c30 72 2 135 -80 102
c-100 -49 -170 -186 -188 -260c-3 -13 -5 -27 -6 -40c51 21 104 44 151 73c96 60 123 125 123 125zM412 803v-3c0 -9 -10 -15 -10 -15c-2 0 -46 -28 -46 -62c0 -45 11 -42 11 -59c0 -32 -29 -62 -55 -62c-29 0 -46 24 -46 54c0 97 137 154 137 154c7 0 9 -7 9 -7z" />
    <glyph glyph-name="ecircumflex" unicode="&#xea;" horiz-adv-x="429" 
d="M349 511c81 -7 138 -68 92 -149c-63 -105 -219 -167 -335 -216c2 -44 20 -80 61 -90c78 -18 157 47 203 124c0 0 7 15 17 12c9 -4 -4 -29 -4 -29c-29 -70 -177 -211 -288 -160c-181 84 -13 400 154 485c30 17 75 24 100 23zM381 372c30 72 2 135 -80 102
c-100 -49 -170 -186 -188 -260c-3 -13 -5 -27 -6 -40c51 21 104 44 151 73c96 60 123 125 123 125zM194 609h-53l165 156c7 7 45 23 66 23c6 0 11 -2 13 -5l105 -174h-83c-25 38 -49 76 -75 114c-48 -39 -91 -76 -138 -114z" />
    <glyph glyph-name="igrave" unicode="&#xec;" horiz-adv-x="278" 
d="M81 447c-23 -15 -31 -4 -31 -3c0 0 -9 9 21 32c33 26 70 42 111 33c88 -21 60 -106 35 -169c-29 -69 -82 -225 -82 -225s-29 -65 28 -68c40 -2 58 38 77 68c0 0 7 10 16 6c7 -3 7 -10 5 -15c-25 -63 -96 -127 -169 -111c-77 19 -42 111 -25 150c18 41 82 220 82 220
s42 101 -6 105c-18 1 -42 -11 -62 -23zM274 803v-3c0 -9 -10 -15 -10 -15c-2 0 -46 -28 -46 -62c0 -45 11 -42 11 -59c0 -32 -29 -62 -55 -62c-29 0 -46 24 -46 54c0 97 137 154 137 154c7 0 9 -7 9 -7z" />
    <glyph glyph-name="icircumflex" unicode="&#xee;" horiz-adv-x="278" 
d="M81 447c-23 -15 -31 -4 -31 -3c0 0 -9 9 21 32c33 26 70 42 111 33c88 -21 60 -106 35 -169c-29 -69 -82 -225 -82 -225s-29 -65 28 -68c40 -2 58 38 77 68c0 0 7 10 16 6c7 -3 7 -10 5 -15c-25 -63 -96 -127 -169 -111c-77 19 -42 111 -25 150c18 41 82 220 82 220
s42 101 -6 105c-18 1 -42 -11 -62 -23zM57 609h-53l165 156c7 7 45 23 66 23c6 0 11 -2 13 -5l105 -174h-83c-25 38 -49 76 -75 114c-48 -39 -91 -76 -138 -114z" />
    <glyph glyph-name="gbreve" unicode="&#x11f;" horiz-adv-x="494" 
d="M181 -7c3 -3 5 -7 5 -13c0 -18 -22 -49 -93 -61c-92 -16 -275 -35 -275 -186c0 -153 155 -166 154 -166c0 0 12 -2 31 -2c48 0 144 15 192 124c58 132 90 246 90 246s55 178 69 232h-2c-27 -67 -117 -170 -206 -170c-88 0 -125 79 -125 141c0 155 171 373 298 373
c23 0 101 -11 101 -117v-8c31 90 65 111 111 115c0 0 16 0 16 -6c0 -1 0 -2 -2 -4c-26 -24 -42 -72 -42 -72c-67 -212 -66 -217 -200 -639c0 0 -75 -246 -296 -246c-23 0 -48 3 -74 9c-141 32 -194 110 -194 186c0 84 64 166 145 182c145 28 222 1 297 82zM393 355v15
c0 43 -9 102 -65 102c-88 -3 -176 -155 -202 -242c-6 -20 -11 -48 -11 -76c0 -51 16 -97 76 -97c111 0 196 202 202 298zM471 715h63c-34 -65 -111 -110 -184 -110s-113 38 -91 109v1h67c-5 -32 4 -84 44 -84c52 0 84 43 101 83v1z" />
    <glyph glyph-name="ntilde" unicode="&#xf1;" horiz-adv-x="527" 
d="M349 -6c-33 9 -44 37 -44 71c0 55 30 124 38 146c44 118 74 152 74 208c0 22 -8 42 -39 42c-68 0 -150 -106 -195 -227c-47 -126 -81 -211 -81 -211s-2 -9 -12 -13c-11 -4 -69 -18 -69 -18c-1 0 -7 1 -7 8c3 8 146 378 146 378s11 29 11 54c0 16 -6 31 -23 31
c-34 0 -79 -64 -79 -64s-4 -7 -11 -7c-6 0 -10 5 -10 9s2 8 2 8s66 105 128 105c43 0 62 -30 62 -69c0 -19 -5 -44 -18 -75h3c34 45 97 139 177 139c68 0 88 -46 88 -84c0 -50 -87 -272 -102 -310c0 0 -7 -17 -7 -34s6 -33 32 -35c51 0 63 76 87 76c7 0 10 -7 10 -11
c0 -2 0 -4 -1 -6c-16 -46 -66 -114 -136 -114c-8 0 -16 1 -24 3zM329 651c-16 0 -52 -27 -53 -32c-13 -13 -28 -21 -43 -21c-19 0 -29 14 -29 29c0 47 62 70 91 70c70 0 76 -53 115 -53c17 0 52 30 54 34c12 12 27 20 41 20c20 0 30 -13 30 -29c0 -44 -57 -70 -90 -70
c-54 0 -77 52 -116 52z" />
    <glyph glyph-name="ograve" unicode="&#xf2;" horiz-adv-x="484" 
d="M332 512c8 0 16 -1 24 -2c0 0 121 -15 121 -160c0 -38 -9 -87 -31 -146c-9 -33 -100 -215 -259 -215c-112 0 -153 86 -153 178c0 38 8 76 20 108c-1 -1 50 124 74 124c0 -9 10 -44 32 -61c0 0 7 -4 7 -13c0 -2 -1 -4 -2 -7c-40 -89 -55 -154 -55 -200
c0 -71 34 -99 70 -99c102 0 161 149 194 244c10 29 26 84 26 131c0 50 -17 92 -75 92c-21 0 -70 -15 -70 -48c0 -15 8 -22 8 -38c0 -31 -25 -56 -56 -56s-56 25 -56 56c0 58 109 112 181 112zM442 803v-3c0 -9 -10 -15 -10 -15c-2 0 -46 -28 -46 -62c0 -45 11 -42 11 -59
c0 -32 -29 -62 -55 -62c-29 0 -46 24 -46 54c0 97 137 154 137 154c7 0 9 -7 9 -7z" />
    <glyph glyph-name="ocircumflex" unicode="&#xf4;" horiz-adv-x="484" 
d="M332 512c8 0 16 -1 24 -2c0 0 121 -15 121 -160c0 -38 -9 -87 -31 -146c-9 -33 -100 -215 -259 -215c-112 0 -153 86 -153 178c0 38 8 76 20 108c-1 -1 50 124 74 124c0 -9 10 -44 32 -61c0 0 7 -4 7 -13c0 -2 -1 -4 -2 -7c-40 -89 -55 -154 -55 -200
c0 -71 34 -99 70 -99c102 0 161 149 194 244c10 29 26 84 26 131c0 50 -17 92 -75 92c-21 0 -70 -15 -70 -48c0 -15 8 -22 8 -38c0 -31 -25 -56 -56 -56s-56 25 -56 56c0 58 109 112 181 112zM195 609h-53l165 156c7 7 45 23 66 23c6 0 11 -2 13 -5l105 -174h-83
c-25 38 -49 76 -75 114c-48 -39 -91 -76 -138 -114z" />
    <glyph glyph-name="otilde" unicode="&#xf5;" horiz-adv-x="484" 
d="M332 512c8 0 16 -1 24 -2c0 0 121 -15 121 -160c0 -38 -9 -87 -31 -146c-9 -33 -100 -215 -259 -215c-112 0 -153 86 -153 178c0 38 8 76 20 108c-1 -1 50 124 74 124c0 -9 10 -44 32 -61c0 0 7 -4 7 -13c0 -2 -1 -4 -2 -7c-40 -89 -55 -154 -55 -200
c0 -71 34 -99 70 -99c102 0 161 149 194 244c10 29 26 84 26 131c0 50 -17 92 -75 92c-21 0 -70 -15 -70 -48c0 -15 8 -22 8 -38c0 -31 -25 -56 -56 -56s-56 25 -56 56c0 58 109 112 181 112zM290 656c-16 0 -52 -27 -53 -32c-13 -13 -28 -21 -43 -21c-19 0 -29 14 -29 29
c0 47 62 70 91 70c70 0 76 -53 115 -53c17 0 52 30 54 34c12 12 27 20 41 20c20 0 30 -13 30 -29c0 -44 -57 -70 -90 -70c-54 0 -77 52 -116 52z" />
    <glyph glyph-name="ugrave" unicode="&#xf9;" horiz-adv-x="514" 
d="M524 505c2 -2 3 -4 3 -6c0 -1 -1 -3 -3 -4c-30 -16 -50 -73 -50 -73l-69 -210c-17 -51 -27 -96 -27 -126c0 -23 6 -40 21 -40c42 0 57 37 77 69c0 0 5 7 11 7c7 0 11 -6 11 -10c0 -2 0 -4 -1 -6c-20 -52 -75 -112 -138 -112c-45 0 -60 34 -60 77c0 20 3 42 8 63h-3
c-36 -47 -115 -138 -199 -138c-64 0 -83 40 -83 79c0 86 122 303 122 367c0 14 -6 24 -22 24c-34 0 -80 -63 -80 -63s-4 -7 -11 -7c-6 0 -10 5 -10 9s2 8 2 8s69 104 131 104c3 0 6 -1 9 -1c0 0 53 -5 53 -73c0 -65 -62 -197 -100 -296c0 0 -15 -34 -15 -63
c0 -21 8 -41 35 -41c59 0 173 111 201 201l63 179c31 88 79 83 111 85c2 0 9 0 13 -3zM412 803v-3c0 -9 -10 -15 -10 -15c-2 0 -46 -28 -46 -62c0 -45 11 -42 11 -59c0 -32 -29 -62 -55 -62c-29 0 -46 24 -46 54c0 97 137 154 137 154c7 0 9 -7 9 -7z" />
    <glyph glyph-name="ucircumflex" unicode="&#xfb;" horiz-adv-x="514" 
d="M524 505c2 -2 3 -4 3 -6c0 -1 -1 -3 -3 -4c-30 -16 -50 -73 -50 -73l-69 -210c-17 -51 -27 -96 -27 -126c0 -23 6 -40 21 -40c42 0 57 37 77 69c0 0 5 7 11 7c7 0 11 -6 11 -10c0 -2 0 -4 -1 -6c-20 -52 -75 -112 -138 -112c-45 0 -60 34 -60 77c0 20 3 42 8 63h-3
c-36 -47 -115 -138 -199 -138c-64 0 -83 40 -83 79c0 86 122 303 122 367c0 14 -6 24 -22 24c-34 0 -80 -63 -80 -63s-4 -7 -11 -7c-6 0 -10 5 -10 9s2 8 2 8s69 104 131 104c3 0 6 -1 9 -1c0 0 53 -5 53 -73c0 -65 -62 -197 -100 -296c0 0 -15 -34 -15 -63
c0 -21 8 -41 35 -41c59 0 173 111 201 201l63 179c31 88 79 83 111 85c2 0 9 0 13 -3zM210 609h-53l165 156c7 7 45 23 66 23c6 0 11 -2 13 -5l105 -174h-83c-25 38 -49 76 -75 114c-48 -39 -91 -76 -138 -114z" />
    <glyph glyph-name="ccaron" unicode="&#x10d;" horiz-adv-x="428" 
d="M341 439c26 8 31 14 31 22c0 7 -5 19 -36 19c-12 0 -29 -2 -47 -11c-120 -62 -180 -243 -180 -302c0 -65 36 -114 103 -114s120 59 156 127c0 0 5 12 13 12c5 0 7 -4 7 -9c0 -49 -110 -190 -222 -190c-101 0 -144 87 -144 157c0 159 159 360 303 360
c96 0 117 -67 117 -86c0 -63 -35 -80 -64 -80c-49 0 -65 35 -65 52c0 21 16 39 28 43zM347 609h-67c-34 56 -67 113 -101 169h83c24 -38 48 -76 74 -114c48 40 92 76 138 114h53c-55 -52 -110 -104 -164 -156c-6 -4 -11 -9 -16 -13z" />
    <glyph glyph-name="eogonek" unicode="&#x119;" horiz-adv-x="429" 
d="M183 -221l3 -16c-6 -2 -39 -9 -51 -9c-63 0 -110 40 -110 89c0 60 25 100 89 139c7 5 14 8 22 11c-14 1 -28 4 -41 10c-181 84 -13 400 154 485c30 17 75 24 100 23c81 -7 138 -68 92 -149c-63 -105 -219 -167 -335 -216c2 -44 20 -80 61 -90c78 -18 157 47 203 124
c0 0 7 15 17 12c9 -4 -4 -29 -4 -29c-22 -53 -111 -146 -201 -166c0 -1 -1 -3 -4 -5c-44 -28 -87 -77 -87 -135c0 -46 38 -91 92 -78zM381 372c30 72 2 135 -80 102c-100 -49 -170 -186 -188 -260c-3 -13 -5 -27 -6 -40c51 21 104 44 151 73c96 60 123 125 123 125z" />
    <glyph glyph-name="ecaron" unicode="&#x11b;" horiz-adv-x="429" 
d="M349 511c81 -7 138 -68 92 -149c-63 -105 -219 -167 -335 -216c2 -44 20 -80 61 -90c78 -18 157 47 203 124c0 0 7 15 17 12c9 -4 -4 -29 -4 -29c-29 -70 -177 -211 -288 -160c-181 84 -13 400 154 485c30 17 75 24 100 23zM381 372c30 72 2 135 -80 102
c-100 -49 -170 -186 -188 -260c-3 -13 -5 -27 -6 -40c51 21 104 44 151 73c96 60 123 125 123 125zM320 609h-67c-34 56 -67 113 -101 169h83c24 -38 48 -76 74 -114c48 40 92 76 138 114h53c-55 -52 -110 -104 -164 -156c-6 -4 -11 -9 -16 -13z" />
    <glyph glyph-name="ncaron" unicode="&#x148;" horiz-adv-x="527" 
d="M349 -6c-33 9 -44 37 -44 71c0 55 30 124 38 146c44 118 74 152 74 208c0 22 -8 42 -39 42c-68 0 -150 -106 -195 -227c-47 -126 -81 -211 -81 -211s-2 -9 -12 -13c-11 -4 -69 -18 -69 -18c-1 0 -7 1 -7 8c3 8 146 378 146 378s11 29 11 54c0 16 -6 31 -23 31
c-34 0 -79 -64 -79 -64s-4 -7 -11 -7c-6 0 -10 5 -10 9s2 8 2 8s66 105 128 105c43 0 62 -30 62 -69c0 -19 -5 -44 -18 -75h3c34 45 97 139 177 139c68 0 88 -46 88 -84c0 -50 -87 -272 -102 -310c0 0 -7 -17 -7 -34s6 -33 32 -35c51 0 63 76 87 76c7 0 10 -7 10 -11
c0 -2 0 -4 -1 -6c-16 -46 -66 -114 -136 -114c-8 0 -16 1 -24 3zM361 609h-67c-34 56 -67 113 -101 169h83c24 -38 48 -76 74 -114c48 40 92 76 138 114h53c-55 -52 -110 -104 -164 -156c-6 -4 -11 -9 -16 -13z" />
    <glyph glyph-name="rcaron" unicode="&#x159;" horiz-adv-x="459" 
d="M183 512c67 -2 58 -92 44 -143h2c35 46 98 138 177 138c44 0 91 -29 91 -80c0 -81 -66 -83 -73 -83c-28 0 -56 19 -56 52c0 23 17 43 40 50c9 3 24 3 24 17c0 12 -17 20 -29 20c-70 0 -174 -132 -216 -254c-43 -124 -72 -203 -72 -203s-2 -9 -13 -13
c-10 -4 -69 -18 -69 -18s-8 1 -6 9c3 7 138 373 138 373s26 83 -8 85c-36 2 -63 -38 -82 -64c-3 -5 -12 -8 -17 -5c-8 5 -2 15 -2 15s66 106 127 104zM300 609h-67c-34 56 -67 113 -101 169h83c24 -38 48 -76 74 -114c48 40 92 76 138 114h53c-55 -52 -110 -104 -164 -156
c-6 -4 -11 -9 -16 -13z" />
    <glyph glyph-name="uring" unicode="&#x16f;" horiz-adv-x="514" 
d="M524 505c2 -2 3 -4 3 -6c0 -1 -1 -3 -3 -4c-30 -16 -50 -73 -50 -73l-69 -210c-17 -51 -27 -96 -27 -126c0 -23 6 -40 21 -40c42 0 57 37 77 69c0 0 5 7 11 7c7 0 11 -6 11 -10c0 -2 0 -4 -1 -6c-20 -52 -75 -112 -138 -112c-45 0 -60 34 -60 77c0 20 3 42 8 63h-3
c-36 -47 -115 -138 -199 -138c-64 0 -83 40 -83 79c0 86 122 303 122 367c0 14 -6 24 -22 24c-34 0 -80 -63 -80 -63s-4 -7 -11 -7c-6 0 -10 5 -10 9s2 8 2 8s69 104 131 104c3 0 6 -1 9 -1c0 0 53 -5 53 -73c0 -65 -62 -197 -100 -296c0 0 -15 -34 -15 -63
c0 -21 8 -41 35 -41c59 0 173 111 201 201l63 179c31 88 79 83 111 85c2 0 9 0 13 -3zM389 796c58 8 111 -30 85 -92c-27 -66 -96 -99 -163 -108c-63 -9 -104 29 -85 92c27 66 96 98 163 108zM403 688c9 29 6 69 -29 80c-36 11 -65 -35 -77 -64c-9 -29 -6 -70 29 -80
c34 -11 68 33 77 64z" />
    <glyph glyph-name="scaron" unicode="&#x161;" horiz-adv-x="404" 
d="M317 512c20 0 116 -4 116 -86c0 -33 -21 -76 -61 -76c-25 0 -49 23 -49 51c0 37 37 43 37 60c0 20 -35 27 -56 27c-47 0 -107 -25 -107 -76c0 -106 166 -149 166 -269c0 -34 -18 -151 -182 -151c-76 0 -162 22 -162 105c0 57 33 78 63 78c26 -2 47 -25 47 -52
c0 -31 -31 -37 -31 -59c0 -29 42 -45 69 -45c39 0 118 15 118 103c0 83 -169 149 -169 247c0 11 1 22 6 33c41 104 138 110 195 110zM355 609h-67c-34 56 -67 113 -101 169h83c24 -38 48 -76 74 -114c48 40 92 76 138 114h53c-55 -52 -110 -104 -164 -156
c-6 -4 -11 -9 -16 -13z" />
    <glyph glyph-name="zcaron" unicode="&#x17e;" horiz-adv-x="475" 
d="M248 514c66 0 104 -81 148 -81c35 0 56 69 91 69c5 0 29 0 29 -29c0 -59 -83 -79 -129 -121c-49 -44 -295 -274 -295 -274s57 27 110 27c32 0 63 -9 85 -37c43 -55 108 -178 108 -178s23 -58 64 -58c14 0 27 5 44 25c34 42 44 56 44 56c3 6 11 13 18 13c8 0 12 -6 12 -10
c0 -8 -7 -17 -7 -17s-74 -114 -157 -114c-41 0 -73 29 -98 64c-41 55 -79 219 -162 219c-27 0 -59 -17 -99 -60c0 0 -25 -27 -53 -27c-10 0 -30 5 -30 19c0 23 49 61 49 61s370 325 374 339c-17 3 -81 27 -146 27c-48 0 -98 -14 -128 -59c-4 -8 -12 -13 -20 -13
c-6 0 -8 2 -8 7c0 11 21 38 36 61c18 27 55 91 120 91zM369 609h-67c-34 56 -67 113 -101 169h83c24 -38 48 -76 74 -114c48 40 92 76 138 114h53c-55 -52 -110 -104 -164 -156c-6 -4 -11 -9 -16 -13z" />
    <glyph glyph-name="zacute" unicode="&#x17a;" horiz-adv-x="475" 
d="M248 514c66 0 104 -81 148 -81c35 0 56 69 91 69c5 0 29 0 29 -29c0 -59 -83 -79 -129 -121c-49 -44 -295 -274 -295 -274s57 27 110 27c32 0 63 -9 85 -37c43 -55 108 -178 108 -178s23 -58 64 -58c14 0 27 5 44 25c34 42 44 56 44 56c3 6 11 13 18 13c8 0 12 -6 12 -10
c0 -8 -7 -17 -7 -17s-74 -114 -157 -114c-41 0 -73 29 -98 64c-41 55 -79 219 -162 219c-27 0 -59 -17 -99 -60c0 0 -25 -27 -53 -27c-10 0 -30 5 -30 19c0 23 49 61 49 61s370 325 374 339c-17 3 -81 27 -146 27c-48 0 -98 -14 -128 -59c-4 -8 -12 -13 -20 -13
c-6 0 -8 2 -8 7c0 11 21 38 36 61c18 27 55 91 120 91zM313 607c0 0 0 5 0 4c0 0 53 37 61 66c4 18 -3 50 -3 50c-6 18 0 42 18 60c23 25 49 25 67 11c15 -12 18 -37 13 -56c-19 -76 -113 -127 -141 -140c-13 -6 -15 5 -15 5z" />
    <glyph glyph-name="dieresis" unicode="&#xa8;" 
d="M511 592c-30 0 -55 25 -55 56c0 30 25 56 55 56c31 0 56 -26 56 -56c0 -31 -25 -56 -56 -56zM745 592c-31 0 -56 25 -56 56c0 30 25 56 56 56c30 0 55 -26 55 -56c0 -31 -25 -56 -55 -56z" />
    <glyph glyph-name="idieresis" unicode="&#xef;" horiz-adv-x="278" 
d="M81 447c-23 -15 -31 -4 -31 -3c0 0 -9 9 21 32c33 26 70 42 111 33c88 -21 60 -106 35 -169c-29 -69 -82 -225 -82 -225s-29 -65 28 -68c40 -2 58 38 77 68c0 0 7 10 16 6c7 -3 7 -10 5 -15c-25 -63 -96 -127 -169 -111c-77 19 -42 111 -25 150c18 41 82 220 82 220
s42 101 -6 105c-18 1 -42 -11 -62 -23zM93 592c-30 0 -55 25 -55 56c0 30 25 56 55 56c31 0 56 -26 56 -56c0 -31 -25 -56 -56 -56zM327 592c-31 0 -56 25 -56 56c0 30 25 56 56 56c30 0 55 -26 55 -56c0 -31 -25 -56 -55 -56z" />
    <glyph glyph-name="odieresis" unicode="&#xf6;" horiz-adv-x="484" 
d="M332 512c8 0 16 -1 24 -2c0 0 121 -15 121 -160c0 -38 -9 -87 -31 -146c-9 -33 -100 -215 -259 -215c-112 0 -153 86 -153 178c0 38 8 76 20 108c-1 -1 50 124 74 124c0 -9 10 -44 32 -61c0 0 7 -4 7 -13c0 -2 -1 -4 -2 -7c-40 -89 -55 -154 -55 -200
c0 -71 34 -99 70 -99c102 0 161 149 194 244c10 29 26 84 26 131c0 50 -17 92 -75 92c-21 0 -70 -15 -70 -48c0 -15 8 -22 8 -38c0 -31 -25 -56 -56 -56s-56 25 -56 56c0 58 109 112 181 112zM222 592c-30 0 -55 25 -55 56c0 30 25 56 55 56c31 0 56 -26 56 -56
c0 -31 -25 -56 -56 -56zM456 592c-31 0 -56 25 -56 56c0 30 25 56 56 56c30 0 55 -26 55 -56c0 -31 -25 -56 -55 -56z" />
    <glyph glyph-name="udieresis" unicode="&#xfc;" horiz-adv-x="514" 
d="M524 505c2 -2 3 -4 3 -6c0 -1 -1 -3 -3 -4c-30 -16 -50 -73 -50 -73l-69 -210c-17 -51 -27 -96 -27 -126c0 -23 6 -40 21 -40c42 0 57 37 77 69c0 0 5 7 11 7c7 0 11 -6 11 -10c0 -2 0 -4 -1 -6c-20 -52 -75 -112 -138 -112c-45 0 -60 34 -60 77c0 20 3 42 8 63h-3
c-36 -47 -115 -138 -199 -138c-64 0 -83 40 -83 79c0 86 122 303 122 367c0 14 -6 24 -22 24c-34 0 -80 -63 -80 -63s-4 -7 -11 -7c-6 0 -10 5 -10 9s2 8 2 8s69 104 131 104c3 0 6 -1 9 -1c0 0 53 -5 53 -73c0 -65 -62 -197 -100 -296c0 0 -15 -34 -15 -63
c0 -21 8 -41 35 -41c59 0 173 111 201 201l63 179c31 88 79 83 111 85c2 0 9 0 13 -3zM232 592c-30 0 -55 25 -55 56c0 30 25 56 55 56c31 0 56 -26 56 -56c0 -31 -25 -56 -56 -56zM466 592c-31 0 -56 25 -56 56c0 30 25 56 56 56c30 0 55 -26 55 -56c0 -31 -25 -56 -55 -56
z" />
    <glyph glyph-name="scedilla" unicode="&#x15f;" horiz-adv-x="404" 
d="M317 512c20 0 116 -4 116 -86c0 -33 -21 -76 -61 -76c-25 0 -49 23 -49 51c0 37 37 43 37 60c0 20 -35 27 -56 27c-47 0 -107 -25 -107 -76c0 -106 166 -149 166 -269c0 -34 -18 -151 -182 -151c-76 0 -162 22 -162 105c0 57 33 78 63 78c26 -2 47 -25 47 -52
c0 -31 -31 -37 -31 -59c0 -29 42 -45 69 -45c39 0 118 15 118 103c0 83 -169 149 -169 247c0 11 1 22 6 33c41 104 138 110 195 110zM190 -9c-5 -13 -6 -29 -6 -45c0 -18 1 -36 1 -54c0 -64 -29 -115 -100 -115c-34 0 -83 22 -83 81c0 13 4 26 18 35l11 -11
c-8 -4 -10 -10 -10 -16c0 -27 31 -39 50 -39c87 0 80 110 102 164h17z" />
    <glyph glyph-name="uogonek" unicode="&#x173;" horiz-adv-x="514" 
d="M386 -221l3 -16c-6 -2 -39 -9 -51 -9c-63 0 -110 40 -110 89c0 60 25 100 89 139c9 6 19 10 29 13c-35 6 -47 37 -47 76c0 20 3 41 8 63h-3c-36 -47 -115 -138 -199 -138c-64 0 -83 40 -83 79c0 31 10 65 21 92l80 202c10 25 22 53 21 73c0 14 -6 24 -22 24
c-34 0 -80 -63 -80 -63s-4 -7 -11 -7c-6 0 -10 5 -10 9s2 8 2 8s69 104 131 104c3 0 6 -1 9 -1c0 0 53 -5 53 -73c0 -65 -62 -197 -100 -296c0 0 -15 -34 -15 -63c0 -21 8 -41 35 -41c59 0 173 111 201 201l63 179c31 88 79 83 111 85c5 1 16 -2 16 -9c0 -1 -1 -3 -3 -4
c-30 -16 -50 -73 -50 -73l-69 -210c-17 -51 -27 -96 -27 -126c0 -23 6 -40 21 -40c42 0 57 37 77 69c0 0 5 7 11 7c7 0 11 -6 11 -10c0 -2 0 -4 -1 -6c-17 -45 -61 -96 -113 -109v-1c0 -1 0 -2 -3 -4c-44 -28 -87 -77 -87 -135c0 -41 29 -80 73 -80c6 0 12 0 19 2z" />
    <glyph glyph-name="umacron" unicode="&#x16b;" horiz-adv-x="514" 
d="M524 505c2 -2 3 -4 3 -6c0 -1 -1 -3 -3 -4c-30 -16 -50 -73 -50 -73l-69 -210c-17 -51 -27 -96 -27 -126c0 -23 6 -40 21 -40c42 0 57 37 77 69c0 0 5 7 11 7c7 0 11 -6 11 -10c0 -2 0 -4 -1 -6c-20 -52 -75 -112 -138 -112c-45 0 -60 34 -60 77c0 20 3 42 8 63h-3
c-36 -47 -115 -138 -199 -138c-64 0 -83 40 -83 79c0 86 122 303 122 367c0 14 -6 24 -22 24c-34 0 -80 -63 -80 -63s-4 -7 -11 -7c-6 0 -10 5 -10 9s2 8 2 8s69 104 131 104c3 0 6 -1 9 -1c0 0 53 -5 53 -73c0 -65 -62 -197 -100 -296c0 0 -15 -34 -15 -63
c0 -21 8 -41 35 -41c59 0 173 111 201 201l63 179c31 88 79 83 111 85c2 0 9 0 13 -3zM191 628c0 11 18 9 18 9s118 -10 164 15c15 8 41 31 41 31c14 15 33 24 50 19c22 -5 28 -31 12 -56c-10 -15 -26 -26 -42 -33c-63 -27 -243 -12 -243 15z" />
    <glyph glyph-name="omacron" unicode="&#x14d;" horiz-adv-x="484" 
d="M332 512c8 0 16 -1 24 -2c0 0 121 -15 121 -160c0 -38 -9 -87 -31 -146c-9 -33 -100 -215 -259 -215c-112 0 -153 86 -153 178c0 38 8 76 20 108c-1 -1 50 124 74 124c0 -9 10 -44 32 -61c0 0 7 -4 7 -13c0 -2 -1 -4 -2 -7c-40 -89 -55 -154 -55 -200
c0 -71 34 -99 70 -99c102 0 161 149 194 244c10 29 26 84 26 131c0 50 -17 92 -75 92c-21 0 -70 -15 -70 -48c0 -15 8 -22 8 -38c0 -31 -25 -56 -56 -56s-56 25 -56 56c0 58 109 112 181 112zM182 628c0 11 18 9 18 9s118 -10 164 15c15 8 41 31 41 31c14 15 33 24 50 19
c22 -5 28 -31 12 -56c-10 -15 -26 -26 -42 -33c-63 -27 -243 -12 -243 15z" />
    <glyph glyph-name="imacron" unicode="&#x12b;" horiz-adv-x="278" 
d="M95 -6c-1 0 -2 1 -3 1c-77 19 -42 111 -25 150c18 41 82 220 82 220s42 101 -6 105c-18 1 -42 -11 -62 -23c-23 -15 -31 -4 -31 -3c0 0 -9 9 21 32c33 26 70 42 111 33c88 -21 60 -106 35 -169c-29 -69 -82 -225 -82 -225s-7 -17 -40 -121zM78 628c0 11 18 9 18 9
s118 -10 164 15c15 8 41 31 41 31c14 15 33 24 50 19c22 -5 28 -31 12 -56c-10 -15 -26 -26 -42 -33c-63 -27 -243 -12 -243 15z" />
    <glyph glyph-name="edotaccent" unicode="&#x117;" horiz-adv-x="429" 
d="M349 511c81 -7 138 -68 92 -149c-63 -105 -219 -167 -335 -216c2 -44 20 -80 61 -90c78 -18 157 47 203 124c0 0 7 15 17 12c9 -4 -4 -29 -4 -29c-29 -70 -177 -211 -288 -160c-181 84 -13 400 154 485c30 17 75 24 100 23zM381 372c30 72 2 135 -80 102
c-100 -49 -170 -186 -188 -260c-3 -13 -5 -27 -6 -40c51 21 104 44 151 73c96 60 123 125 123 125zM345 591c-31 0 -57 25 -57 57c0 31 26 57 57 57s57 -26 57 -57c0 -32 -26 -57 -57 -57z" />
    <glyph glyph-name="emacron" unicode="&#x113;" horiz-adv-x="429" 
d="M349 511c81 -7 138 -68 92 -149c-63 -105 -219 -167 -335 -216c2 -44 20 -80 61 -90c78 -18 157 47 203 124c0 0 7 15 17 12c9 -4 -4 -29 -4 -29c-29 -70 -177 -211 -288 -160c-181 84 -13 400 154 485c30 17 75 24 100 23zM381 372c30 72 2 135 -80 102
c-100 -49 -170 -186 -188 -260c-3 -13 -5 -27 -6 -40c51 21 104 44 151 73c96 60 123 125 123 125zM188 628c0 11 18 9 18 9s118 -10 164 15c15 8 41 31 41 31c14 15 33 24 50 19c22 -5 28 -31 12 -56c-10 -15 -26 -26 -42 -33c-63 -27 -243 -12 -243 15z" />
    <glyph glyph-name="iogonek" unicode="&#x12f;" horiz-adv-x="278" 
d="M141 -221l3 -16c-6 -2 -39 -9 -51 -9c-63 0 -110 40 -110 89c0 60 25 100 89 139c8 5 16 9 26 12c-2 1 -4 1 -6 1c-37 9 -48 34 -48 63c0 45 87 246 105 307c0 0 17 41 17 72c0 16 -6 33 -23 33c-25 0 -68 -31 -83 -31c-12 0 -11 7 -11 9c0 19 65 63 110 63
c63 0 83 -39 83 -74c0 -30 -13 -67 -25 -97c-72 -172 -90 -254 -90 -258c0 -16 8 -35 36 -35c40 0 57 37 77 68c0 0 5 7 12 7s10 -6 10 -10c0 -2 0 -4 -1 -6c-20 -49 -67 -99 -121 -110c0 -1 -2 -2 -4 -4c-44 -28 -87 -77 -87 -135c0 -41 29 -80 73 -80c6 0 12 0 19 2z
M246 591c-31 0 -57 25 -57 57c0 31 26 57 57 57s57 -26 57 -57c0 -32 -26 -57 -57 -57z" />
    <glyph glyph-name="zdotaccent" unicode="&#x17c;" horiz-adv-x="475" 
d="M248 514c66 0 104 -81 148 -81c35 0 56 69 91 69c5 0 29 0 29 -29c0 -59 -83 -79 -129 -121c-49 -44 -295 -274 -295 -274s57 27 110 27c32 0 63 -9 85 -37c43 -55 108 -178 108 -178s23 -58 64 -58c14 0 27 5 44 25c34 42 44 56 44 56c3 6 11 13 18 13c8 0 12 -6 12 -10
c0 -8 -7 -17 -7 -17s-74 -114 -157 -114c-41 0 -73 29 -98 64c-41 55 -79 219 -162 219c-27 0 -59 -17 -99 -60c0 0 -25 -27 -53 -27c-10 0 -30 5 -30 19c0 23 49 61 49 61s370 325 374 339c-17 3 -81 27 -146 27c-48 0 -98 -14 -128 -59c-4 -8 -12 -13 -20 -13
c-6 0 -8 2 -8 7c0 11 21 38 36 61c18 27 55 91 120 91zM376 591c-31 0 -57 25 -57 57c0 31 26 57 57 57s57 -26 57 -57c0 -32 -26 -57 -57 -57z" />
    <glyph glyph-name="edieresis" unicode="&#xeb;" horiz-adv-x="429" 
d="M349 511c81 -7 138 -68 92 -149c-63 -105 -219 -167 -335 -216c2 -44 20 -80 61 -90c78 -18 157 47 203 124c0 0 7 15 17 12c9 -4 -4 -29 -4 -29c-29 -70 -177 -211 -288 -160c-181 84 -13 400 154 485c30 17 75 24 100 23zM381 372c30 72 2 135 -80 102
c-100 -49 -170 -186 -188 -260c-3 -13 -5 -27 -6 -40c51 21 104 44 151 73c96 60 123 125 123 125zM212 592c-30 0 -55 25 -55 56c0 30 25 56 55 56c31 0 56 -26 56 -56c0 -31 -25 -56 -56 -56zM446 592c-31 0 -56 25 -56 56c0 30 25 56 56 56c30 0 55 -26 55 -56
c0 -31 -25 -56 -55 -56z" />
    <glyph glyph-name="ydieresis" unicode="&#xff;" horiz-adv-x="522" 
d="M188 512c45 0 59 -34 59 -74c0 -88 -58 -198 -96 -294c-5 -13 -14 -38 -14 -62c0 -23 8 -43 34 -43c60 0 135 85 166 133c39 62 61 139 84 213c32 90 67 111 113 115c0 0 16 -1 16 -6c0 -1 0 -3 -2 -4c-27 -24 -44 -73 -44 -73l-136 -410c-61 -216 -214 -486 -484 -486
c-105 0 -233 64 -233 184c0 172 245 229 310 229c15 0 37 -3 37 -20c0 -16 -12 -24 -22 -24c-17 0 -37 13 -65 13c-97 0 -182 -95 -182 -192c0 -102 86 -158 195 -158c258 0 368 438 416 577c-45 -51 -116 -138 -195 -138c-68 0 -88 43 -88 81c0 83 121 297 121 363
c0 14 -5 24 -18 26c-44 0 -75 -70 -95 -70c-7 0 -9 5 -9 8c0 4 2 8 2 8s69 104 130 104zM225 592c-30 0 -55 25 -55 56c0 30 25 56 55 56c31 0 56 -26 56 -56c0 -31 -25 -56 -56 -56zM459 592c-31 0 -56 25 -56 56c0 30 25 56 56 56c30 0 55 -26 55 -56
c0 -31 -25 -56 -55 -56z" />
    <glyph glyph-name="quoteright" unicode="&#x2019;" horiz-adv-x="324" 
d="M112 607v2c0 9 9 15 9 15c1 0 46 28 46 61c0 47 -10 43 -10 60c0 33 29 62 55 62c29 0 46 -26 46 -54c0 -99 -145 -153 -138 -153c-6 0 -8 7 -8 7z" />
    <glyph glyph-name="quotesinglbase" unicode="&#x201a;" horiz-adv-x="577" 
d="M316 -89v2c0 9 9 15 9 15c2 0 46 29 46 62c0 45 -11 42 -11 59c0 32 28 62 55 62c28 0 46 -24 46 -53c0 -94 -133 -155 -137 -155c-7 0 -8 8 -8 8z" />
    <glyph glyph-name="periodcentered" unicode="&#xb7;" horiz-adv-x="348" 
d="M199 242c-31 0 -57 25 -57 57c0 31 26 57 57 57s57 -26 57 -57c0 -32 -26 -57 -57 -57z" />
    <glyph glyph-name="period" unicode="." horiz-adv-x="278" 
d="M136 1c-31 0 -57 26 -57 57s26 57 57 57s57 -26 57 -57s-26 -57 -57 -57z" />
    <glyph glyph-name="aogonek" unicode="&#x105;" horiz-adv-x="550" 
d="M439 -221l3 -16c-6 -2 -39 -9 -51 -9c-63 0 -110 40 -110 89c0 60 25 100 89 139c5 4 11 7 17 9c-82 10 -54 112 -34 175h-2c-29 -70 -156 -210 -256 -159c-207 105 92 555 262 500c30 -10 72 -40 68 -122c33 91 67 112 114 116c0 0 24 -1 14 -10
c-30 -24 -57 -110 -57 -110l-55 -173c-28 -91 -35 -163 -1 -165c40 -2 56 38 74 68c0 0 7 11 16 7c7 -4 7 -10 5 -16c-15 -41 -51 -88 -98 -105c1 -1 1 -2 -3 -5c-44 -28 -87 -77 -87 -135c0 -46 38 -91 92 -78zM397 354c5 70 -10 112 -48 117c-96 14 -204 -165 -226 -254
c-18 -70 -16 -144 40 -158c122 -31 225 193 234 295z" />
    <glyph glyph-name="amacron" unicode="&#x101;" horiz-adv-x="550" 
d="M441 208c-15 -49 -24 -92 -24 -122c0 -25 7 -43 23 -43c41 0 55 37 74 68c0 0 5 8 12 8s10 -7 10 -11c0 -2 0 -4 -1 -6c-18 -51 -71 -112 -134 -112c-54 0 -69 32 -69 72c0 34 11 73 21 104h-2c-25 -60 -121 -170 -210 -170c-81 0 -117 74 -117 135
c0 156 174 381 303 381c28 0 98 -13 98 -127c33 91 67 112 114 116c0 0 16 -1 16 -6c0 -1 0 -3 -2 -4c-30 -24 -57 -110 -112 -283zM399 354c0 9 1 17 1 25c0 61 -21 93 -62 93c-93 0 -194 -169 -215 -255c-6 -24 -10 -49 -10 -72c0 -51 19 -89 73 -89
c112 0 204 202 213 298zM245 628c0 11 18 9 18 9s118 -10 164 15c15 8 41 31 41 31c14 15 33 24 50 19c22 -5 28 -31 12 -56c-10 -15 -26 -26 -42 -33c-63 -27 -243 -12 -243 15z" />
    <glyph glyph-name="adieresis" unicode="&#xe4;" horiz-adv-x="550" 
d="M496 381l-55 -173c-28 -91 -35 -163 -1 -165c40 -2 56 38 74 68c0 0 7 11 16 7c7 -4 7 -10 5 -16c-18 -51 -71 -112 -134 -112c-99 0 -69 110 -48 176h-2c-29 -70 -156 -210 -256 -159c-207 105 92 555 262 500c30 -10 72 -40 68 -122c33 91 67 112 114 116
c0 0 24 -1 14 -10c-30 -24 -57 -110 -57 -110zM397 354c5 70 -10 112 -48 117c-96 14 -204 -165 -226 -254c-18 -70 -16 -144 40 -158c122 -31 225 193 234 295zM273 591c-31 0 -57 25 -57 57c0 31 26 57 57 57s57 -26 57 -57c0 -32 -26 -57 -57 -57zM511 591
c-31 0 -57 25 -57 57c0 31 26 57 57 57s57 -26 57 -57c0 -32 -26 -57 -57 -57z" />
    <glyph glyph-name="aring" unicode="&#xe5;" horiz-adv-x="550" 
d="M496 381l-55 -173c-28 -91 -35 -163 -1 -165c40 -2 56 38 74 68c0 0 7 11 16 7c7 -4 7 -10 5 -16c-18 -51 -71 -112 -134 -112c-99 0 -69 110 -48 176h-2c-29 -70 -156 -210 -256 -159c-207 105 92 555 262 500c30 -10 72 -40 68 -122c33 91 67 112 114 116
c0 0 24 -1 14 -10c-30 -24 -57 -110 -57 -110zM397 354c5 70 -10 112 -48 117c-96 14 -204 -165 -226 -254c-18 -70 -16 -144 40 -158c122 -31 225 193 234 295zM468 796c58 8 111 -30 85 -92c-27 -66 -96 -99 -163 -108c-63 -9 -104 29 -85 92c27 66 96 98 163 108z
M482 688c9 29 6 69 -29 80c-36 11 -65 -35 -77 -64c-9 -29 -6 -70 29 -80c34 -11 68 33 77 64z" />
    <glyph glyph-name="lacute" unicode="&#x13a;" horiz-adv-x="255" 
d="M82 -5c-37 8 -56 33 -56 73c0 17 3 39 11 61c168 501 267 762 469 943c91 81 196 112 270 112c61 0 94 -21 94 -43c0 -17 -17 -33 -34 -33c-5 0 -10 1 -14 4c-33 20 -66 29 -99 29c-211 0 -406 -385 -480 -612c-50 -132 -126 -396 -131 -413c0 0 -5 -15 -5 -31
c0 -19 7 -40 36 -42c49 0 62 80 85 80c7 0 11 -6 11 -10c0 -2 0 -4 -1 -6c-17 -47 -70 -114 -138 -114c-6 0 -12 1 -18 2zM354 607c0 0 2 -11 15 -5c28 13 122 64 141 140c5 19 2 44 -13 56c-18 14 -44 14 -67 -11c-18 -18 -24 -42 -18 -60c0 0 7 -32 3 -50
c-8 -29 -61 -66 -61 -66c0 1 0 -4 0 -4z" />
    <glyph glyph-name="guilsinglleft" unicode="&#x2039;" horiz-adv-x="516" 
d="M562 507c-62 -81 -174 -124 -268 -155c-49 -16 -99 -30 -149 -41c98 -52 250 -149 250 -267c0 -7 0 -13 -1 -20c-3 -15 -49 -21 -66 -21c-4 0 -6 0 -6 1c1 7 1 14 1 20c0 125 -168 223 -264 272c-1 0 -1 1 -1 1c0 7 46 22 51 23c115 32 297 75 392 184l3 3h58z" />
    <glyph glyph-name="guilsinglright" unicode="&#x203a;" horiz-adv-x="521" 
d="M508 322c1 0 2 -1 2 -2c0 -4 -23 -14 -24 -15v0c1 0 -316 -124 -376 -283c-5 -13 -40 -18 -59 -18c-7 0 -11 1 -11 2c75 142 240 234 388 295c-90 23 -213 79 -213 180c0 8 0 23 6 26h67c0 -109 127 -162 220 -185z" />
    <glyph glyph-name="endash" unicode="&#x2013;" horiz-adv-x="452" 
d="M54 278c0 16 88 33 175 33c90 0 182 -18 182 -80c0 -17 -14 -31 -35 -31c-29 0 -47 35 -77 53c-31 18 -78 23 -122 23c-55 0 -104 -8 -104 -8h-3c-5 0 -16 1 -16 10z" />
    <glyph glyph-name="emdash" unicode="&#x2014;" horiz-adv-x="452" 
d="M54 278c0 16 88 33 175 33c90 0 182 -18 182 -80c0 -17 -14 -31 -35 -31c-29 0 -47 35 -77 53c-31 18 -78 23 -122 23c-55 0 -104 -8 -104 -8h-3c-5 0 -16 1 -16 10z" />
    <glyph glyph-name="kcommaaccent" unicode="&#x137;" horiz-adv-x="528" 
d="M76 -304c0 0 2 -12 15 -6c27 13 117 64 129 141c3 19 -1 44 -17 55c-19 15 -45 14 -67 -10c-16 -19 -19 -42 -13 -60c0 0 11 -32 7 -50c-5 -29 -45 -53 -45 -53s-11 -7 -9 -17zM854 1166c21 -9 29 -21 29 -32c0 -17 -18 -33 -35 -33c-5 0 -10 1 -14 4
c-34 19 -68 27 -101 27c-219 0 -403 -383 -477 -610c-27 -66 -43 -136 -66 -206c-1 -3 -1 -5 -1 -7c0 -9 2 -12 18 -12c24 0 73 11 134 90c65 83 107 119 149 119c10 0 21 -2 31 -6c0 0 53 -18 53 -69c0 -29 -27 -85 -72 -85c-31 0 -54 23 -54 52c0 44 50 46 50 68
c0 8 -6 16 -17 16c-12 0 -56 -29 -93 -77c-27 -35 -73 -107 -118 -118c6 0 96 1 96 -51c0 -37 -42 -114 -42 -158c0 -23 10 -34 37 -34c39 0 67 35 87 65c3 4 9 11 16 11c5 0 7 -3 7 -9c0 -7 -4 -17 -11 -26c-7 -10 -72 -99 -134 -99c-52 0 -70 37 -70 74c0 36 16 83 41 161
c2 5 2 10 2 14c0 33 -35 35 -43 35c-7 0 -78 -2 -109 -77c-37 -105 -58 -175 -58 -175s-1 -9 -12 -13c-10 -5 -76 -18 -76 -18s-7 0 -7 5c0 1 0 2 1 3c3 14 104 292 134 382c87 261 178 498 390 688c90 81 195 112 269 112c27 0 49 -4 66 -11z" />
    <glyph glyph-name="lcommaaccent" unicode="&#x13c;" horiz-adv-x="255" 
d="M0 -304c0 0 2 -12 15 -6c27 13 117 64 129 141c3 19 -1 44 -17 55c-19 15 -45 14 -67 -10c-16 -19 -19 -42 -13 -60c0 0 11 -32 7 -50c-5 -29 -45 -53 -45 -53s-11 -7 -9 -17zM82 -5c-37 8 -56 33 -56 73c0 17 3 39 11 61c168 501 267 762 469 943c91 81 196 112 270 112
c61 0 94 -21 94 -43c0 -17 -17 -33 -34 -33c-5 0 -10 1 -14 4c-33 20 -66 29 -99 29c-211 0 -406 -385 -480 -612c-50 -132 -126 -396 -131 -413c0 0 -5 -15 -5 -31c0 -19 7 -40 36 -42c49 0 62 80 85 80c7 0 11 -6 11 -10c0 -2 0 -4 -1 -6c-17 -47 -70 -114 -138 -114
c-6 0 -12 1 -18 2z" />
    <glyph glyph-name="ncommaaccent" unicode="&#x146;" horiz-adv-x="527" 
d="M94 -304c0 0 2 -12 15 -6c27 13 117 64 129 141c3 19 -1 44 -17 55c-19 15 -45 14 -67 -10c-16 -19 -19 -42 -13 -60c0 0 11 -32 7 -50c-5 -29 -45 -53 -45 -53s-11 -7 -9 -17zM349 -6c-33 9 -44 37 -44 71c0 55 30 124 38 146c44 118 74 152 74 208c0 22 -8 42 -39 42
c-68 0 -150 -106 -195 -227c-47 -126 -81 -211 -81 -211s-2 -9 -12 -13c-11 -4 -69 -18 -69 -18c-1 0 -7 1 -7 8c3 8 146 378 146 378s11 29 11 54c0 16 -6 31 -23 31c-34 0 -79 -64 -79 -64s-4 -7 -11 -7c-6 0 -10 5 -10 9s2 8 2 8s66 105 128 105c43 0 62 -30 62 -69
c0 -19 -5 -44 -18 -75h3c34 45 97 139 177 139c68 0 88 -46 88 -84c0 -50 -87 -272 -102 -310c0 0 -7 -17 -7 -34s6 -33 32 -35c51 0 63 76 87 76c7 0 10 -7 10 -11c0 -2 0 -4 -1 -6c-16 -46 -66 -114 -136 -114c-8 0 -16 1 -24 3z" />
    <glyph glyph-name="tcommaaccent" unicode="&#x163;" horiz-adv-x="272" 
d="M0 -304c0 0 2 -12 15 -6c27 13 117 64 129 141c3 19 -1 44 -17 55c-19 15 -45 14 -67 -10c-16 -19 -19 -42 -13 -60c0 0 11 -32 7 -50c-5 -29 -45 -53 -45 -53s-11 -7 -9 -17zM244 478l-89 -267c-30 -92 -41 -163 -7 -165c40 -3 58 38 77 68c0 0 8 11 17 7
c7 -4 5 -10 3 -16c-20 -51 -75 -112 -138 -112c-99 0 -65 110 -42 176c10 30 42 126 74 225c30 86 -11 90 -15 90c-11 0 -15 8 -15 17c0 10 8 18 21 18h47c3 0 7 2 8 6c24 72 43 127 43 127c35 90 72 111 118 115c0 0 25 -1 14 -10c-32 -24 -61 -110 -61 -110
s-38 -118 -39 -122c-2 -4 1 -6 4 -6h131s11 -10 8 -19c-2 -8 -9 -16 -23 -16h-128s-8 -6 -8 -6z" />
    <glyph glyph-name="Agrave" unicode="&#xc0;" horiz-adv-x="1556" 
d="M1400 366c86 233 240 575 408 703c-97 -42 -322 -288 -515 -535c45 -45 104 -168 104 -168h3zM633 100c-72 -3 -145 28 -188 73c-56 57 -74 136 -67 215c13 106 72 215 188 279c83 46 190 73 286 63c88 -6 268 -44 410 -167c172 221 369 444 565 553c-4 -1 -7 -3 -11 -4
c-119 -38 -319 29 -504 11c-149 -15 -216 -112 -197 -221c31 -186 279 -187 280 -8c0 14 17 27 32 23s21 -14 20 -32c-48 -224 -369 -178 -393 5c-15 118 89 240 245 256c181 21 375 -43 506 -13c124 28 239 59 339 41c18 -6 26 -30 20 -45c-7 -15 -26 -25 -39 -19
c-24 11 -168 97 -320 -89c-151 -186 -270 -457 -398 -908c-7 -32 1 -58 24 -63c24 -4 52 6 78 66c2 5 9 16 19 13s4 -18 1 -26c-3 -7 -59 -119 -151 -111c-93 8 -57 134 -47 173c3 8 14 45 32 99c-10 33 -33 125 -112 215c-26 -35 -52 -70 -76 -104
c-90 -125 -306 -464 -678 -443c-320 18 -442 232 -434 429c6 159 121 289 248 368c4 2 36 24 53 2c7 -10 0 -25 -15 -32c-21 -9 -39 0 -66 -24c-79 -67 -137 -168 -137 -306c-1 -260 191 -397 352 -407c315 -21 468 224 623 413c32 44 66 89 101 135
c-76 76 -187 147 -346 177c-125 21 -246 -15 -301 -47c-110 -66 -160 -157 -171 -255c-7 -67 11 -143 59 -194c40 -41 96 -68 163 -68c55 0 85 33 95 43c10 9 29 13 40 2c9 -8 7 -25 -8 -33c-42 -22 -83 -35 -120 -35zM2080 1514v-3c0 -9 -10 -15 -10 -15
c-2 0 -46 -28 -46 -62c0 -45 11 -42 11 -59c0 -32 -29 -62 -55 -62c-29 0 -46 24 -46 54c0 97 137 154 137 154c7 0 9 -7 9 -7z" />
    <glyph glyph-name="Aacute" unicode="&#xc1;" horiz-adv-x="1556" 
d="M1400 366c86 233 240 575 408 703c-97 -42 -322 -288 -515 -535c45 -45 104 -168 104 -168h3zM633 100c-72 -3 -145 28 -188 73c-56 57 -74 136 -67 215c13 106 72 215 188 279c83 46 190 73 286 63c88 -6 268 -44 410 -167c172 221 369 444 565 553c-4 -1 -7 -3 -11 -4
c-119 -38 -319 29 -504 11c-149 -15 -216 -112 -197 -221c31 -186 279 -187 280 -8c0 14 17 27 32 23s21 -14 20 -32c-48 -224 -369 -178 -393 5c-15 118 89 240 245 256c181 21 375 -43 506 -13c124 28 239 59 339 41c18 -6 26 -30 20 -45c-7 -15 -26 -25 -39 -19
c-24 11 -168 97 -320 -89c-151 -186 -270 -457 -398 -908c-7 -32 1 -58 24 -63c24 -4 52 6 78 66c2 5 9 16 19 13s4 -18 1 -26c-3 -7 -59 -119 -151 -111c-93 8 -57 134 -47 173c3 8 14 45 32 99c-10 33 -33 125 -112 215c-26 -35 -52 -70 -76 -104
c-90 -125 -306 -464 -678 -443c-320 18 -442 232 -434 429c6 159 121 289 248 368c4 2 36 24 53 2c7 -10 0 -25 -15 -32c-21 -9 -39 0 -66 -24c-79 -67 -137 -168 -137 -306c-1 -260 191 -397 352 -407c315 -21 468 224 623 413c32 44 66 89 101 135
c-76 76 -187 147 -346 177c-125 21 -246 -15 -301 -47c-110 -66 -160 -157 -171 -255c-7 -67 11 -143 59 -194c40 -41 96 -68 163 -68c55 0 85 33 95 43c10 9 29 13 40 2c9 -8 7 -25 -8 -33c-42 -22 -83 -35 -120 -35zM1907 1323c0 0 0 5 0 4c0 0 53 37 61 66
c4 18 -3 50 -3 50c-6 18 0 42 18 60c23 25 49 25 67 11c15 -12 18 -37 13 -56c-19 -76 -113 -127 -141 -140c-13 -6 -15 5 -15 5z" />
    <glyph glyph-name="Acircumflex" unicode="&#xc2;" horiz-adv-x="1556" 
d="M1400 366c86 233 240 575 408 703c-97 -42 -322 -288 -515 -535c45 -45 104 -168 104 -168h3zM633 100c-72 -3 -145 28 -188 73c-56 57 -74 136 -67 215c13 106 72 215 188 279c83 46 190 73 286 63c88 -6 268 -44 410 -167c172 221 369 444 565 553c-4 -1 -7 -3 -11 -4
c-119 -38 -319 29 -504 11c-149 -15 -216 -112 -197 -221c31 -186 279 -187 280 -8c0 14 17 27 32 23s21 -14 20 -32c-48 -224 -369 -178 -393 5c-15 118 89 240 245 256c181 21 375 -43 506 -13c124 28 239 59 339 41c18 -6 26 -30 20 -45c-7 -15 -26 -25 -39 -19
c-24 11 -168 97 -320 -89c-151 -186 -270 -457 -398 -908c-7 -32 1 -58 24 -63c24 -4 52 6 78 66c2 5 9 16 19 13s4 -18 1 -26c-3 -7 -59 -119 -151 -111c-93 8 -57 134 -47 173c3 8 14 45 32 99c-10 33 -33 125 -112 215c-26 -35 -52 -70 -76 -104
c-90 -125 -306 -464 -678 -443c-320 18 -442 232 -434 429c6 159 121 289 248 368c4 2 36 24 53 2c7 -10 0 -25 -15 -32c-21 -9 -39 0 -66 -24c-79 -67 -137 -168 -137 -306c-1 -260 191 -397 352 -407c315 -21 468 224 623 413c32 44 66 89 101 135
c-76 76 -187 147 -346 177c-125 21 -246 -15 -301 -47c-110 -66 -160 -157 -171 -255c-7 -67 11 -143 59 -194c40 -41 96 -68 163 -68c55 0 85 33 95 43c10 9 29 13 40 2c9 -8 7 -25 -8 -33c-42 -22 -83 -35 -120 -35zM1803 1313h-53l165 156c7 7 45 23 66 23
c6 0 11 -2 13 -5l105 -174h-83c-25 38 -49 76 -75 114c-48 -39 -91 -76 -138 -114z" />
    <glyph glyph-name="Abreve" unicode="&#x102;" horiz-adv-x="1556" 
d="M1400 366c86 233 240 575 408 703c-97 -42 -322 -288 -515 -535c45 -45 104 -168 104 -168h3zM633 100c-72 -3 -145 28 -188 73c-56 57 -74 136 -67 215c13 106 72 215 188 279c83 46 190 73 286 63c88 -6 268 -44 410 -167c172 221 369 444 565 553c-4 -1 -7 -3 -11 -4
c-119 -38 -319 29 -504 11c-149 -15 -216 -112 -197 -221c31 -186 279 -187 280 -8c0 14 17 27 32 23s21 -14 20 -32c-48 -224 -369 -178 -393 5c-15 118 89 240 245 256c181 21 375 -43 506 -13c124 28 239 59 339 41c18 -6 26 -30 20 -45c-7 -15 -26 -25 -39 -19
c-24 11 -168 97 -320 -89c-151 -186 -270 -457 -398 -908c-7 -32 1 -58 24 -63c24 -4 52 6 78 66c2 5 9 16 19 13s4 -18 1 -26c-3 -7 -59 -119 -151 -111c-93 8 -57 134 -47 173c3 8 14 45 32 99c-10 33 -33 125 -112 215c-26 -35 -52 -70 -76 -104
c-90 -125 -306 -464 -678 -443c-320 18 -442 232 -434 429c6 159 121 289 248 368c4 2 36 24 53 2c7 -10 0 -25 -15 -32c-21 -9 -39 0 -66 -24c-79 -67 -137 -168 -137 -306c-1 -260 191 -397 352 -407c315 -21 468 224 623 413c32 44 66 89 101 135
c-76 76 -187 147 -346 177c-125 21 -246 -15 -301 -47c-110 -66 -160 -157 -171 -255c-7 -67 11 -143 59 -194c40 -41 96 -68 163 -68c55 0 85 33 95 43c10 9 29 13 40 2c9 -8 7 -25 -8 -33c-42 -22 -83 -35 -120 -35zM2050 1421h63c-34 -65 -111 -110 -184 -110
s-113 38 -91 109v1h67c-5 -32 4 -84 44 -84c52 0 84 43 101 83v1z" />
    <glyph glyph-name="Adieresis" unicode="&#xc4;" horiz-adv-x="1556" 
d="M1400 366c86 233 240 575 408 703c-97 -42 -322 -288 -515 -535c45 -45 104 -168 104 -168h3zM633 100c-72 -3 -145 28 -188 73c-56 57 -74 136 -67 215c13 106 72 215 188 279c83 46 190 73 286 63c88 -6 268 -44 410 -167c172 221 369 444 565 553c-4 -1 -7 -3 -11 -4
c-119 -38 -319 29 -504 11c-149 -15 -216 -112 -197 -221c31 -186 279 -187 280 -8c0 14 17 27 32 23s21 -14 20 -32c-48 -224 -369 -178 -393 5c-15 118 89 240 245 256c181 21 375 -43 506 -13c124 28 239 59 339 41c18 -6 26 -30 20 -45c-7 -15 -26 -25 -39 -19
c-24 11 -168 97 -320 -89c-151 -186 -270 -457 -398 -908c-7 -32 1 -58 24 -63c24 -4 52 6 78 66c2 5 9 16 19 13s4 -18 1 -26c-3 -7 -59 -119 -151 -111c-93 8 -57 134 -47 173c3 8 14 45 32 99c-10 33 -33 125 -112 215c-26 -35 -52 -70 -76 -104
c-90 -125 -306 -464 -678 -443c-320 18 -442 232 -434 429c6 159 121 289 248 368c4 2 36 24 53 2c7 -10 0 -25 -15 -32c-21 -9 -39 0 -66 -24c-79 -67 -137 -168 -137 -306c-1 -260 191 -397 352 -407c315 -21 468 224 623 413c32 44 66 89 101 135
c-76 76 -187 147 -346 177c-125 21 -246 -15 -301 -47c-110 -66 -160 -157 -171 -255c-7 -67 11 -143 59 -194c40 -41 96 -68 163 -68c55 0 85 33 95 43c10 9 29 13 40 2c9 -8 7 -25 -8 -33c-42 -22 -83 -35 -120 -35zM1826 1313c-30 0 -55 25 -55 56c0 30 25 56 55 56
c31 0 56 -26 56 -56c0 -31 -25 -56 -56 -56zM2060 1313c-31 0 -56 25 -56 56c0 30 25 56 56 56c30 0 55 -26 55 -56c0 -31 -25 -56 -55 -56z" />
    <glyph glyph-name="Aring" unicode="&#xc5;" horiz-adv-x="1556" 
d="M1400 366c86 233 240 575 408 703c-97 -42 -322 -288 -515 -535c45 -45 104 -168 104 -168h3zM633 100c-72 -3 -145 28 -188 73c-56 57 -74 136 -67 215c13 106 72 215 188 279c83 46 190 73 286 63c88 -6 268 -44 410 -167c172 221 369 444 565 553c-4 -1 -7 -3 -11 -4
c-119 -38 -319 29 -504 11c-149 -15 -216 -112 -197 -221c31 -186 279 -187 280 -8c0 14 17 27 32 23s21 -14 20 -32c-48 -224 -369 -178 -393 5c-15 118 89 240 245 256c181 21 375 -43 506 -13c124 28 239 59 339 41c18 -6 26 -30 20 -45c-7 -15 -26 -25 -39 -19
c-24 11 -168 97 -320 -89c-151 -186 -270 -457 -398 -908c-7 -32 1 -58 24 -63c24 -4 52 6 78 66c2 5 9 16 19 13s4 -18 1 -26c-3 -7 -59 -119 -151 -111c-93 8 -57 134 -47 173c3 8 14 45 32 99c-10 33 -33 125 -112 215c-26 -35 -52 -70 -76 -104
c-90 -125 -306 -464 -678 -443c-320 18 -442 232 -434 429c6 159 121 289 248 368c4 2 36 24 53 2c7 -10 0 -25 -15 -32c-21 -9 -39 0 -66 -24c-79 -67 -137 -168 -137 -306c-1 -260 191 -397 352 -407c315 -21 468 224 623 413c32 44 66 89 101 135
c-76 76 -187 147 -346 177c-125 21 -246 -15 -301 -47c-110 -66 -160 -157 -171 -255c-7 -67 11 -143 59 -194c40 -41 96 -68 163 -68c55 0 85 33 95 43c10 9 29 13 40 2c9 -8 7 -25 -8 -33c-42 -22 -83 -35 -120 -35zM1965 1522c58 8 111 -30 85 -92
c-27 -66 -96 -99 -163 -108c-63 -9 -104 29 -85 92c27 66 96 98 163 108zM1979 1414c9 29 6 69 -29 80c-36 11 -65 -35 -77 -64c-9 -29 -6 -70 29 -80c34 -11 68 33 77 64z" />
    <glyph glyph-name="Ccedilla" unicode="&#xc7;" horiz-adv-x="874" 
d="M774 1105c81 31 145 44 194 44c106 0 145 -61 145 -135c0 -188 -238 -529 -837 -529c-25 -72 -38 -143 -38 -209c0 -157 80 -301 243 -301c88 0 204 28 321 198c10 15 19 20 26 20c13 0 19 -13 19 -19s-2 -11 -5 -17c-22 -39 -156 -218 -370 -218h-10
c-4 -12 -4 -26 -4 -40c0 -18 1 -36 1 -54c0 -64 -29 -115 -100 -115c-34 0 -83 22 -83 81c0 13 4 26 18 35l11 -11c-8 -4 -10 -10 -10 -16c0 -27 31 -39 50 -39c85 0 80 105 100 160c-3 0 -6 1 -9 1c-167 16 -297 134 -297 331c0 65 14 140 47 222
c-132 25 -327 108 -330 318c0 246 320 492 693 492c39 0 47 -17 47 -30c0 -8 -9 -34 -34 -34c-26 0 -32 28 -89 28c-116 0 -529 -114 -529 -449c5 -117 88 -239 261 -280c125 264 361 478 569 566zM1029 882c12 27 22 65 22 101c0 60 -29 116 -133 116
c-134 1 -347 -84 -570 -463c-22 -37 -41 -73 -56 -110c11 -4 36 -2 51 -2c339 0 607 185 686 358z" />
    <glyph glyph-name="Egrave" unicode="&#xc8;" horiz-adv-x="807" 
d="M543 1006c277 221 573 121 375 -115c-98 -100 -287 -174 -462 -190c32 -76 126 -101 163 -84c12 6 12 -5 9 -9c-12 -13 -35 -18 -42 -19c-9 -1 -18 -2 -26 -2c-73 -11 -403 -52 -429 -390c-8 -106 64 -225 202 -241c-7 58 -1 127 23 208c34 115 210 351 367 278
c142 -71 -28 -494 -343 -518c17 -73 62 -149 153 -218c7 -5 14 -24 -15 -18c-12 3 -145 69 -180 235c-148 4 -278 61 -297 232c-24 207 234 415 422 436h7c-68 15 -103 55 -110 107c-4 0 -8 0 -13 1c-244 13 -446 144 -466 300c-28 312 461 337 555 302
c25 -10 36 -25 29 -45s-35 -25 -49 -19c-26 11 -18 41 -78 47c-227 19 -383 -101 -392 -237c-3 -202 211 -294 414 -312c8 83 75 188 183 271zM433 230c-29 -58 -74 -162 -59 -275c27 1 55 5 85 14c226 65 321 390 225 430c-89 38 -202 -75 -251 -169zM557 741
c237 45 417 207 353 314c-44 60 -139 44 -218 5c-70 -35 -275 -170 -245 -329c39 1 76 4 110 10zM917 1516v-3c0 -9 -10 -15 -10 -15c-2 0 -46 -28 -46 -62c0 -45 11 -42 11 -59c0 -32 -29 -62 -55 -62c-29 0 -46 24 -46 54c0 97 137 154 137 154c7 0 9 -7 9 -7z" />
    <glyph glyph-name="Eacute" unicode="&#xc9;" horiz-adv-x="807" 
d="M543 1006c277 221 573 121 375 -115c-98 -100 -287 -174 -462 -190c32 -76 126 -101 163 -84c12 6 12 -5 9 -9c-12 -13 -35 -18 -42 -19c-9 -1 -18 -2 -26 -2c-73 -11 -403 -52 -429 -390c-8 -106 64 -225 202 -241c-7 58 -1 127 23 208c34 115 210 351 367 278
c142 -71 -28 -494 -343 -518c17 -73 62 -149 153 -218c7 -5 14 -24 -15 -18c-12 3 -145 69 -180 235c-148 4 -278 61 -297 232c-24 207 234 415 422 436h7c-68 15 -103 55 -110 107c-4 0 -8 0 -13 1c-244 13 -446 144 -466 300c-28 312 461 337 555 302
c25 -10 36 -25 29 -45s-35 -25 -49 -19c-26 11 -18 41 -78 47c-227 19 -383 -101 -392 -237c-3 -202 211 -294 414 -312c8 83 75 188 183 271zM433 230c-29 -58 -74 -162 -59 -275c27 1 55 5 85 14c226 65 321 390 225 430c-89 38 -202 -75 -251 -169zM557 741
c237 45 417 207 353 314c-44 60 -139 44 -218 5c-70 -35 -275 -170 -245 -329c39 1 76 4 110 10zM804 1326c0 0 0 5 0 4c0 0 53 37 61 66c4 18 -3 50 -3 50c-6 18 0 42 18 60c23 25 49 25 67 11c15 -12 18 -37 13 -56c-19 -76 -113 -127 -141 -140c-13 -6 -15 5 -15 5z" />
    <glyph glyph-name="Ecircumflex" unicode="&#xca;" horiz-adv-x="807" 
d="M543 1006c277 221 573 121 375 -115c-98 -100 -287 -174 -462 -190c32 -76 126 -101 163 -84c12 6 12 -5 9 -9c-12 -13 -35 -18 -42 -19c-9 -1 -18 -2 -26 -2c-73 -11 -403 -52 -429 -390c-8 -106 64 -225 202 -241c-7 58 -1 127 23 208c34 115 210 351 367 278
c142 -71 -28 -494 -343 -518c17 -73 62 -149 153 -218c7 -5 14 -24 -15 -18c-12 3 -145 69 -180 235c-148 4 -278 61 -297 232c-24 207 234 415 422 436h7c-68 15 -103 55 -110 107c-4 0 -8 0 -13 1c-244 13 -446 144 -466 300c-28 312 461 337 555 302
c25 -10 36 -25 29 -45s-35 -25 -49 -19c-26 11 -18 41 -78 47c-227 19 -383 -101 -392 -237c-3 -202 211 -294 414 -312c8 83 75 188 183 271zM433 230c-29 -58 -74 -162 -59 -275c27 1 55 5 85 14c226 65 321 390 225 430c-89 38 -202 -75 -251 -169zM557 741
c237 45 417 207 353 314c-44 60 -139 44 -218 5c-70 -35 -275 -170 -245 -329c39 1 76 4 110 10zM691 1315h-53l165 156c7 7 45 23 66 23c6 0 11 -2 13 -5l105 -174h-83c-25 38 -49 76 -75 114c-48 -39 -91 -76 -138 -114z" />
    <glyph glyph-name="Edieresis" unicode="&#xcb;" horiz-adv-x="807" 
d="M543 1006c277 221 573 121 375 -115c-98 -100 -287 -174 -462 -190c32 -76 126 -101 163 -84c12 6 12 -5 9 -9c-12 -13 -35 -18 -42 -19c-9 -1 -18 -2 -26 -2c-73 -11 -403 -52 -429 -390c-8 -106 64 -225 202 -241c-7 58 -1 127 23 208c34 115 210 351 367 278
c142 -71 -28 -494 -343 -518c17 -73 62 -149 153 -218c7 -5 14 -24 -15 -18c-12 3 -145 69 -180 235c-148 4 -278 61 -297 232c-24 207 234 415 422 436h7c-68 15 -103 55 -110 107c-4 0 -8 0 -13 1c-244 13 -446 144 -466 300c-28 312 461 337 555 302
c25 -10 36 -25 29 -45s-35 -25 -49 -19c-26 11 -18 41 -78 47c-227 19 -383 -101 -392 -237c-3 -202 211 -294 414 -312c8 83 75 188 183 271zM433 230c-29 -58 -74 -162 -59 -275c27 1 55 5 85 14c226 65 321 390 225 430c-89 38 -202 -75 -251 -169zM557 741
c237 45 417 207 353 314c-44 60 -139 44 -218 5c-70 -35 -275 -170 -245 -329c39 1 76 4 110 10zM692 1311c-30 0 -55 25 -55 56c0 30 25 56 55 56c31 0 56 -26 56 -56c0 -31 -25 -56 -56 -56zM926 1311c-31 0 -56 25 -56 56c0 30 25 56 56 56c30 0 55 -26 55 -56
c0 -31 -25 -56 -55 -56z" />
    <glyph glyph-name="Iacute" unicode="&#xcd;" horiz-adv-x="1076" 
d="M1276 1074c20 5 26 1 29 -4c3 -6 2 -19 -8 -21c-155 -34 -227 -375 -308 -634c-82 -260 -270 -461 -515 -472c-244 -10 -407 161 -437 352s66 380 263 461c22 9 37 2 41 -10c5 -12 3 -28 -13 -36c-25 -12 -56 28 -125 -54c-98 -125 -98 -245 -93 -323
c4 -79 80 -333 334 -353c404 -25 486 491 546 699s144 305 191 346c-61 -17 -329 61 -449 61c-125 0 -279 -74 -285 -223c1 -196 202 -226 275 -216s79 51 93 64c13 12 27 11 37 0s8 -28 -4 -36c-256 -147 -441 6 -461 136c-18 125 106 296 319 302c225 8 397 -96 570 -39z
M1131 1320c0 0 0 5 0 4c0 0 53 37 61 66c4 18 -3 50 -3 50c-6 18 0 42 18 60c23 25 49 25 67 11c15 -12 18 -37 13 -56c-19 -76 -113 -127 -141 -140c-13 -6 -15 5 -15 5z" />
    <glyph glyph-name="Icircumflex" unicode="&#xce;" horiz-adv-x="1076" 
d="M1276 1074c20 5 26 1 29 -4c3 -6 2 -19 -8 -21c-155 -34 -227 -375 -308 -634c-82 -260 -270 -461 -515 -472c-244 -10 -407 161 -437 352s66 380 263 461c22 9 37 2 41 -10c5 -12 3 -28 -13 -36c-25 -12 -56 28 -125 -54c-98 -125 -98 -245 -93 -323
c4 -79 80 -333 334 -353c404 -25 486 491 546 699s144 305 191 346c-61 -17 -329 61 -449 61c-125 0 -279 -74 -285 -223c1 -196 202 -226 275 -216s79 51 93 64c13 12 27 11 37 0s8 -28 -4 -36c-256 -147 -441 6 -461 136c-18 125 106 296 319 302c225 8 397 -96 570 -39z
M1001 1315h-53l165 156c7 7 45 23 66 23c6 0 11 -2 13 -5l105 -174h-83c-25 38 -49 76 -75 114c-48 -39 -91 -76 -138 -114z" />
    <glyph glyph-name="Idieresis" unicode="&#xcf;" horiz-adv-x="1076" 
d="M1276 1074c20 5 26 1 29 -4c3 -6 2 -19 -8 -21c-155 -34 -227 -375 -308 -634c-82 -260 -270 -461 -515 -472c-244 -10 -407 161 -437 352s66 380 263 461c22 9 37 2 41 -10c5 -12 3 -28 -13 -36c-25 -12 -56 28 -125 -54c-98 -125 -98 -245 -93 -323
c4 -79 80 -333 334 -353c404 -25 486 491 546 699s144 305 191 346c-61 -17 -329 61 -449 61c-125 0 -279 -74 -285 -223c1 -196 202 -226 275 -216s79 51 93 64c13 12 27 11 37 0s8 -28 -4 -36c-256 -147 -441 6 -461 136c-18 125 106 296 319 302c225 8 397 -96 570 -39z
M985 1311c-30 0 -55 25 -55 56c0 30 25 56 55 56c31 0 56 -26 56 -56c0 -31 -25 -56 -56 -56zM1219 1311c-31 0 -56 25 -56 56c0 30 25 56 56 56c30 0 55 -26 55 -56c0 -31 -25 -56 -55 -56z" />
    <glyph glyph-name="Ntilde" unicode="&#xd1;" horiz-adv-x="1472" 
d="M2074 1227c76 4 147 -27 120 -76c-11 -21 -37 -43 -77 -19c-38 23 -77 35 -115 24c-186 -50 -500 -444 -717 -1129c-8 -26 -8 -30 -13 -33c-4 -3 -19 -12 -39 -17c-20 -6 -28 10 -37 32c-69 218 -82 545 -104 782c-21 -69 -159 -328 -282 -567
c-96 -186 -266 -300 -462 -300c-104 0 -326 50 -321 272c11 286 280 323 302 324c23 1 36 -14 34 -35c-1 -16 -17 -32 -33 -30c-31 4 -33 25 -96 11c-68 -19 -144 -125 -141 -265c3 -150 109 -244 264 -244c172 0 325 118 401 248c104 185 230 446 293 583c1 1 1 3 2 4
c47 134 2 354 -168 369c-2 0 -18 1 -20 1v0v0c-89 -1 -184 -38 -265 -98c-82 -60 -149 -142 -182 -233c-14 -39 -21 -76 -21 -111c0 -61 21 -113 59 -149c38 -37 94 -65 164 -65c59 0 87 5 128 23c15 6 21 19 23 26c1 2 1 3 1 4l1 1v0c3 8 9 15 18 20c17 8 36 4 43 -10
c7 -13 -1 -29 -17 -39c-57 -38 -131 -49 -197 -49c-77 0 -140 24 -185 67c-44 43 -68 103 -68 171c0 39 7 79 23 122c35 97 106 184 192 247c83 61 185 110 295 106c113 -2 204 -62 235 -152c82 -242 64 -598 125 -908c7 -38 12 -44 18 -44c7 0 7 8 16 37
c351 1005 742 1096 803 1099zM1487 1366c-16 0 -52 -27 -53 -32c-13 -13 -28 -21 -43 -21c-19 0 -29 14 -29 29c0 47 62 70 91 70c70 0 76 -53 115 -53c17 0 52 30 54 34c12 12 27 20 41 20c20 0 30 -13 30 -29c0 -44 -57 -70 -90 -70c-54 0 -77 52 -116 52z" />
    <glyph glyph-name="Oacute" unicode="&#xd3;" 
d="M914 1049c2 -43 -8 -87 -26 -131c34 -71 44 -186 -1 -355c-99 -368 -350 -603 -551 -596c-137 0 -397 148 -273 544c4 12 7 23 11 34c-64 43 -105 112 -104 210c13 260 231 358 414 385c13 2 50 7 56 -23c6 -42 -40 -46 -55 -40c-58 21 -122 17 -186 -21
c-183 -109 -206 -334 -103 -456c144 342 453 539 621 560c182 23 191 -73 197 -111zM227 662c-22 -41 -40 -82 -54 -122c33 -16 72 -25 117 -25c288 3 450 265 497 352c8 14 15 28 21 44c-26 49 -57 50 -76 41c-29 -13 -10 -56 -8 -64c2 -9 -3 -8 -3 -8s-21 -2 -31 32
c-9 34 9 70 31 82c30 18 71 18 107 -5c9 63 -7 123 -72 143c-109 34 -350 -142 -529 -470zM346 1c301 -7 528 573 494 796c-1 8 -3 16 -4 23c-93 -141 -250 -266 -366 -307c-102 -31 -216 -37 -309 -9c-80 -268 12 -500 185 -503zM744 1325c0 0 0 5 0 4c0 0 53 37 61 66
c4 18 -3 50 -3 50c-6 18 0 42 18 60c23 25 49 25 67 11c15 -12 18 -37 13 -56c-19 -76 -113 -127 -141 -140c-13 -6 -15 5 -15 5z" />
    <glyph glyph-name="Ocircumflex" unicode="&#xd4;" 
d="M914 1049c2 -43 -8 -87 -26 -131c34 -71 44 -186 -1 -355c-99 -368 -350 -603 -551 -596c-137 0 -397 148 -273 544c4 12 7 23 11 34c-64 43 -105 112 -104 210c13 260 231 358 414 385c13 2 50 7 56 -23c6 -42 -40 -46 -55 -40c-58 21 -122 17 -186 -21
c-183 -109 -206 -334 -103 -456c144 342 453 539 621 560c182 23 191 -73 197 -111zM227 662c-22 -41 -40 -82 -54 -122c33 -16 72 -25 117 -25c288 3 450 265 497 352c8 14 15 28 21 44c-26 49 -57 50 -76 41c-29 -13 -10 -56 -8 -64c2 -9 -3 -8 -3 -8s-21 -2 -31 32
c-9 34 9 70 31 82c30 18 71 18 107 -5c9 63 -7 123 -72 143c-109 34 -350 -142 -529 -470zM346 1c301 -7 528 573 494 796c-1 8 -3 16 -4 23c-93 -141 -250 -266 -366 -307c-102 -31 -216 -37 -309 -9c-80 -268 12 -500 185 -503zM604 1315h-53l165 156c7 7 45 23 66 23
c6 0 11 -2 13 -5l105 -174h-83c-25 38 -49 76 -75 114c-48 -39 -91 -76 -138 -114z" />
    <glyph glyph-name="Odieresis" unicode="&#xd6;" 
d="M914 1049c2 -43 -8 -87 -26 -131c34 -71 44 -186 -1 -355c-99 -368 -350 -603 -551 -596c-137 0 -397 148 -273 544c4 12 7 23 11 34c-64 43 -105 112 -104 210c13 260 231 358 414 385c13 2 50 7 56 -23c6 -42 -40 -46 -55 -40c-58 21 -122 17 -186 -21
c-183 -109 -206 -334 -103 -456c144 342 453 539 621 560c182 23 191 -73 197 -111zM227 662c-22 -41 -40 -82 -54 -122c33 -16 72 -25 117 -25c288 3 450 265 497 352c8 14 15 28 21 44c-26 49 -57 50 -76 41c-29 -13 -10 -56 -8 -64c2 -9 -3 -8 -3 -8s-21 -2 -31 32
c-9 34 9 70 31 82c30 18 71 18 107 -5c9 63 -7 123 -72 143c-109 34 -350 -142 -529 -470zM346 1c301 -7 528 573 494 796c-1 8 -3 16 -4 23c-93 -141 -250 -266 -366 -307c-102 -31 -216 -37 -309 -9c-80 -268 12 -500 185 -503zM633 1313c-30 0 -55 25 -55 56
c0 30 25 56 55 56c31 0 56 -26 56 -56c0 -31 -25 -56 -56 -56zM867 1313c-31 0 -56 25 -56 56c0 30 25 56 56 56c30 0 55 -26 55 -56c0 -31 -25 -56 -55 -56z" />
    <glyph glyph-name="Ugrave" unicode="&#xd9;" 
d="M801 502h10s21 -3 17 -6c-56 -61 -144 -282 -144 -409c0 -23 8 -40 30 -42c41 0 65 59 72 67c3 6 9 10 15 10s8 -5 8 -9c0 -40 -71 -121 -127 -121c-58 0 -76 45 -76 87c0 57 25 124 38 150c0 0 -2 0 -3 1c-76 -130 -182 -236 -299 -236c-95 0 -126 54 -126 119
c0 93 60 217 92 297c46 116 127 315 127 498c0 133 -80 243 -239 243c-126 0 -305 -88 -348 -319c-5 -28 -8 -54 -8 -79c0 -211 174 -299 238 -317c15 -4 27 -6 36 -6c51 0 45 37 74 37c15 0 32 -12 32 -31c0 -34 -44 -36 -76 -36c-219 0 -363 158 -363 362
c0 236 185 417 408 417c235 0 303 -142 303 -299c0 -196 -103 -428 -123 -485c-34 -98 -81 -204 -81 -273c0 -44 12 -81 65 -81c82 0 211 66 330 358c32 78 74 99 118 103zM744 809c0 0 -2 7 -9 7c0 0 -137 -57 -137 -154c0 -30 17 -54 46 -54c26 0 55 30 55 62
c0 17 -11 14 -11 59c0 34 44 62 46 62c0 0 10 6 10 15v3z" />
    <glyph glyph-name="Uacute" unicode="&#xda;" 
d="M801 502h10s21 -3 17 -6c-56 -61 -144 -282 -144 -409c0 -23 8 -40 30 -42c41 0 65 59 72 67c3 6 9 10 15 10s8 -5 8 -9c0 -40 -71 -121 -127 -121c-58 0 -76 45 -76 87c0 57 25 124 38 150c0 0 -2 0 -3 1c-76 -130 -182 -236 -299 -236c-95 0 -126 54 -126 119
c0 93 60 217 92 297c46 116 127 315 127 498c0 133 -80 243 -239 243c-126 0 -305 -88 -348 -319c-5 -28 -8 -54 -8 -79c0 -211 174 -299 238 -317c15 -4 27 -6 36 -6c51 0 45 37 74 37c15 0 32 -12 32 -31c0 -34 -44 -36 -76 -36c-219 0 -363 158 -363 362
c0 236 185 417 408 417c235 0 303 -142 303 -299c0 -196 -103 -428 -123 -485c-34 -98 -81 -204 -81 -273c0 -44 12 -81 65 -81c82 0 211 66 330 358c32 78 74 99 118 103zM604 633c0 0 2 -11 15 -5c28 13 122 64 141 140c5 19 2 44 -13 56c-18 14 -44 14 -67 -11
c-18 -18 -24 -42 -18 -60c0 0 7 -32 3 -50c-8 -29 -61 -66 -61 -66c0 1 0 -4 0 -4z" />
    <glyph glyph-name="Ucircumflex" unicode="&#xdb;" 
d="M801 502h10s21 -3 17 -6c-56 -61 -144 -282 -144 -409c0 -23 8 -40 30 -42c41 0 65 59 72 67c3 6 9 10 15 10s8 -5 8 -9c0 -40 -71 -121 -127 -121c-58 0 -76 45 -76 87c0 57 25 124 38 150c0 0 -2 0 -3 1c-76 -130 -182 -236 -299 -236c-95 0 -126 54 -126 119
c0 93 60 217 92 297c46 116 127 315 127 498c0 133 -80 243 -239 243c-126 0 -305 -88 -348 -319c-5 -28 -8 -54 -8 -79c0 -211 174 -299 238 -317c15 -4 27 -6 36 -6c51 0 45 37 74 37c15 0 32 -12 32 -31c0 -34 -44 -36 -76 -36c-219 0 -363 158 -363 362
c0 236 185 417 408 417c235 0 303 -142 303 -299c0 -196 -103 -428 -123 -485c-34 -98 -81 -204 -81 -273c0 -44 12 -81 65 -81c82 0 211 66 330 358c32 78 74 99 118 103zM568 1181h-53l165 156c7 7 45 23 66 23c6 0 11 -2 13 -5l105 -174h-83c-25 38 -49 76 -75 114
c-48 -39 -91 -76 -138 -114z" />
    <glyph glyph-name="Udieresis" unicode="&#xdc;" 
d="M620 1183c-31 0 -57 25 -57 57c0 31 26 57 57 57s57 -26 57 -57c0 -32 -26 -57 -57 -57zM813 1183c-31 0 -57 25 -57 57c0 31 26 57 57 57s57 -26 57 -57c0 -32 -26 -57 -57 -57zM801 502h10s21 -3 17 -6c-56 -61 -144 -282 -144 -409c0 -23 8 -40 30 -42
c41 0 65 59 72 67c3 6 9 10 15 10s8 -5 8 -9c0 -40 -71 -121 -127 -121c-58 0 -76 45 -76 87c0 57 25 124 38 150c0 0 -2 0 -3 1c-76 -130 -182 -236 -299 -236c-95 0 -126 54 -126 119c0 93 60 217 92 297c46 116 127 315 127 498c0 133 -80 243 -239 243
c-126 0 -305 -88 -348 -319c-5 -28 -8 -54 -8 -79c0 -211 174 -299 238 -317c15 -4 27 -6 36 -6c51 0 45 37 74 37c15 0 32 -12 32 -31c0 -34 -44 -36 -76 -36c-219 0 -363 158 -363 362c0 236 185 417 408 417c235 0 303 -142 303 -299c0 -196 -103 -428 -123 -485
c-34 -98 -81 -204 -81 -273c0 -44 12 -81 65 -81c82 0 211 66 330 358c32 78 74 99 118 103z" />
    <glyph glyph-name="bullet" unicode="&#x2022;" horiz-adv-x="368" 
d="M199 196c-56 0 -103 45 -103 103c0 56 47 103 103 103s103 -47 103 -103c0 -58 -47 -103 -103 -103z" />
    <glyph glyph-name="quoteleft" unicode="&#x2018;" horiz-adv-x="624" 
d="M508 803c0 -11 -8 -18 -10 -18s-46 -28 -46 -62c0 -45 11 -42 11 -59c0 -32 -29 -62 -55 -62c-29 0 -46 24 -46 54c0 97 137 154 137 154c7 0 9 -7 9 -7z" />
    <glyph glyph-name="quotedblright" unicode="&#x201d;" horiz-adv-x="409" 
d="M133 607v2c0 9 9 15 9 15c1 0 46 28 46 61c0 47 -10 43 -10 60c0 33 29 62 55 62c29 0 46 -26 46 -54c0 -99 -145 -153 -138 -153c-6 0 -8 7 -8 7zM290 607v2c0 9 9 15 9 15c1 0 46 28 46 61c0 47 -10 43 -10 60c0 33 29 62 55 62c29 0 46 -26 46 -54
c0 -99 -145 -153 -138 -153c-6 0 -8 7 -8 7z" />
    <glyph glyph-name="quotedblleft" unicode="&#x201c;" horiz-adv-x="435" 
d="M287 803v-3c0 -9 -10 -15 -10 -15c-2 0 -46 -28 -46 -62c0 -45 11 -42 11 -59c0 -32 -29 -62 -55 -62c-29 0 -46 24 -46 54c0 97 137 154 137 154c7 0 9 -7 9 -7zM442 803v-3c0 -9 -10 -15 -10 -15c-2 0 -46 -28 -46 -62c0 -45 11 -42 11 -59c0 -32 -29 -62 -55 -62
c-29 0 -46 24 -46 54c0 97 137 154 137 154c7 0 9 -7 9 -7z" />
    <glyph glyph-name="abreve" unicode="&#x103;" horiz-adv-x="550" 
d="M496 381l-55 -173c-28 -91 -35 -163 -1 -165c40 -2 56 38 74 68c0 0 7 11 16 7c7 -4 7 -10 5 -16c-18 -51 -71 -112 -134 -112c-99 0 -69 110 -48 176h-2c-29 -70 -156 -210 -256 -159c-207 105 92 555 262 500c30 -10 72 -40 68 -122c33 91 67 112 114 116
c0 0 24 -1 14 -10c-30 -24 -57 -110 -57 -110zM397 354c5 70 -10 112 -48 117c-96 14 -204 -165 -226 -254c-18 -70 -16 -144 40 -158c122 -31 225 193 234 295zM500 715h63c-34 -65 -111 -110 -184 -110s-113 38 -91 109v1h67c-5 -32 4 -84 44 -84c52 0 84 43 101 83v1z
" />
    <glyph glyph-name="aacute" unicode="&#xe1;" horiz-adv-x="550" 
d="M496 381l-55 -173c-28 -91 -35 -163 -1 -165c40 -2 56 38 74 68c0 0 7 11 16 7c7 -4 7 -10 5 -16c-18 -51 -71 -112 -134 -112c-99 0 -69 110 -48 176h-2c-29 -70 -156 -210 -256 -159c-207 105 92 555 262 500c30 -10 72 -40 68 -122c33 91 67 112 114 116
c0 0 24 -1 14 -10c-30 -24 -57 -110 -57 -110zM397 354c5 70 -10 112 -48 117c-96 14 -204 -165 -226 -254c-18 -70 -16 -144 40 -158c122 -31 225 193 234 295zM359 607c-2 10 9 17 9 17s49 24 54 53c3 18 -7 50 -7 50c-7 18 -3 42 13 60c21 25 47 25 66 11
c16 -12 21 -37 18 -56c-13 -76 -111 -127 -138 -140c-12 -6 -15 5 -15 5z" />
    <glyph glyph-name="agrave" unicode="&#xe0;" horiz-adv-x="550" 
d="M496 381l-55 -173c-28 -91 -35 -163 -1 -165c40 -2 56 38 74 68c0 0 7 11 16 7c7 -4 7 -10 5 -16c-18 -51 -71 -112 -134 -112c-99 0 -69 110 -48 176h-2c-29 -70 -156 -210 -256 -159c-207 105 92 555 262 500c30 -10 72 -40 68 -122c33 91 67 112 114 116
c0 0 24 -1 14 -10c-30 -24 -57 -110 -57 -110zM397 354c5 70 -10 112 -48 117c-96 14 -204 -165 -226 -254c-18 -70 -16 -144 40 -158c122 -31 225 193 234 295zM487 803v-3c0 -9 -10 -15 -10 -15c-2 0 -46 -28 -46 -62c0 -45 11 -42 11 -59c0 -32 -29 -62 -55 -62
c-29 0 -46 24 -46 54c0 97 137 154 137 154c7 0 9 -7 9 -7z" />
    <glyph glyph-name="acircumflex" unicode="&#xe2;" horiz-adv-x="550" 
d="M496 381l-55 -173c-28 -91 -35 -163 -1 -165c40 -2 56 38 74 68c0 0 7 11 16 7c7 -4 7 -10 5 -16c-18 -51 -71 -112 -134 -112c-99 0 -69 110 -48 176h-2c-29 -70 -156 -210 -256 -159c-207 105 92 555 262 500c30 -10 72 -40 68 -122c33 91 67 112 114 116
c0 0 24 -1 14 -10c-30 -24 -57 -110 -57 -110zM397 354c5 70 -10 112 -48 117c-96 14 -204 -165 -226 -254c-18 -70 -16 -144 40 -158c122 -31 225 193 234 295zM246 609h-53l165 156c9 9 70 33 79 18l105 -174h-83c-25 38 -49 76 -75 114c-48 -39 -91 -76 -138 -114z" />
    <glyph glyph-name="dotbelowcomb" unicode="&#x323;" horiz-adv-x="605" 
d="M346 -228c-31 0 -57 25 -57 57c0 31 26 57 57 57s57 -26 57 -57c0 -32 -26 -57 -57 -57z" />
    <glyph glyph-name="acutecomb" unicode="&#x301;" 
d="M392 607c-2 10 9 17 9 17s41 24 46 53c3 18 -7 50 -7 50c-7 18 -3 42 13 60c21 25 47 25 66 11c16 -12 21 -37 18 -56c-13 -76 -103 -127 -130 -140c-12 -6 -15 5 -15 5z" />
    <glyph glyph-name="Ydieresis" unicode="&#x178;" horiz-adv-x="1076" 
d="M878 -49c182 7 405 -13 438 -151c11 -46 -27 -122 -100 -137c-1 0 -21 -3 -16 4c6 9 67 45 36 130c-33 93 -185 130 -367 128c0 0 -1 -1 -1 -2c-20 -56 -171 -463 -542 -450c-92 3 -205 45 -209 147c-3 98 137 239 517 305c1 0 75 13 174 21c2 4 3 8 4 11
c40 109 70 212 80 244c0 0 4 13 10 32c-82 -137 -196 -247 -321 -233c-193 26 -64 284 -11 416c46 118 129 321 127 506c-1 131 -84 236 -240 237c-126 0 -305 -87 -348 -320c-50 -269 159 -377 230 -397c71 -19 78 16 94 26c15 11 33 5 43 -8c11 -14 7 -41 -16 -48
c-276 -45 -452 181 -414 425c34 208 210 359 420 350c505 -21 200 -682 165 -786c-52 -150 -135 -321 -32 -344c80 -10 227 26 359 349l-1 -2c10 25 20 44 30 59v0l1 1c25 34 51 45 84 48c0 0 25 -1 14 -10c-28 -26 -46 -78 -46 -78s-113 -332 -162 -473zM365 -501
c105 -2 287 42 435 424c-55 -3 -111 -9 -167 -18c-425 -66 -444 -255 -444 -273c1 -81 82 -132 176 -133zM854 1182c-30 0 -55 25 -55 56c0 30 25 56 55 56c31 0 56 -26 56 -56c0 -31 -25 -56 -56 -56zM1088 1182c-31 0 -56 25 -56 56c0 30 25 56 56 56c30 0 55 -26 55 -56
c0 -31 -25 -56 -55 -56z" />
    <glyph glyph-name="dcaron" unicode="&#x10f;" horiz-adv-x="831" 
d="M551 102c-17 -52 -70 -112 -133 -112c-99 0 -79 110 -59 176h-3c-27 -70 -152 -211 -253 -160c-221 111 82 557 254 502c30 -10 73 -40 70 -122c45 177 107 305 170 421c77 140 167 226 207 261c122 110 273 128 336 102c59 -25 13 -76 -20 -62c-163 72 -289 1 -437 -266
c-69 -125 -115 -238 -143 -318c-10 -23 -36 -95 -78 -254c-8 -29 -69 -224 -6 -228c41 -2 56 38 74 69c0 0 6 11 16 6c7 -3 7 -10 5 -15zM399 355c4 69 -12 112 -50 117c-89 14 -195 -166 -216 -255c-16 -70 -19 -144 37 -158c123 -32 223 193 229 296zM758 607
c0 0 2 -7 8 -7c-7 0 138 54 138 153c0 28 -17 54 -46 54c-26 0 -55 -29 -55 -62c0 -17 10 -13 10 -60c0 -33 -45 -61 -46 -61c0 0 -9 -6 -9 -15v-2z" />
    <glyph glyph-name="quotedbl" unicode="&#x22;" horiz-adv-x="409" 
d="M133 607c-2 10 9 17 9 17s41 24 46 53c3 18 -7 50 -7 50c-7 18 -3 42 13 60c21 25 47 25 66 11c16 -12 21 -37 18 -56c-13 -76 -103 -127 -130 -140c-12 -6 -15 5 -15 5zM290 607c-2 10 9 17 9 17s41 24 46 53c3 18 -7 50 -7 50c-7 18 -3 42 13 60c21 25 47 25 66 11
c16 -12 21 -37 18 -56c-13 -76 -103 -127 -130 -140c-12 -6 -15 5 -15 5z" />
    <glyph glyph-name="Scaron" unicode="&#x160;" horiz-adv-x="854" 
d="M891 1123c25 -27 39 -64 39 -105c0 -25 -5 -52 -16 -80c-23 -58 -67 -109 -119 -146c-53 -37 -114 -60 -174 -60h-4c104 -100 250 -221 226 -429c-26 -231 -230 -305 -350 -322c-117 -163 -318 -291 -563 -282c-86 2 -125 33 -120 74c1 13 10 24 23 32c11 11 66 5 53 -17
c-6 -5 -9 -11 -9 -19c-2 -26 47 -50 126 -45c86 8 305 69 436 252c-7 0 -14 0 -19 1c-62 6 -403 53 -406 363c2 115 94 247 229 269c129 21 324 -32 358 -267c14 -103 -18 -221 -85 -328c83 16 255 86 252 319c-2 200 -185 289 -274 419c-82 21 -121 48 -128 57
c-7 14 -9 26 3 36s25 1 25 1c15 -10 16 -30 34 -42c12 -8 31 -15 46 -19c-21 42 -33 88 -26 143c20 158 185 232 266 244c33 5 71 4 106 -5c23 -6 52 -24 71 -44zM462 11c49 81 81 183 81 311c-14 214 -177 287 -313 253c-144 -36 -172 -198 -146 -303
c25 -97 112 -249 378 -261zM886 949c9 25 14 48 14 69c0 34 -11 63 -31 84s-49 34 -86 39c-25 4 -53 3 -81 -2c-90 -17 -180 -111 -183 -219c-3 -61 25 -109 65 -154c10 -2 21 -4 32 -4h5c52 0 108 21 156 55c49 33 88 81 109 132zM786 1309h-67c-34 56 -67 113 -101 169h83
c24 -38 48 -76 74 -114c48 40 92 76 138 114h53c-55 -52 -110 -104 -164 -156c-6 -4 -11 -9 -16 -13z" />
    <glyph glyph-name="Sacute" unicode="&#x15a;" horiz-adv-x="854" 
d="M891 1123c25 -27 39 -64 39 -105c0 -25 -5 -52 -16 -80c-23 -58 -67 -109 -119 -146c-53 -37 -114 -60 -174 -60h-4c104 -100 250 -221 226 -429c-26 -231 -230 -305 -350 -322c-117 -163 -318 -291 -563 -282c-86 2 -125 33 -120 74c1 13 10 24 23 32c11 11 66 5 53 -17
c-6 -5 -9 -11 -9 -19c-2 -26 47 -50 126 -45c86 8 305 69 436 252c-7 0 -14 0 -19 1c-62 6 -403 53 -406 363c2 115 94 247 229 269c129 21 324 -32 358 -267c14 -103 -18 -221 -85 -328c83 16 255 86 252 319c-2 200 -185 289 -274 419c-82 21 -121 48 -128 57
c-7 14 -9 26 3 36s25 1 25 1c15 -10 16 -30 34 -42c12 -8 31 -15 46 -19c-21 42 -33 88 -26 143c20 158 185 232 266 244c33 5 71 4 106 -5c23 -6 52 -24 71 -44zM462 11c49 81 81 183 81 311c-14 214 -177 287 -313 253c-144 -36 -172 -198 -146 -303
c25 -97 112 -249 378 -261zM886 949c9 25 14 48 14 69c0 34 -11 63 -31 84s-49 34 -86 39c-25 4 -53 3 -81 -2c-90 -17 -180 -111 -183 -219c-3 -61 25 -109 65 -154c10 -2 21 -4 32 -4h5c52 0 108 21 156 55c49 33 88 81 109 132zM774 1323c-2 10 9 17 9 17s41 24 46 53
c3 18 -7 50 -7 50c-7 18 -3 42 13 60c21 25 47 25 66 11c16 -12 21 -37 18 -56c-13 -76 -103 -127 -130 -140c-12 -6 -15 5 -15 5z" />
    <glyph glyph-name="Tcaron" unicode="&#x164;" 
d="M1559 1140c30 0 87 -12 87 -54c0 -72 -172 -194 -383 -194c-130 0 -254 34 -364 71l-189 -616s-57 -209 -175 -304c-58 -47 -112 -61 -158 -61c-64 0 -110 28 -124 36c-16 8 -25 19 -25 36s15 36 34 36c41 0 65 -74 129 -74c18 0 38 4 61 12c65 23 110 145 134 209
c21 55 188 594 237 753c-138 53 -274 120 -430 120c-143 0 -291 -60 -291 -242c0 -162 165 -223 218 -233c22 -4 54 -9 88 -9c52 0 111 10 143 44c47 51 37 89 78 89c13 0 25 -5 25 -23c0 -7 -3 -17 -13 -30c-21 -26 -102 -115 -296 -115c-226 0 -331 150 -331 267
c0 87 116 288 394 288c156 0 302 -57 430 -108c14 34 80 71 96 71c5 0 6 -3 6 -7c0 -6 -3 -14 -3 -14l-24 -79c121 -46 241 -86 378 -86c200 0 277 94 277 145c0 33 -37 41 -52 41c-69 0 -44 -48 -84 -48c-15 0 -30 8 -30 22c0 10 7 21 28 29c16 6 76 28 129 28zM940 1316
h-67c-34 56 -67 113 -101 169h83c24 -38 48 -76 74 -114c48 40 92 76 138 114h53c-55 -52 -110 -104 -164 -156c-6 -4 -11 -9 -16 -13z" />
    <glyph glyph-name="Zcaron" unicode="&#x17d;" horiz-adv-x="1312" 
d="M1673 1154c3 -3 14 -11 4 -37c-10 -25 -122 -127 -218 -243c-150 -185 -291 -341 -421 -469c94 23 164 65 196 82c49 26 55 74 71 87c7 8 32 21 51 7c13 -7 20 -35 0 -51c-103 -81 -229 -138 -357 -163c-182 -174 -343 -294 -480 -365c68 -66 139 -150 228 -245
c166 -176 361 -211 489 -196c192 23 278 164 258 243c-38 121 -225 134 -375 51c-43 -20 -46 -48 -55 -60s-27 -18 -43 -5c-17 13 -10 36 2 44c341 194 559 97 558 -36c-7 -101 -96 -228 -343 -265c-459 -27 -624 255 -784 438c-77 -33 -146 -49 -205 -49
c-201 -5 -226 87 -225 116s34 115 170 116c122 -1 209 -48 296 -125c135 72 283 192 425 326c-188 -17 -371 37 -488 183c-95 141 -80 376 176 528c326 178 699 -102 1019 80c40 18 48 10 51 8zM246 -40c55 -4 117 11 183 39c-56 60 -114 106 -185 118
c-73 12 -120 -13 -137 -59c-20 -55 46 -91 139 -98zM1533 1042c12 17 -5 22 -28 15c-205 -52 -414 28 -658 31c-178 2 -369 -102 -374 -352c-4 -250 232 -339 404 -348c26 -1 50 0 74 2c311 300 578 647 582 652zM1387 1313h-67c-34 56 -67 113 -101 169h83
c24 -38 48 -76 74 -114c48 40 92 76 138 114h53c-55 -52 -110 -104 -164 -156c-6 -4 -11 -9 -16 -13z" />
    <glyph glyph-name="Zacute" unicode="&#x179;" horiz-adv-x="1312" 
d="M1673 1154c3 -3 14 -11 4 -37c-10 -25 -122 -127 -218 -243c-150 -185 -291 -341 -421 -469c94 23 164 65 196 82c49 26 55 74 71 87c7 8 32 21 51 7c13 -7 20 -35 0 -51c-103 -81 -229 -138 -357 -163c-182 -174 -343 -294 -480 -365c68 -66 139 -150 228 -245
c166 -176 361 -211 489 -196c192 23 278 164 258 243c-38 121 -225 134 -375 51c-43 -20 -46 -48 -55 -60s-27 -18 -43 -5c-17 13 -10 36 2 44c341 194 559 97 558 -36c-7 -101 -96 -228 -343 -265c-459 -27 -624 255 -784 438c-77 -33 -146 -49 -205 -49
c-201 -5 -226 87 -225 116s34 115 170 116c122 -1 209 -48 296 -125c135 72 283 192 425 326c-188 -17 -371 37 -488 183c-95 141 -80 376 176 528c326 178 699 -102 1019 80c40 18 48 10 51 8zM246 -40c55 -4 117 11 183 39c-56 60 -114 106 -185 118
c-73 12 -120 -13 -137 -59c-20 -55 46 -91 139 -98zM1533 1042c12 17 -5 22 -28 15c-205 -52 -414 28 -658 31c-178 2 -369 -102 -374 -352c-4 -250 232 -339 404 -348c26 -1 50 0 74 2c311 300 578 647 582 652zM1271 1325c-2 10 9 17 9 17s41 24 46 53c3 18 -7 50 -7 50
c-7 18 -3 42 13 60c21 25 47 25 66 11c16 -12 21 -37 18 -56c-13 -76 -103 -127 -130 -140c-12 -6 -15 5 -15 5z" />
    <glyph glyph-name="tcaron" unicode="&#x165;" horiz-adv-x="625" 
d="M244 478l-89 -267c-30 -92 -41 -163 -7 -165c40 -3 58 38 77 68c0 0 8 11 17 7c7 -4 5 -10 3 -16c-20 -51 -75 -112 -138 -112c-99 0 -65 110 -42 176c10 30 42 126 74 225c30 86 -11 90 -15 90c-11 0 -15 8 -15 17c0 10 8 18 21 18h47c3 0 7 2 8 6c24 72 43 127 43 127
c35 90 72 111 118 115c0 0 25 -1 14 -10c-32 -24 -61 -110 -61 -110s-38 -118 -39 -122c-2 -4 1 -6 4 -6h131s11 -10 8 -19c-2 -8 -9 -16 -23 -16h-128s-8 -6 -8 -6zM551 607v2c0 9 9 15 9 15c1 0 46 28 46 61c0 47 -10 43 -10 60c0 33 29 62 55 62c29 0 46 -26 46 -54
c0 -99 -145 -153 -138 -153c-6 0 -8 7 -8 7z" />
    <glyph glyph-name="Yacute" unicode="&#xdd;" horiz-adv-x="1076" 
d="M878 -49c182 7 405 -13 438 -151c11 -46 -27 -122 -100 -137c-1 0 -21 -3 -16 4c6 9 67 45 36 130c-33 93 -185 130 -367 128c0 0 -1 -1 -1 -2c-20 -56 -171 -463 -542 -450c-92 3 -205 45 -209 147c-3 98 137 239 517 305c1 0 75 13 174 21c2 4 3 8 4 11
c40 109 70 212 80 244c0 0 4 13 10 32c-82 -137 -196 -247 -321 -233c-193 26 -64 284 -11 416c46 118 129 321 127 506c-1 131 -84 236 -240 237c-126 0 -305 -87 -348 -320c-50 -269 159 -377 230 -397c71 -19 78 16 94 26c15 11 33 5 43 -8c11 -14 7 -41 -16 -48
c-276 -45 -452 181 -414 425c34 208 210 359 420 350c505 -21 200 -682 165 -786c-52 -150 -135 -321 -32 -344c80 -10 227 26 359 349l-1 -2c10 25 20 44 30 59v0l1 1c25 34 51 45 84 48c0 0 25 -1 14 -10c-28 -26 -46 -78 -46 -78s-113 -332 -162 -473zM365 -501
c105 -2 287 42 435 424c-55 -3 -111 -9 -167 -18c-425 -66 -444 -255 -444 -273c1 -81 82 -132 176 -133zM846 614c0 0 3 -11 15 -5c27 13 117 64 130 140c3 19 -2 44 -18 56c-19 14 -45 14 -66 -11c-16 -18 -20 -42 -13 -60c0 0 10 -32 7 -50c-5 -29 -46 -53 -46 -53
s-11 -7 -9 -17z" />
    <glyph glyph-name="Tcommaaccent" unicode="&#x162;" 
d="M295 -323c0 0 2 -12 15 -6c27 13 117 64 129 141c3 19 -1 44 -17 55c-19 15 -45 14 -67 -10c-16 -19 -19 -42 -13 -60c0 0 11 -32 7 -50c-5 -29 -45 -53 -45 -53s-11 -7 -9 -17zM1559 1140c30 0 87 -12 87 -54c0 -72 -172 -194 -383 -194c-130 0 -254 34 -364 71
l-189 -616s-57 -209 -175 -304c-58 -47 -112 -61 -158 -61c-64 0 -110 28 -124 36c-16 8 -25 19 -25 36s15 36 34 36c41 0 65 -74 129 -74c18 0 38 4 61 12c65 23 110 145 134 209c21 55 188 594 237 753c-138 53 -274 120 -430 120c-143 0 -291 -60 -291 -242
c0 -162 165 -223 218 -233c22 -4 54 -9 88 -9c52 0 111 10 143 44c47 51 37 89 78 89c13 0 25 -5 25 -23c0 -7 -3 -17 -13 -30c-21 -26 -102 -115 -296 -115c-226 0 -331 150 -331 267c0 87 116 288 394 288c156 0 302 -57 430 -108c14 34 80 71 96 71c5 0 6 -3 6 -7
c0 -6 -3 -14 -3 -14l-24 -79c121 -46 241 -86 378 -86c200 0 277 94 277 145c0 33 -37 41 -52 41c-69 0 -44 -48 -84 -48c-15 0 -30 8 -30 22c0 10 7 21 28 29c16 6 76 28 129 28z" />
    <glyph glyph-name="Lcaron" unicode="&#x13d;" horiz-adv-x="866" 
d="M1681 -94c25 -9 11 -31 -1 -54s-153 -283 -484 -288c-330 -4 -521 183 -619 249c-30 20 -68 52 -113 84c-17 -14 -35 -26 -52 -36c-153 -90 -407 -65 -390 64c24 121 210 116 289 95c44 -11 97 -31 156 -61c90 113 159 289 211 429c9 22 18 47 28 75
c-33 -8 -68 -13 -105 -15c-316 -15 -347 240 -338 326c9 85 79 327 353 407c33 8 49 1 48 -26c0 -22 -24 -32 -51 -25c-33 7 -103 -10 -159 -69s-130 -166 -126 -319c3 -153 139 -274 335 -260c18 1 36 5 54 10c90 240 242 618 447 668c97 21 140 -50 95 -182
c-36 -108 -194 -384 -468 -489c-8 -26 -17 -53 -26 -82c-74 -235 -166 -381 -256 -470c76 -41 163 -97 259 -167c195 -141 596 -371 857 103c10 19 31 43 56 33zM1039 1025c-60 -75 -131 -191 -235 -499c165 86 335 283 392 474c17 74 20 118 -15 125
c-36 7 -74 -15 -142 -100zM375 -126c20 12 39 28 57 46c-66 45 -142 85 -215 86c-94 -1 -129 -34 -134 -78c-5 -79 182 -121 292 -54zM1115 1320v2c0 9 9 15 9 15c1 0 46 28 46 61c0 47 -10 43 -10 60c0 33 29 62 55 62c29 0 46 -26 46 -54c0 -99 -145 -153 -138 -153
c-6 0 -8 7 -8 7z" />
    <glyph glyph-name="lcaron" unicode="&#x13e;" horiz-adv-x="701" 
d="M82 -5c-37 8 -56 33 -56 73c0 17 3 39 11 61c168 501 267 762 469 943c91 81 196 112 270 112c61 0 94 -21 94 -43c0 -17 -17 -33 -34 -33c-5 0 -10 1 -14 4c-33 20 -66 29 -99 29c-211 0 -406 -385 -480 -612c-50 -132 -126 -396 -131 -413c0 0 -5 -15 -5 -31
c0 -19 7 -40 36 -42c49 0 62 80 85 80c7 0 11 -6 11 -10c0 -2 0 -4 -1 -6c-17 -47 -70 -114 -138 -114c-6 0 -12 1 -18 2zM575 607c0 0 2 -7 8 -7c-7 0 138 54 138 153c0 28 -17 54 -46 54c-26 0 -55 -29 -55 -62c0 -17 10 -13 10 -60c0 -33 -45 -61 -46 -61
c0 0 -9 -6 -9 -15v-2z" />
    <glyph glyph-name="Racute" unicode="&#x154;" horiz-adv-x="1387" 
d="M2090 -579c-6 -6 -42 -33 -133 -35c-153 5 -483 24 -780 746c-42 108 -70 206 -98 269c-36 -6 -70 -7 -98 -4c0 0 -75 12 -61 65c9 25 38 65 135 38c27 -10 49 -31 69 -57c134 43 275 174 311 333c41 179 -35 334 -255 353c-8 0 -15 1 -23 1c-15 0 -30 -5 -35 -17
c-6 -19 -69 -213 -244 -719c-166 -477 -428 -475 -588 -444c-117 24 -264 123 -271 295c-6 141 77 257 190 322c4 60 22 126 55 192c116 228 422 421 794 420c426 -2 511 -222 468 -407c-58 -197 -233 -313 -384 -357c46 -78 75 -188 107 -258c73 -175 337 -739 712 -747
c90 -2 92 13 101 36c5 12 21 18 32 8c10 -9 6 -24 -4 -33zM281 572c-2 -83 20 -156 68 -193c113 -86 195 -12 217 24c19 31 39 124 -90 172c-72 23 -138 18 -195 -3zM1033 1096c3 15 3 34 -14 38c-331 -7 -506 -124 -630 -269c-61 -71 -97 -171 -106 -264
c69 24 143 30 210 13c95 -24 171 -128 100 -242c-84 -112 -218 -114 -300 -44c-52 45 -83 117 -85 203c-49 -36 -85 -85 -103 -131c-32 -83 -48 -335 191 -408c296 -90 442 203 523 451c81 251 198 600 214 653zM998 430c21 -3 44 -4 67 -1c-11 20 -23 34 -35 41
c-13 6 -51 15 -65 0c-21 -31 26 -38 33 -40zM1243 1325c-2 10 9 17 9 17s41 24 46 53c3 18 -7 50 -7 50c-7 18 -3 42 13 60c21 25 47 25 66 11c16 -12 21 -37 18 -56c-13 -76 -103 -127 -130 -140c-12 -6 -15 5 -15 5z" />
    <glyph glyph-name="Lacute" unicode="&#x139;" horiz-adv-x="866" 
d="M1681 -94c25 -9 11 -31 -1 -54s-153 -283 -484 -288c-330 -4 -521 183 -619 249c-30 20 -68 52 -113 84c-17 -14 -35 -26 -52 -36c-153 -90 -407 -65 -390 64c24 121 210 116 289 95c44 -11 97 -31 156 -61c90 113 159 289 211 429c9 22 18 47 28 75
c-33 -8 -68 -13 -105 -15c-316 -15 -347 240 -338 326c9 85 79 327 353 407c33 8 49 1 48 -26c0 -22 -24 -32 -51 -25c-33 7 -103 -10 -159 -69s-130 -166 -126 -319c3 -153 139 -274 335 -260c18 1 36 5 54 10c90 240 242 618 447 668c97 21 140 -50 95 -182
c-36 -108 -194 -384 -468 -489c-8 -26 -17 -53 -26 -82c-74 -235 -166 -381 -256 -470c76 -41 163 -97 259 -167c195 -141 596 -371 857 103c10 19 31 43 56 33zM1039 1025c-60 -75 -131 -191 -235 -499c165 86 335 283 392 474c17 74 20 118 -15 125
c-36 7 -74 -15 -142 -100zM375 -126c20 12 39 28 57 46c-66 45 -142 85 -215 86c-94 -1 -129 -34 -134 -78c-5 -79 182 -121 292 -54zM1137 1320c-2 10 9 17 9 17s41 24 46 53c3 18 -7 50 -7 50c-7 18 -3 42 13 60c21 25 47 25 66 11c16 -12 21 -37 18 -56
c-13 -76 -103 -127 -130 -140c-12 -6 -15 5 -15 5z" />
    <glyph glyph-name="Cacute" unicode="&#x106;" horiz-adv-x="874" 
d="M774 1105c361 137 378 -77 303 -231c-87 -178 -330 -392 -801 -389c-86 -246 -26 -486 190 -510c90 -3 212 18 336 198c14 20 25 23 32 19c17 -8 15 -22 8 -35c-23 -41 -170 -239 -406 -216c-222 21 -380 224 -250 553c-132 25 -327 108 -330 318c-4 247 326 494 698 492
c49 -1 44 -34 40 -42c-5 -9 -21 -27 -41 -20c-21 6 -32 30 -97 25c-134 -11 -512 -126 -512 -448c5 -117 88 -239 261 -280c9 19 18 38 29 58c129 237 349 427 540 508zM1029 882c35 82 61 256 -185 210c-131 -28 -311 -142 -496 -456c-22 -36 -41 -73 -56 -110
c3 -1 6 -1 9 -1c359 -16 646 177 728 357zM921 1320c-2 10 9 17 9 17s41 24 46 53c3 18 -7 50 -7 50c-7 18 -3 42 13 60c21 25 47 25 66 11c16 -12 21 -37 18 -56c-13 -76 -103 -127 -130 -140c-12 -6 -15 5 -15 5z" />
    <glyph glyph-name="Ccaron" unicode="&#x10c;" horiz-adv-x="874" 
d="M774 1105c361 137 378 -77 303 -231c-87 -178 -330 -392 -801 -389c-86 -246 -26 -486 190 -510c90 -3 212 18 336 198c14 20 25 23 32 19c17 -8 15 -22 8 -35c-23 -41 -170 -239 -406 -216c-222 21 -380 224 -250 553c-132 25 -327 108 -330 318c-4 247 326 494 698 492
c49 -1 44 -34 40 -42c-5 -9 -21 -27 -41 -20c-21 6 -32 30 -97 25c-134 -11 -512 -126 -512 -448c5 -117 88 -239 261 -280c9 19 18 38 29 58c129 237 349 427 540 508zM1029 882c35 82 61 256 -185 210c-131 -28 -311 -142 -496 -456c-22 -36 -41 -73 -56 -110
c3 -1 6 -1 9 -1c359 -16 646 177 728 357zM974 1315h-67c-34 56 -67 113 -101 169h83c24 -38 48 -76 74 -114c48 40 92 76 138 114h53c-55 -52 -110 -104 -164 -156c-6 -4 -11 -9 -16 -13z" />
    <glyph glyph-name="Eogonek" unicode="&#x118;" horiz-adv-x="807" 
d="M385 -289l3 -16c-6 -2 -39 -9 -51 -9c-63 0 -110 40 -110 89c0 60 25 100 89 139c7 5 15 8 23 11c-158 10 -300 75 -300 257c0 198 244 389 424 409h7c-68 15 -103 55 -110 107c-4 0 -8 0 -13 1c-257 14 -467 158 -467 325c0 226 286 289 453 289c95 0 134 -17 134 -46
c0 -22 -20 -33 -38 -33c-5 0 -9 1 -13 3c-34 14 -11 49 -125 49c-201 0 -337 -113 -345 -239c0 -202 209 -294 414 -312c7 84 76 187 183 271c108 85 216 123 301 123c82 0 138 -37 138 -100c0 -159 -274 -305 -526 -328c26 -61 91 -89 135 -89c15 0 28 7 34 7
c3 0 5 -3 5 -6c0 -2 -1 -4 -2 -5c-24 -26 -58 -21 -68 -21c-73 -11 -403 -52 -429 -390c-1 -5 -1 -11 -1 -16c0 -102 72 -210 203 -225c-2 15 -3 30 -3 47c0 47 8 101 26 161c29 100 167 292 305 292c68 0 111 -39 111 -114c0 -149 -158 -399 -391 -417c0 0 -1 0 -1 -1
c-44 -28 -87 -77 -87 -135c0 -41 29 -80 73 -80c6 0 12 0 19 2zM557 741c204 39 366 164 366 267c0 61 -52 87 -103 87c-40 0 -86 -14 -128 -35c-65 -32 -248 -153 -248 -297c0 -11 1 -21 3 -32c39 1 76 4 110 10zM433 230c-25 -50 -62 -135 -62 -229c0 -15 1 -31 3 -46
c219 8 347 228 347 364c0 59 -26 87 -75 87c-81 0 -171 -95 -213 -176z" />
    <glyph glyph-name="Dcaron" unicode="&#x10e;" horiz-adv-x="1381" 
d="M876 1159c405 -63 604 -341 533 -694c-78 -388 -411 -556 -619 -544c-144 8 -228 56 -310 106c-103 -102 -202 -100 -244 -100c-55 0 -217 36 -184 139c20 62 89 99 200 102c76 0 148 -33 220 -73c22 35 40 74 57 112c-532 -39 -697 556 -204 841
c188 112 419 131 551 111zM232 -25c96 -23 161 15 209 75c-38 23 -77 44 -124 62c-91 39 -170 17 -196 -18c-25 -36 -12 -91 111 -119zM156 439c96 -160 254 -208 391 -194c2 4 4 9 6 13c65 135 234 733 262 834c4 16 -3 32 -25 34c-13 1 -26 1 -39 1
c-569 -12 -713 -448 -595 -688zM1318 459c53 400 -148 589 -390 648c-18 0 -35 -13 -38 -25c-26 -113 -153 -563 -265 -822c131 40 178 133 189 173c6 21 29 28 55 21c25 -7 23 -30 18 -46c-35 -71 -188 -158 -280 -188c-9 -21 -19 -40 -28 -57c-20 -37 -41 -68 -62 -94
c110 -64 226 -131 367 -112c191 28 389 240 434 502zM1133 1315h-67c-34 56 -67 113 -101 169h83c24 -38 48 -76 74 -114c48 40 92 76 138 114h53c-55 -52 -110 -104 -164 -156c-6 -4 -11 -9 -16 -13z" />
    <glyph glyph-name="Nacute" unicode="&#x143;" horiz-adv-x="1472" 
d="M2074 1227c76 4 147 -27 120 -76c-11 -21 -37 -43 -77 -19c-38 23 -77 35 -115 24c-186 -50 -500 -444 -717 -1129c-8 -26 -8 -30 -13 -33c-4 -3 -19 -12 -39 -17c-20 -6 -28 10 -37 32c-69 218 -82 545 -104 782c-21 -69 -159 -328 -282 -567
c-96 -186 -266 -300 -462 -300c-104 0 -326 50 -321 272c11 286 280 323 302 324c23 1 36 -14 34 -35c-1 -16 -17 -32 -33 -30c-31 4 -33 25 -96 11c-68 -19 -144 -125 -141 -265c3 -150 109 -244 264 -244c172 0 325 118 401 248c104 185 230 446 293 583c1 1 1 3 2 4
c47 134 2 354 -168 369c-2 0 -18 1 -20 1v0v0c-89 -1 -184 -38 -265 -98c-82 -60 -149 -142 -182 -233c-14 -39 -21 -76 -21 -111c0 -61 21 -113 59 -149c38 -37 94 -65 164 -65c59 0 87 5 128 23c15 6 21 19 23 26c1 2 1 3 1 4l1 1v0c3 8 9 15 18 20c17 8 36 4 43 -10
c7 -13 -1 -29 -17 -39c-57 -38 -131 -49 -197 -49c-77 0 -140 24 -185 67c-44 43 -68 103 -68 171c0 39 7 79 23 122c35 97 106 184 192 247c83 61 185 110 295 106c113 -2 204 -62 235 -152c82 -242 64 -598 125 -908c7 -38 12 -44 18 -44c7 0 7 8 16 37
c351 1005 742 1096 803 1099zM1432 1320c-2 10 9 17 9 17s41 24 46 53c3 18 -7 50 -7 50c-7 18 -3 42 13 60c21 25 47 25 66 11c16 -12 21 -37 18 -56c-13 -76 -103 -127 -130 -140c-12 -6 -15 5 -15 5z" />
    <glyph glyph-name="Ncaron" unicode="&#x147;" horiz-adv-x="1472" 
d="M2074 1227c76 4 147 -27 120 -76c-11 -21 -37 -43 -77 -19c-38 23 -77 35 -115 24c-186 -50 -500 -444 -717 -1129c-8 -26 -8 -30 -13 -33c-4 -3 -19 -12 -39 -17c-20 -6 -28 10 -37 32c-69 218 -82 545 -104 782c-21 -69 -159 -328 -282 -567
c-96 -186 -266 -300 -462 -300c-104 0 -326 50 -321 272c11 286 280 323 302 324c23 1 36 -14 34 -35c-1 -16 -17 -32 -33 -30c-31 4 -33 25 -96 11c-68 -19 -144 -125 -141 -265c3 -150 109 -244 264 -244c172 0 325 118 401 248c104 185 230 446 293 583c1 1 1 3 2 4
c47 134 2 354 -168 369c-2 0 -18 1 -20 1v0v0c-89 -1 -184 -38 -265 -98c-82 -60 -149 -142 -182 -233c-14 -39 -21 -76 -21 -111c0 -61 21 -113 59 -149c38 -37 94 -65 164 -65c59 0 87 5 128 23c15 6 21 19 23 26c1 2 1 3 1 4l1 1v0c3 8 9 15 18 20c17 8 36 4 43 -10
c7 -13 -1 -29 -17 -39c-57 -38 -131 -49 -197 -49c-77 0 -140 24 -185 67c-44 43 -68 103 -68 171c0 39 7 79 23 122c35 97 106 184 192 247c83 61 185 110 295 106c113 -2 204 -62 235 -152c82 -242 64 -598 125 -908c7 -38 12 -44 18 -44c7 0 7 8 16 37
c351 1005 742 1096 803 1099zM1513 1315h-67c-34 56 -67 113 -101 169h83c24 -38 48 -76 74 -114c48 40 92 76 138 114h53c-55 -52 -110 -104 -164 -156c-6 -4 -11 -9 -16 -13z" />
    <glyph glyph-name="Rcaron" unicode="&#x158;" horiz-adv-x="1387" 
d="M2090 -579c-6 -6 -42 -33 -133 -35c-153 5 -483 24 -780 746c-42 108 -70 206 -98 269c-36 -6 -70 -7 -98 -4c0 0 -75 12 -61 65c9 25 38 65 135 38c27 -10 49 -31 69 -57c134 43 275 174 311 333c41 179 -35 334 -255 353c-8 0 -15 1 -23 1c-15 0 -30 -5 -35 -17
c-6 -19 -69 -213 -244 -719c-166 -477 -428 -475 -588 -444c-117 24 -264 123 -271 295c-6 141 77 257 190 322c4 60 22 126 55 192c116 228 422 421 794 420c426 -2 511 -222 468 -407c-58 -197 -233 -313 -384 -357c46 -78 75 -188 107 -258c73 -175 337 -739 712 -747
c90 -2 92 13 101 36c5 12 21 18 32 8c10 -9 6 -24 -4 -33zM281 572c-2 -83 20 -156 68 -193c113 -86 195 -12 217 24c19 31 39 124 -90 172c-72 23 -138 18 -195 -3zM1033 1096c3 15 3 34 -14 38c-331 -7 -506 -124 -630 -269c-61 -71 -97 -171 -106 -264
c69 24 143 30 210 13c95 -24 171 -128 100 -242c-84 -112 -218 -114 -300 -44c-52 45 -83 117 -85 203c-49 -36 -85 -85 -103 -131c-32 -83 -48 -335 191 -408c296 -90 442 203 523 451c81 251 198 600 214 653zM998 430c21 -3 44 -4 67 -1c-11 20 -23 34 -35 41
c-13 6 -51 15 -65 0c-21 -31 26 -38 33 -40zM1250 1315h-67c-34 56 -67 113 -101 169h83c24 -38 48 -76 74 -114c48 40 92 76 138 114h53c-55 -52 -110 -104 -164 -156c-6 -4 -11 -9 -16 -13z" />
    <glyph glyph-name="Uring" unicode="&#x16e;" 
d="M801 502h10s21 -3 17 -6c-56 -61 -144 -282 -144 -409c0 -23 8 -40 30 -42c41 0 65 59 72 67c3 6 9 10 15 10s8 -5 8 -9c0 -40 -71 -121 -127 -121c-58 0 -76 45 -76 87c0 57 25 124 38 150c0 0 -2 0 -3 1c-76 -130 -182 -236 -299 -236c-95 0 -126 54 -126 119
c0 93 60 217 92 297c46 116 127 315 127 498c0 133 -80 243 -239 243c-126 0 -305 -88 -348 -319c-5 -28 -8 -54 -8 -79c0 -211 174 -299 238 -317c15 -4 27 -6 36 -6c51 0 45 37 74 37c15 0 32 -12 32 -31c0 -34 -44 -36 -76 -36c-219 0 -363 158 -363 362
c0 236 185 417 408 417c235 0 303 -142 303 -299c0 -196 -103 -428 -123 -485c-34 -98 -81 -204 -81 -273c0 -44 12 -81 65 -81c82 0 211 66 330 358c32 78 74 99 118 103zM727 1392c58 8 111 -30 85 -92c-27 -66 -96 -99 -163 -108c-63 -9 -104 29 -85 92
c27 66 96 98 163 108zM741 1284c9 29 6 69 -29 80c-36 11 -65 -35 -77 -64c-9 -29 -6 -70 29 -80c34 -11 68 33 77 64z" />
    <glyph glyph-name="scommaaccent" unicode="&#x219;" horiz-adv-x="404" 
d="M71 -315c0 0 2 -12 15 -6c27 13 117 64 129 141c3 19 -1 44 -17 55c-19 15 -45 14 -67 -10c-16 -19 -19 -42 -13 -60c0 0 11 -32 7 -50c-5 -29 -45 -53 -45 -53s-11 -7 -9 -17zM317 512c20 0 116 -4 116 -86c0 -33 -21 -76 -61 -76c-25 0 -49 23 -49 51c0 37 37 43 37 60
c0 20 -35 27 -56 27c-47 0 -107 -25 -107 -76c0 -106 166 -149 166 -269c0 -34 -18 -151 -182 -151c-76 0 -162 22 -162 105c0 57 33 78 63 78c26 -2 47 -25 47 -52c0 -31 -31 -37 -31 -59c0 -29 42 -45 69 -45c39 0 118 15 118 103c0 83 -169 149 -169 247c0 11 1 22 6 33
c41 104 138 110 195 110z" />
    <glyph glyph-name="Atilde" unicode="&#xc3;" horiz-adv-x="1556" 
d="M1400 366c86 233 240 575 408 703c-97 -42 -322 -288 -515 -535c45 -45 104 -168 104 -168h3zM633 100c-72 -3 -145 28 -188 73c-56 57 -74 136 -67 215c13 106 72 215 188 279c83 46 190 73 286 63c88 -6 268 -44 410 -167c172 221 369 444 565 553c-4 -1 -7 -3 -11 -4
c-119 -38 -319 29 -504 11c-149 -15 -216 -112 -197 -221c31 -186 279 -187 280 -8c0 14 17 27 32 23s21 -14 20 -32c-48 -224 -369 -178 -393 5c-15 118 89 240 245 256c181 21 375 -43 506 -13c124 28 239 59 339 41c18 -6 26 -30 20 -45c-7 -15 -26 -25 -39 -19
c-24 11 -168 97 -320 -89c-151 -186 -270 -457 -398 -908c-7 -32 1 -58 24 -63c24 -4 52 6 78 66c2 5 9 16 19 13s4 -18 1 -26c-3 -7 -59 -119 -151 -111c-93 8 -57 134 -47 173c3 8 14 45 32 99c-10 33 -33 125 -112 215c-26 -35 -52 -70 -76 -104
c-90 -125 -306 -464 -678 -443c-320 18 -442 232 -434 429c6 159 121 289 248 368c4 2 36 24 53 2c7 -10 0 -25 -15 -32c-21 -9 -39 0 -66 -24c-79 -67 -137 -168 -137 -306c-1 -260 191 -397 352 -407c315 -21 468 224 623 413c32 44 66 89 101 135
c-76 76 -187 147 -346 177c-125 21 -246 -15 -301 -47c-110 -66 -160 -157 -171 -255c-7 -67 11 -143 59 -194c40 -41 96 -68 163 -68c55 0 85 33 95 43c10 9 29 13 40 2c9 -8 7 -25 -8 -33c-42 -22 -83 -35 -120 -35zM1854 1366c-16 0 -52 -27 -53 -32
c-13 -13 -28 -21 -43 -21c-19 0 -29 14 -29 29c0 47 62 70 91 70c70 0 76 -53 115 -53c17 0 52 30 54 34c12 12 27 20 41 20c20 0 30 -13 30 -29c0 -44 -57 -70 -90 -70c-54 0 -77 52 -116 52z" />
    <glyph glyph-name="Gbreve" unicode="&#x11e;" horiz-adv-x="866" 
d="M494 517c-102 -32 -216 -37 -309 -9c-84 -269 4 -500 177 -504c159 -3 329 167 402 349l12 34c35 88 70 109 118 113c0 0 25 0 14 -10c-28 -25 -47 -76 -47 -76s-137 -380 -180 -499c-28 -77 -203 -491 -547 -465c-179 13 -271 114 -243 225c60 243 475 134 597 288l3 -2
c9 -8 -28 -53 -71 -77c-102 -56 -450 -35 -454 -236c-2 -144 125 -182 232 -173c87 6 245 40 387 365c59 138 107 295 125 351c0 0 1 5 3 12c-97 -143 -250 -236 -362 -233c-137 0 -393 149 -264 545l12 33c-63 43 -102 112 -100 210c17 261 236 358 420 386
c14 2 51 7 56 -23c5 -42 -41 -46 -56 -41c-57 22 -121 17 -187 -21c-185 -109 -212 -332 -110 -455c150 341 462 539 631 560c181 22 190 -74 194 -112c7 -209 -273 -473 -453 -535zM254 665c-23 -40 -41 -81 -56 -121c33 -16 72 -25 116 -25c304 0 454 265 504 352
c48 86 82 231 -27 264c-108 34 -352 -141 -537 -470zM863 1425h63c-34 -65 -111 -110 -184 -110s-113 38 -91 109v1h67c-5 -32 4 -84 44 -84c52 0 84 43 101 83v1z" />
    <glyph glyph-name="Otilde" unicode="&#xd5;" 
d="M914 1049c2 -43 -8 -87 -26 -131c34 -71 44 -186 -1 -355c-99 -368 -350 -603 -551 -596c-137 0 -397 148 -273 544c4 12 7 23 11 34c-64 43 -105 112 -104 210c13 260 231 358 414 385c13 2 50 7 56 -23c6 -42 -40 -46 -55 -40c-58 21 -122 17 -186 -21
c-183 -109 -206 -334 -103 -456c144 342 453 539 621 560c182 23 191 -73 197 -111zM227 662c-22 -41 -40 -82 -54 -122c33 -16 72 -25 117 -25c288 3 450 265 497 352c8 14 15 28 21 44c-26 49 -57 50 -76 41c-29 -13 -10 -56 -8 -64c2 -9 -3 -8 -3 -8s-21 -2 -31 32
c-9 34 9 70 31 82c30 18 71 18 107 -5c9 63 -7 123 -72 143c-109 34 -350 -142 -529 -470zM346 1c301 -7 528 573 494 796c-1 8 -3 16 -4 23c-93 -141 -250 -266 -366 -307c-102 -31 -216 -37 -309 -9c-80 -268 12 -500 185 -503zM685 1362c-16 0 -52 -27 -53 -32
c-13 -13 -28 -21 -43 -21c-19 0 -29 14 -29 29c0 47 62 70 91 70c70 0 76 -53 115 -53c17 0 52 30 54 34c12 12 27 20 41 20c20 0 30 -13 30 -29c0 -44 -57 -70 -90 -70c-54 0 -77 52 -116 52z" />
    <glyph glyph-name="Ograve" unicode="&#xd2;" 
d="M914 1049c2 -43 -8 -87 -26 -131c34 -71 44 -186 -1 -355c-99 -368 -350 -603 -551 -596c-137 0 -397 148 -273 544c4 12 7 23 11 34c-64 43 -105 112 -104 210c13 260 231 358 414 385c13 2 50 7 56 -23c6 -42 -40 -46 -55 -40c-58 21 -122 17 -186 -21
c-183 -109 -206 -334 -103 -456c144 342 453 539 621 560c182 23 191 -73 197 -111zM227 662c-22 -41 -40 -82 -54 -122c33 -16 72 -25 117 -25c288 3 450 265 497 352c8 14 15 28 21 44c-26 49 -57 50 -76 41c-29 -13 -10 -56 -8 -64c2 -9 -3 -8 -3 -8s-21 -2 -31 32
c-9 34 9 70 31 82c30 18 71 18 107 -5c9 63 -7 123 -72 143c-109 34 -350 -142 -529 -470zM346 1c301 -7 528 573 494 796c-1 8 -3 16 -4 23c-93 -141 -250 -266 -366 -307c-102 -31 -216 -37 -309 -9c-80 -268 12 -500 185 -503zM813 1516v-3c0 -9 -10 -15 -10 -15
c-2 0 -46 -28 -46 -62c0 -45 11 -42 11 -59c0 -32 -29 -62 -55 -62c-29 0 -46 24 -46 54c0 97 137 154 137 154c7 0 9 -7 9 -7z" />
    <glyph glyph-name="Igrave" unicode="&#xcc;" horiz-adv-x="1076" 
d="M1276 1074c20 5 26 1 29 -4c3 -6 2 -19 -8 -21c-155 -34 -227 -375 -308 -634c-82 -260 -270 -461 -515 -472c-244 -10 -407 161 -437 352s66 380 263 461c22 9 37 2 41 -10c5 -12 3 -28 -13 -36c-25 -12 -56 28 -125 -54c-98 -125 -98 -245 -93 -323
c4 -79 80 -333 334 -353c404 -25 486 491 546 699s144 305 191 346c-61 -17 -329 61 -449 61c-125 0 -279 -74 -285 -223c1 -196 202 -226 275 -216s79 51 93 64c13 12 27 11 37 0s8 -28 -4 -36c-256 -147 -441 6 -461 136c-18 125 106 296 319 302c225 8 397 -96 570 -39z
M1264 1514v-3c0 -9 -10 -15 -10 -15c-2 0 -46 -28 -46 -62c0 -45 11 -42 11 -59c0 -32 -29 -62 -55 -62c-29 0 -46 24 -46 54c0 97 137 154 137 154c7 0 9 -7 9 -7z" />
    <glyph glyph-name="Scedilla" unicode="&#x15e;" horiz-adv-x="854" 
d="M439 -24c-7 0 -14 0 -19 1c-62 6 -403 53 -406 363c2 135 118 273 282 273c126 0 308 -77 308 -320c0 -91 -32 -189 -88 -279c82 16 252 85 252 313c0 205 -184 293 -274 425c-147 37 -134 70 -134 76c0 9 10 22 21 22c36 0 24 -47 93 -65c-17 34 -28 70 -28 112
c0 227 262 278 308 278c88 0 176 -49 176 -157c0 -150 -167 -286 -309 -286h-4c96 -93 228 -203 228 -384c0 -239 -197 -348 -357 -368c-3 -11 -3 -24 -3 -37c0 -18 1 -36 1 -54c0 -64 -29 -115 -100 -115c-34 0 -83 22 -83 81c0 13 4 26 18 35l11 -11
c-8 -4 -10 -10 -10 -16c0 -27 31 -39 50 -39c81 0 80 97 98 154c-10 -1 -21 -2 -31 -2zM462 11c49 81 81 183 81 311c-12 181 -130 261 -249 261c-162 0 -219 -126 -219 -238c0 -68 36 -318 387 -334zM886 949c9 25 14 48 14 69c0 79 -57 125 -150 125
c-110 0 -231 -94 -231 -232c0 -57 27 -102 65 -145c10 -2 21 -4 32 -4h5c105 0 223 84 265 187z" />
    <glyph glyph-name="Idotaccent" unicode="&#x130;" horiz-adv-x="1076" 
d="M1276 1074c20 5 26 1 29 -4c3 -6 2 -19 -8 -21c-155 -34 -227 -375 -308 -634c-82 -260 -270 -461 -515 -472c-244 -10 -407 161 -437 352s66 380 263 461c22 9 37 2 41 -10c5 -12 3 -28 -13 -36c-25 -12 -56 28 -125 -54c-98 -125 -98 -245 -93 -323
c4 -79 80 -333 334 -353c404 -25 486 491 546 699s144 305 191 346c-61 -17 -329 61 -449 61c-125 0 -279 -74 -285 -223c1 -196 202 -226 275 -216s79 51 93 64c13 12 27 11 37 0s8 -28 -4 -36c-256 -147 -441 6 -461 136c-18 125 106 296 319 302c225 8 397 -96 570 -39z
M1182 1312c-31 0 -57 25 -57 57c0 31 26 57 57 57s57 -26 57 -57c0 -32 -26 -57 -57 -57z" />
    <glyph glyph-name="Ecaron" unicode="&#x11a;" horiz-adv-x="807" 
d="M543 1006c277 221 573 121 375 -115c-98 -100 -287 -174 -462 -190c32 -76 126 -101 163 -84c12 6 12 -5 9 -9c-12 -13 -35 -18 -42 -19c-9 -1 -18 -2 -26 -2c-73 -11 -403 -52 -429 -390c-8 -106 64 -225 202 -241c-7 58 -1 127 23 208c34 115 210 351 367 278
c142 -71 -28 -494 -343 -518c17 -73 62 -149 153 -218c7 -5 14 -24 -15 -18c-12 3 -145 69 -180 235c-148 4 -278 61 -297 232c-24 207 234 415 422 436h7c-68 15 -103 55 -110 107c-4 0 -8 0 -13 1c-244 13 -446 144 -466 300c-28 312 461 337 555 302
c25 -10 36 -25 29 -45s-35 -25 -49 -19c-26 11 -18 41 -78 47c-227 19 -383 -101 -392 -237c-3 -202 211 -294 414 -312c8 83 75 188 183 271zM433 230c-29 -58 -74 -162 -59 -275c27 1 55 5 85 14c226 65 321 390 225 430c-89 38 -202 -75 -251 -169zM557 741
c237 45 417 207 353 314c-44 60 -139 44 -218 5c-70 -35 -275 -170 -245 -329c39 1 76 4 110 10zM827 1315h-67c-34 56 -67 113 -101 169h83c24 -38 48 -76 74 -114c48 40 92 76 138 114h53c-55 -52 -110 -104 -164 -156c-6 -4 -11 -9 -16 -13z" />
    <glyph glyph-name="Lslash" unicode="&#x141;" horiz-adv-x="866" 
d="M463 278c0 17 95 35 186 33l29 77c9 22 18 47 28 75c-33 -8 -68 -13 -105 -15c-316 -15 -347 240 -338 326c9 85 79 327 353 407c33 8 49 1 48 -26c0 -22 -24 -32 -51 -25c-33 7 -103 -10 -159 -69s-130 -166 -126 -319c3 -153 139 -274 335 -260c18 1 36 5 54 10
c90 240 242 618 447 668c97 21 140 -50 95 -182c-36 -108 -194 -384 -468 -489l-26 -82c-12 -37 -24 -71 -36 -103c15 -3 28 -7 40 -12c16 -7 32 -17 42 -33c16 -25 10 -49 -12 -56c-38 -13 -57 29 -90 49c-62 -147 -132 -248 -200 -315c76 -41 163 -97 259 -167
c195 -141 596 -371 857 103c10 19 31 43 56 33c25 -9 11 -31 -1 -54s-153 -283 -484 -288c-330 -4 -521 183 -619 249c-30 20 -68 52 -113 84c-17 -14 -35 -26 -52 -36c-153 -90 -407 -65 -390 64c24 121 210 116 289 95c44 -11 97 -31 156 -61c66 84 122 202 167 315
c-71 7 -152 -6 -152 -6s-19 -2 -19 10zM1039 1025c-60 -75 -131 -191 -235 -499c165 86 335 283 392 474c17 74 20 118 -15 125c-36 7 -74 -15 -142 -100zM375 -126c20 12 39 28 57 46c-66 45 -142 85 -215 86c-94 -1 -129 -34 -134 -78c-5 -79 182 -121 292 -54z" />
    <glyph glyph-name="lslash" unicode="&#x142;" horiz-adv-x="354" 
d="M-28 278c0 15 73 30 153 33c133 384 231 603 407 761c123 110 273 127 336 101c59 -25 11 -80 -20 -61c-247 152 -493 -321 -579 -583c-22 -59 -49 -143 -73 -220c31 -2 60 -8 82 -17c16 -7 32 -17 42 -33c16 -25 10 -49 -12 -56c-38 -13 -57 30 -91 50
c-10 6 -22 10 -35 14c-24 -79 -42 -143 -44 -151c0 0 -22 -70 31 -73c40 -2 56 43 74 73c0 0 7 11 16 6c7 -3 7 -9 5 -15c-18 -51 -80 -126 -156 -112c-53 11 -68 59 -45 134l49 147c-62 2 -121 -8 -121 -8s-19 -2 -19 10z" />
    <glyph glyph-name="hungarumlaut" unicode="&#x2dd;" horiz-adv-x="630" 
d="M375 607v2c0 9 9 15 9 15c1 0 46 28 46 61c0 47 -10 43 -10 60c0 33 29 62 55 62c29 0 46 -26 46 -54c0 -99 -145 -153 -138 -153c-6 0 -8 7 -8 7zM533 607v2c0 9 9 15 9 15c1 0 46 28 46 61c0 47 -10 43 -10 60c0 33 29 62 55 62c29 0 46 -26 46 -54
c0 -99 -145 -153 -138 -153c-6 0 -8 7 -8 7z" />
    <glyph glyph-name="Eth" unicode="&#xd0;" horiz-adv-x="1381" 
d="M876 1159c351 -55 547 -271 547 -557c0 -44 -5 -90 -14 -137c-76 -375 -389 -545 -598 -545c-155 0 -248 56 -331 107c-99 -98 -195 -100 -239 -100c-45 0 -194 25 -194 112c0 78 83 126 205 129c76 0 148 -33 220 -73c22 35 40 74 57 112c-17 -1 -33 -2 -49 -2
c-283 0 -450 187 -450 399c0 157 92 325 295 444c147 86 317 118 450 118c37 0 72 -3 101 -7zM1318 459c6 44 8 85 8 124c0 316 -183 471 -398 524c-18 0 -35 -13 -38 -25c-15 -65 -64 -243 -124 -431c64 -8 117 -30 117 -76c0 -17 -14 -31 -35 -31c-29 0 -47 35 -77 53
l-20 9c-40 -124 -84 -249 -126 -346c131 40 178 133 189 173c4 16 18 23 36 23c31 0 40 -14 40 -30c0 -71 -190 -176 -283 -206c-27 -64 -59 -113 -90 -151c97 -57 199 -115 318 -115c206 0 433 217 483 505zM526 622c0 15 78 31 160 33c58 189 113 382 129 437c1 3 1 6 1 8
c0 28 -31 27 -65 27c-449 -10 -633 -283 -633 -516c0 -62 13 -121 38 -172c85 -143 221 -196 346 -196c15 0 30 0 45 2c25 49 76 207 128 374c-9 1 -18 1 -26 1c-55 0 -104 -8 -104 -8h-3c-5 0 -16 1 -16 10zM232 -25c19 -5 37 -7 54 -7c67 0 117 34 155 82
c-61 37 -151 83 -219 83c-70 0 -112 -34 -112 -71c0 -31 31 -66 122 -87z" />
    <glyph glyph-name="Dcroat" unicode="&#x110;" horiz-adv-x="1381" 
d="M876 1159c351 -55 547 -271 547 -557c0 -44 -5 -90 -14 -137c-76 -375 -389 -545 -598 -545c-155 0 -248 56 -331 107c-99 -98 -195 -100 -239 -100c-45 0 -194 25 -194 112c0 78 83 126 205 129c76 0 148 -33 220 -73c22 35 40 74 57 112c-17 -1 -33 -2 -49 -2
c-283 0 -450 187 -450 399c0 157 92 325 295 444c147 86 317 118 450 118c37 0 72 -3 101 -7zM1318 459c6 44 8 85 8 124c0 316 -183 471 -398 524c-18 0 -35 -13 -38 -25c-15 -65 -64 -243 -124 -431c64 -8 117 -30 117 -76c0 -17 -14 -31 -35 -31c-29 0 -47 35 -77 53
l-20 9c-40 -124 -84 -249 -126 -346c131 40 178 133 189 173c4 16 18 23 36 23c31 0 40 -14 40 -30c0 -71 -190 -176 -283 -206c-27 -64 -59 -113 -90 -151c97 -57 199 -115 318 -115c206 0 433 217 483 505zM526 622c0 15 78 31 160 33c58 189 113 382 129 437c1 3 1 6 1 8
c0 28 -31 27 -65 27c-449 -10 -633 -283 -633 -516c0 -62 13 -121 38 -172c85 -143 221 -196 346 -196c15 0 30 0 45 2c25 49 76 207 128 374c-9 1 -18 1 -26 1c-55 0 -104 -8 -104 -8h-3c-5 0 -16 1 -16 10zM232 -25c19 -5 37 -7 54 -7c67 0 117 34 155 82
c-61 37 -151 83 -219 83c-70 0 -112 -34 -112 -71c0 -31 31 -66 122 -87z" />
    <glyph glyph-name="rcommaaccent" unicode="&#x157;" horiz-adv-x="459" 
d="M183 512c67 -2 58 -92 44 -143h2c35 46 98 138 177 138c44 0 91 -29 91 -80c0 -81 -66 -83 -73 -83c-28 0 -56 19 -56 52c0 23 17 43 40 50c9 3 24 3 24 17c0 12 -17 20 -29 20c-70 0 -174 -132 -216 -254c-43 -124 -72 -203 -72 -203s-2 -9 -13 -13
c-10 -4 -69 -18 -69 -18s-8 1 -6 9c3 7 138 373 138 373s26 83 -8 85c-36 2 -63 -38 -82 -64c-3 -5 -12 -8 -17 -5c-8 5 -2 15 -2 15s66 106 127 104z" />
    <glyph glyph-name="Gcommaaccent" unicode="&#x122;" horiz-adv-x="866" 
d="M494 517c-102 -32 -216 -37 -309 -9c-84 -269 4 -500 177 -504c159 -3 329 167 402 349l12 34c35 88 70 109 118 113c0 0 25 0 14 -10c-28 -25 -47 -76 -47 -76s-137 -380 -180 -499c-28 -77 -203 -491 -547 -465c-179 13 -271 114 -243 225c60 243 475 134 597 288l3 -2
c9 -8 -28 -53 -71 -77c-102 -56 -450 -35 -454 -236c-2 -144 125 -182 232 -173c87 6 245 40 387 365c59 138 107 295 125 351c0 0 1 5 3 12c-97 -143 -250 -236 -362 -233c-137 0 -393 149 -264 545l12 33c-63 43 -102 112 -100 210c17 261 236 358 420 386
c14 2 51 7 56 -23c5 -42 -41 -46 -56 -41c-57 22 -121 17 -187 -21c-185 -109 -212 -332 -110 -455c150 341 462 539 631 560c181 22 190 -74 194 -112c7 -209 -273 -473 -453 -535zM254 665c-23 -40 -41 -81 -56 -121c33 -16 72 -25 116 -25c304 0 454 265 504 352
c48 86 82 231 -27 264c-108 34 -352 -141 -537 -470z" />
    <glyph glyph-name="Kcommaaccent" unicode="&#x136;" horiz-adv-x="1148" 
d="M557 -304c0 0 2 -12 15 -6c27 13 117 64 129 141c3 19 -1 44 -17 55c-19 15 -45 14 -67 -10c-16 -19 -19 -42 -13 -60c0 0 11 -32 7 -50c-5 -29 -45 -53 -45 -53s-11 -7 -9 -17zM1844 -532c5 12 21 18 32 9c11 -10 7 -25 -3 -34c-5 -6 -40 -33 -131 -35
c-153 5 -534 53 -811 683c-43 103 -72 198 -99 263c-26 -7 -52 -10 -77 -7c-34 4 -90 31 -76 88c7 25 46 57 117 28c28 -10 52 -35 74 -68c121 61 222 234 328 411c76 142 247 383 353 383c33 0 66 -25 68 -64c1 -33 -23 -68 -57 -70c-30 -3 -57 15 -59 41c-2 23 8 35 -4 39
c-7 3 -16 -3 -30 -15c-62 -54 -145 -207 -300 -474c-61 -105 -172 -221 -284 -273c47 -79 83 -189 117 -258c116 -232 370 -675 743 -682c90 -2 92 12 99 35zM757 374c22 -2 43 -1 64 3c-14 28 -28 48 -43 56c-23 11 -55 10 -62 -12c-13 -35 35 -45 41 -47zM913 1013
c-40 -20 -101 -72 -140 -163c-38 -90 -146 -480 -197 -615c-143 -380 -564 -301 -563 -134c8 153 180 150 195 150c16 -1 30 -6 29 -22c0 -15 -10 -21 -22 -22c-20 -1 -28 18 -57 13c-40 -8 -76 -43 -81 -94c-7 -62 37 -131 153 -135c104 -3 184 37 277 275
c92 238 160 527 269 680c20 27 -10 20 -21 18c-151 -25 -329 52 -501 42c-74 -4 -285 -91 -288 -332c-3 -266 217 -334 275 -343c115 -19 180 6 221 112c7 19 30 25 47 17c20 -9 23 -33 13 -51c-138 -201 -622 -151 -633 252c-5 167 147 328 309 364c155 35 284 -20 505 -34
c89 -5 176 34 190 40c13 6 22 4 25 0s3 -13 -5 -18z" />
    <glyph glyph-name="Lcommaaccent" unicode="&#x13b;" horiz-adv-x="866" 
d="M385 -465c0 0 2 -12 15 -6c27 13 117 64 129 141c3 19 -1 44 -17 55c-19 15 -45 14 -67 -10c-16 -19 -19 -42 -13 -60c0 0 11 -32 7 -50c-5 -29 -45 -53 -45 -53s-11 -7 -9 -17zM1681 -94c25 -9 11 -31 -1 -54s-153 -283 -484 -288c-330 -4 -521 183 -619 249
c-30 20 -68 52 -113 84c-17 -14 -35 -26 -52 -36c-153 -90 -407 -65 -390 64c24 121 210 116 289 95c44 -11 97 -31 156 -61c90 113 159 289 211 429c9 22 18 47 28 75c-33 -8 -68 -13 -105 -15c-316 -15 -347 240 -338 326c9 85 79 327 353 407c33 8 49 1 48 -26
c0 -22 -24 -32 -51 -25c-33 7 -103 -10 -159 -69s-130 -166 -126 -319c3 -153 139 -274 335 -260c18 1 36 5 54 10c90 240 242 618 447 668c97 21 140 -50 95 -182c-36 -108 -194 -384 -468 -489c-8 -26 -17 -53 -26 -82c-74 -235 -166 -381 -256 -470
c76 -41 163 -97 259 -167c195 -141 596 -371 857 103c10 19 31 43 56 33zM1039 1025c-60 -75 -131 -191 -235 -499c165 86 335 283 392 474c17 74 20 118 -15 125c-36 7 -74 -15 -142 -100zM375 -126c20 12 39 28 57 46c-66 45 -142 85 -215 86c-94 -1 -129 -34 -134 -78
c-5 -79 182 -121 292 -54z" />
    <glyph glyph-name="Ncommaaccent" unicode="&#x145;" horiz-adv-x="1472" 
d="M825 -304c0 0 2 -12 15 -6c27 13 117 64 129 141c3 19 -1 44 -17 55c-19 15 -45 14 -67 -10c-16 -19 -19 -42 -13 -60c0 0 11 -32 7 -50c-5 -29 -45 -53 -45 -53s-11 -7 -9 -17zM2074 1227c76 4 147 -27 120 -76c-11 -21 -37 -43 -77 -19c-38 23 -77 35 -115 24
c-186 -50 -500 -444 -717 -1129c-8 -26 -8 -30 -13 -33c-4 -3 -19 -12 -39 -17c-20 -6 -28 10 -37 32c-69 218 -82 545 -104 782c-21 -69 -159 -328 -282 -567c-96 -186 -266 -300 -462 -300c-104 0 -326 50 -321 272c11 286 280 323 302 324c23 1 36 -14 34 -35
c-1 -16 -17 -32 -33 -30c-31 4 -33 25 -96 11c-68 -19 -144 -125 -141 -265c3 -150 109 -244 264 -244c172 0 325 118 401 248c104 185 230 446 293 583c1 1 1 3 2 4c47 134 2 354 -168 369c-2 0 -18 1 -20 1v0v0c-89 -1 -184 -38 -265 -98c-82 -60 -149 -142 -182 -233
c-14 -39 -21 -76 -21 -111c0 -61 21 -113 59 -149c38 -37 94 -65 164 -65c59 0 87 5 128 23c15 6 21 19 23 26c1 2 1 3 1 4l1 1v0c3 8 9 15 18 20c17 8 36 4 43 -10c7 -13 -1 -29 -17 -39c-57 -38 -131 -49 -197 -49c-77 0 -140 24 -185 67c-44 43 -68 103 -68 171
c0 39 7 79 23 122c35 97 106 184 192 247c83 61 185 110 295 106c113 -2 204 -62 235 -152c82 -242 64 -598 125 -908c7 -38 12 -44 18 -44c7 0 7 8 16 37c351 1005 742 1096 803 1099z" />
    <glyph glyph-name="Aogonek" unicode="&#x104;" horiz-adv-x="1556" 
d="M1425 -221l3 -16c-6 -2 -39 -9 -51 -9c-63 0 -110 40 -110 89c0 60 25 100 89 139c6 4 13 8 20 10c-47 25 -62 57 -62 94c0 54 33 118 49 178c-10 33 -33 125 -112 215c-26 -35 -52 -70 -76 -104c-87 -121 -294 -444 -645 -444c-335 0 -467 217 -467 412
c0 168 115 303 248 386c3 1 18 12 33 12c8 0 23 -6 23 -19c0 -35 -48 -16 -84 -47c-79 -68 -137 -168 -137 -306c0 -288 221 -408 389 -408c290 0 437 233 586 414c32 44 66 89 101 135c-81 81 -232 183 -423 183c-290 0 -397 -192 -397 -336c0 -121 82 -234 224 -234
c84 0 88 52 118 52c10 0 22 -8 22 -20c0 -37 -114 -55 -143 -55c-157 0 -247 125 -247 256c0 182 169 376 435 376c62 0 280 -21 451 -169c172 221 369 444 565 553l-11 -4c-27 -9 -59 -12 -93 -12c-98 0 -221 26 -343 26c-177 0 -268 -74 -268 -188
c0 -118 83 -177 157 -177c65 0 125 44 126 133c0 12 13 24 26 24c20 0 26 -15 26 -33c-23 -105 -105 -151 -189 -151c-103 0 -206 68 -206 179c0 110 101 218 247 233c26 3 53 4 80 4c120 0 242 -25 342 -25c30 0 58 2 84 8c98 22 191 46 275 46c35 0 86 3 86 -39
c0 -18 -17 -32 -33 -32c-6 0 -45 31 -119 31c-219 0 -429 -399 -607 -1026c-2 -8 -3 -15 -3 -21c0 -26 12 -43 36 -43c22 0 46 14 69 67c2 4 7 13 15 13c7 0 9 -4 9 -9s-2 -12 -4 -17c-3 -6 -41 -83 -106 -105c1 0 1 -1 1 -1c0 -1 -1 -3 -4 -5c-44 -28 -87 -77 -87 -135
c0 -41 29 -80 73 -80c6 0 12 0 19 2zM1293 534c45 -45 75 -102 106 -168c85 233 240 574 409 703c-97 -42 -322 -288 -515 -535z" />
    <glyph glyph-name="Iogonek" unicode="&#x12e;" horiz-adv-x="1076" 
d="M663 -221l3 -16c-6 -2 -39 -9 -51 -9c-63 0 -110 40 -110 89c0 46 14 80 50 111c-34 -8 -66 -12 -101 -12c-263 0 -423 210 -423 422c0 166 96 321 269 392c7 3 13 4 18 4c18 0 25 -13 25 -26c0 -11 -8 -27 -27 -27c-8 0 -17 2 -27 2c-21 0 -48 -7 -86 -53
c-80 -102 -95 -201 -95 -276c0 -17 1 -33 2 -47c4 -80 85 -354 362 -354c380 0 459 497 518 700c60 208 144 305 191 346c-6 -2 -14 -3 -24 -3c-88 0 -317 64 -425 64c-125 0 -279 -74 -285 -223c1 -175 161 -218 247 -218c129 0 100 75 140 75c12 0 24 -13 24 -26
c0 -7 -3 -15 -10 -19c-74 -43 -143 -60 -203 -60c-161 0 -260 123 -260 220c0 132 132 278 346 278c165 0 301 -56 432 -56c38 0 75 5 113 17c6 1 11 2 15 2c13 0 15 -6 15 -13c0 -6 -2 -13 -9 -14c-155 -34 -227 -375 -308 -634c-61 -194 -181 -355 -340 -429
c-41 -28 -78 -75 -78 -129c0 -41 29 -80 73 -80c6 0 12 0 19 2z" />
    <glyph glyph-name="Amacron" unicode="&#x100;" horiz-adv-x="1556" 
d="M1400 366c86 233 240 575 408 703c-97 -42 -322 -288 -515 -535c45 -45 104 -168 104 -168h3zM633 100c-72 -3 -145 28 -188 73c-56 57 -74 136 -67 215c13 106 72 215 188 279c83 46 190 73 286 63c88 -6 268 -44 410 -167c172 221 369 444 565 553c-4 -1 -7 -3 -11 -4
c-119 -38 -319 29 -504 11c-149 -15 -216 -112 -197 -221c31 -186 279 -187 280 -8c0 14 17 27 32 23s21 -14 20 -32c-48 -224 -369 -178 -393 5c-15 118 89 240 245 256c181 21 375 -43 506 -13c124 28 239 59 339 41c18 -6 26 -30 20 -45c-7 -15 -26 -25 -39 -19
c-24 11 -168 97 -320 -89c-151 -186 -270 -457 -398 -908c-7 -32 1 -58 24 -63c24 -4 52 6 78 66c2 5 9 16 19 13s4 -18 1 -26c-3 -7 -59 -119 -151 -111c-93 8 -57 134 -47 173c3 8 14 45 32 99c-10 33 -33 125 -112 215c-26 -35 -52 -70 -76 -104
c-90 -125 -306 -464 -678 -443c-320 18 -442 232 -434 429c6 159 121 289 248 368c4 2 36 24 53 2c7 -10 0 -25 -15 -32c-21 -9 -39 0 -66 -24c-79 -67 -137 -168 -137 -306c-1 -260 191 -397 352 -407c315 -21 468 224 623 413c32 44 66 89 101 135
c-76 76 -187 147 -346 177c-125 21 -246 -15 -301 -47c-110 -66 -160 -157 -171 -255c-7 -67 11 -143 59 -194c40 -41 96 -68 163 -68c55 0 85 33 95 43c10 9 29 13 40 2c9 -8 7 -25 -8 -33c-42 -22 -83 -35 -120 -35zM1774 1355c0 11 18 9 18 9s118 -10 164 15
c15 8 41 31 41 31c14 15 33 24 50 19c22 -5 28 -31 12 -56c-10 -15 -26 -26 -42 -33c-63 -27 -243 -12 -243 15z" />
    </font>
</defs>
</svg>
